<?xml version="1.0" encoding="UTF-8"?>
<svg width="200px" height="200px" fill="#FF5A3C" stroke="#FF5A3C" version="1.1" viewBox="0 0 272.52 272.52" xml:space="preserve" xmlns="http://www.w3.org/2000/svg"> <path d="m193.26 118.06c-0.877 0-1.777 0.126-2.677 0.373l-10.172 2.802-10.561-25.73c-2.993-7.289-11.838-13.22-19.717-13.22h-98.85c-7.88 0-16.724 5.931-19.716 13.22l-10.548 25.694-10.046-2.767c-0.899-0.247-1.799-0.373-2.676-0.373-4.808 0-8.297 3.673-8.297 8.732v5.996c0 5.906 4.806 10.712 10.712 10.712h1.151l-1.705 4.153c-2.78 6.77-5.043 18.236-5.043 25.558v51.115c0 5.906 4.806 10.712 10.712 10.712h13.99c5.906 0 10.712-4.806 10.712-10.712v-12.764h120.36v12.764c0 5.906 4.806 10.712 10.712 10.712h13.988c5.906 0 10.712-4.806 10.712-10.712v-51.114c0-7.321-2.263-18.787-5.043-25.558l-1.705-4.153h1.294c5.906 0 10.712-4.806 10.712-10.712v-5.996c1e-3 -5.059-3.489-8.732-8.296-8.732zm-164.56 19.622 15.978-38.918c1.79-4.36 7.11-7.928 11.823-7.928h88.418c4.713 0 10.033 3.567 11.823 7.928l15.978 38.918c1.789 4.36-0.602 7.928-5.315 7.928h-133.39c-4.714-1e-3 -7.105-3.568-5.316-7.928zm35.667 49.227c0 2.357-1.929 4.284-4.284 4.284h-30.352c-2.357 0-4.285-1.928-4.285-4.284v-14.566c0-2.356 1.928-4.284 4.285-4.284h30.352c2.355 0 4.284 1.928 4.284 4.284v14.566zm111.32 0c0 2.357-1.929 4.284-4.284 4.284h-30.352c-2.355 0-4.284-1.928-4.284-4.284v-14.566c0-2.356 1.929-4.284 4.284-4.284h30.352c2.355 0 4.284 1.928 4.284 4.284v14.566z"/>  <path d="m259.12 37.486h-50.735c-7.388 0-13.398 6.011-13.398 13.398v50.736c0 7.388 6.011 13.399 13.398 13.399h20.367v113.87c0 2.762 2.238 5 5 5s5-2.238 5-5v-113.87h20.368c7.388 0 13.398-6.011 13.398-13.399v-50.736c0-7.388-6.01-13.399-13.398-13.399zm-11.491 42.067c-2.918 2.627-7.216 3.959-12.774 3.959h-7.347c-0.882 0-1.6 0.719-1.6 1.601v12.389c0 1.346-1.095 2.44-2.441 2.44h-5.564c-1.347 0-2.441-1.095-2.441-2.44v-42.495c0-1.347 1.095-2.442 2.441-2.442h14.016c9.285 0 12.751 1.399 15.599 3.816 3.004 2.549 4.526 6.453 4.526 11.606-1e-3 5.035-1.485 8.925-4.415 11.566z"/> <path d="m239.68 62.825c-1.356-1.024-3.755-1.544-7.129-1.544h-5.039c-0.882 0-1.6 0.718-1.6 1.599v10.182c0 0.881 0.718 1.599 1.6 1.599h3.019c1.109 0 2.901-0.082 3.994-0.183 1.061-0.097 4.056-0.531 5.155-1.361 1.319-0.998 1.988-2.724 1.988-5.129 0-2.428-0.669-4.165-1.988-5.163z"/>  </svg>
