<?xml version="1.0" encoding="UTF-8"?>
<svg version="1.1" xmlns="http://www.w3.org/2000/svg" width="512" height="512">
<path d="M0 0 C3.4713293 0.01139341 6.94235162 0.00459097 10.41367054 -0.00687695 C35.5169318 -0.07708223 60.54306659 1.00931602 85.47851562 4.07324219 C86.51700653 4.19871429 86.51700653 4.19871429 87.57647705 4.32672119 C156.39285362 12.70035658 156.39285362 12.70035658 172.16601562 32.26074219 C175.31892969 37.38933706 175.58325814 41.37503865 175.5065918 47.20361328 C175.50702988 48.08231079 175.50746796 48.9610083 175.50791931 49.86633301 C175.50583787 52.75584531 175.48253726 55.64476938 175.45898438 58.53417969 C175.45338613 60.54342329 175.44911711 62.552671 175.44612122 64.56192017 C175.43469047 69.83916617 175.40523842 75.11616278 175.37200928 80.39331055 C175.34127027 85.78268053 175.32760769 91.17209098 175.3125 96.56152344 C175.28036712 107.128039 175.2291921 117.69436982 175.16601562 128.26074219 C176.1288295 128.39342499 177.09164337 128.52610779 178.08363342 128.66281128 C179.34582199 128.83934235 180.60801056 129.01587341 181.90844727 129.19775391 C183.16001114 129.37168671 184.41157501 129.54561951 185.70106506 129.724823 C202.42230352 132.3110742 217.8064921 140.97004539 230.16601562 152.26074219 C230.94460938 152.958125 231.72320312 153.65550781 232.52539062 154.37402344 C247.42026898 168.42143457 258.83736408 190.031643 260.34301758 210.68920898 C260.40994541 213.44231609 260.45084866 216.19445683 260.47851562 218.94824219 C260.50751953 219.89119141 260.53652344 220.83414063 260.56640625 221.80566406 C260.65733427 231.98260834 257.2779061 240.87898087 250.16601562 248.26074219 C243.30757608 254.16810906 235.23002421 257.26074219 226.16601562 257.26074219 C226.17489807 257.95485703 226.18378052 258.64897186 226.19293213 259.36412048 C226.27343216 265.93935373 226.33415839 272.51444734 226.37326431 279.09006405 C226.39404589 282.46984499 226.42218716 285.84921516 226.46777344 289.22875977 C226.51652221 293.12364368 226.53903847 297.01795163 226.55664062 300.91308594 C226.57728577 302.11343979 226.59793091 303.31379364 226.61920166 304.55052185 C226.62140992 312.8866026 225.49214238 319.36340225 219.98242188 325.81933594 C219.23863281 326.439375 218.49484375 327.05941406 217.72851562 327.69824219 C216.98730469 328.33632813 216.24609375 328.97441406 215.48242188 329.63183594 C209.05027039 334.1549509 202.21801725 333.6667701 194.66625977 333.6862793 C192.50159442 333.69811599 190.33984084 333.74728366 188.17578125 333.79785156 C179.97047567 333.89451247 173.00428835 333.30032843 166.16601562 328.26074219 C161.96585513 324.07822017 160.11558931 320.27613937 158.60351562 314.57324219 C157.45231318 311.27434189 156.73602048 309.66761107 153.87304688 307.62402344 C150.36819922 306.15633955 146.84925548 305.14957534 143.16601562 304.26074219 C141.95921143 303.95644287 141.95921143 303.95644287 140.72802734 303.64599609 C114.80299873 297.26467287 87.76126924 294.84832083 61.16601562 293.26074219 C59.86414307 293.1731665 58.56227051 293.08559082 57.22094727 292.99536133 C41.48333583 292.01288437 25.72499367 292.07335493 9.96362305 292.07543945 C6.75034877 292.07552002 3.5372192 292.06867506 0.32397461 292.05493164 C-28.62059479 291.93328791 -57.56112771 292.6676213 -86.33398438 296.07324219 C-87.06040131 296.15655792 -87.78681824 296.23987366 -88.5352478 296.32571411 C-119.67749915 298.39512771 -119.67749915 298.39512771 -147.62695312 309.64746094 C-149.05124798 311.55113011 -149.54898354 313.15172539 -150.14648438 315.44824219 C-152.31918832 322.26565509 -155.69803402 327.41177175 -162.04101562 330.95996094 C-168.46245981 334.02815986 -174.8647304 333.9816245 -181.82080078 333.85766602 C-183.96324136 333.82317365 -186.10158027 333.83710105 -188.24414062 333.85644531 C-197.22382885 333.84888083 -203.3562738 333.16985459 -210.29492188 327.11230469 C-210.9265625 326.37753906 -211.55820313 325.64277344 -212.20898438 324.88574219 C-212.85609375 324.15613281 -213.50320312 323.42652344 -214.16992188 322.67480469 C-217.27778338 318.16621687 -218.08504534 313.74946023 -218.06103516 308.34716797 C-218.06088409 307.20643829 -218.06073303 306.06570862 -218.06057739 304.89041138 C-218.05025482 303.67457367 -218.03993225 302.45873596 -218.02929688 301.20605469 C-218.02646698 299.94936981 -218.02363708 298.69268494 -218.02072144 297.3979187 C-218.0114456 294.07373355 -217.99350819 290.74982794 -217.97131348 287.42572021 C-217.9507725 284.02700198 -217.94170216 280.62825474 -217.93164062 277.22949219 C-217.90961817 270.57316551 -217.8761687 263.91696998 -217.83398438 257.26074219 C-218.76385414 257.16571663 -218.76385414 257.16571663 -219.71250916 257.06877136 C-220.52466385 256.98283218 -221.33681854 256.89689301 -222.17358398 256.80834961 C-223.38189125 256.68238655 -223.38189125 256.68238655 -224.61460876 256.55387878 C-231.73093817 255.6139493 -238.79658937 251.25571702 -243.83398438 246.26074219 C-246.14233695 243.07204229 -248.08105842 239.7833418 -249.83398438 236.26074219 C-250.21039063 235.555625 -250.58679688 234.85050781 -250.97460938 234.12402344 C-256.61416826 215.3340386 -249.89060364 193.46230981 -241.32226562 176.71777344 C-229.25606001 154.38650121 -208.18008662 138.41931149 -184.04931641 131.07641602 C-180.53169748 130.18405726 -177.0622659 129.64619846 -173.46679688 129.15917969 C-172.22043457 128.98821777 -170.97407227 128.81725586 -169.68994141 128.64111328 C-168.27624268 128.45282959 -168.27624268 128.45282959 -166.83398438 128.26074219 C-166.84508743 127.15098022 -166.85619049 126.04121826 -166.86763 124.89782715 C-166.96913359 114.4225153 -167.04401106 103.94730367 -167.09304523 93.47161102 C-167.11910211 88.08633372 -167.15442911 82.70145448 -167.21118164 77.31640625 C-167.26564029 72.11627813 -167.29543431 66.9165321 -167.30837059 61.71614075 C-167.31758558 59.73543791 -167.33558052 57.7547552 -167.36263466 55.7742157 C-167.39910924 52.99257768 -167.40392206 50.21250401 -167.40161133 47.43066406 C-167.41958771 46.6178598 -167.43756409 45.80505554 -167.45608521 44.96762085 C-167.38919537 37.49095404 -164.14635291 32.41908121 -158.95898438 27.19824219 C-137.27973829 10.06838822 -103.50911077 7.25841623 -77.14648438 4.07324219 C-75.88626465 3.91839355 -74.62604492 3.76354492 -73.32763672 3.60400391 C-48.9380123 0.82826832 -24.52558183 -0.08102321 0 0 Z M-68.83398438 21.26074219 C-70.1241748 21.4105957 -71.41436523 21.56044922 -72.74365234 21.71484375 C-92.25124557 24.07287696 -111.96584203 27.15219563 -130.70898438 33.19824219 C-131.3917041 33.41464355 -132.07442383 33.63104492 -132.77783203 33.85400391 C-134.75637216 34.50862742 -134.75637216 34.50862742 -136.59835815 35.32371521 C-138.83398438 36.26074219 -138.83398438 36.26074219 -141.38464355 37.05949402 C-144.64801005 38.41353335 -146.49984632 39.5789239 -148.83398438 42.26074219 C-150.29838536 48.71234756 -149.99782575 55.07803293 -149.81054688 61.65917969 C-149.79188526 63.57870802 -149.77765553 65.49828413 -149.76766968 67.4178772 C-149.72956677 72.45962053 -149.6314145 77.49846231 -149.52062988 82.5390625 C-149.41815452 87.68677515 -149.37262342 92.83495885 -149.32226562 97.98339844 C-149.2151572 108.07732354 -149.03933288 118.16833718 -148.83398438 128.26074219 C-143.22398437 128.26074219 -137.61398438 128.26074219 -131.83398438 128.26074219 C-131.86016846 126.58641113 -131.88635254 124.91208008 -131.91333008 123.18701172 C-131.99436118 117.61920165 -132.05158988 112.05147692 -132.09304523 106.4832325 C-132.11900252 103.11120421 -132.15413943 99.73982113 -132.21118164 96.36816406 C-132.27219362 92.4806246 -132.30027877 88.59398749 -132.32226562 84.70605469 C-132.34807205 83.51086212 -132.37387848 82.31566956 -132.40046692 81.08425903 C-132.40308985 73.16363363 -130.80390162 68.04873064 -126.83398438 61.26074219 C-126.50398438 60.27074219 -126.17398438 59.28074219 -125.83398438 58.26074219 C-124.03307438 57.20397091 -124.03307438 57.20397091 -121.83398438 56.26074219 C-121.16018706 55.91372788 -120.48638975 55.56671358 -119.79217434 55.20918369 C-114.30589418 52.54721046 -109.86210878 51.67685303 -103.80102539 51.72729492 C-102.52104675 51.71437157 -102.52104675 51.71437157 -101.21520996 51.70118713 C-98.42245272 51.67866984 -95.63071066 51.68523966 -92.83789062 51.69433594 C-90.87930507 51.68909397 -88.92072205 51.6828154 -86.96214294 51.67555237 C-82.86778845 51.66517435 -78.77378207 51.66967212 -74.67944336 51.68432617 C-69.45304327 51.70150824 -64.22774322 51.6780119 -59.0014658 51.64283657 C-54.95974044 51.62079299 -50.91827548 51.6223209 -46.87650871 51.63060188 C-44.95053844 51.63141762 -43.02454833 51.62462698 -41.09863472 51.60983086 C-22.58415507 51.48937865 -22.58415507 51.48937865 -13.83398438 57.26074219 C-12.84398437 57.59074219 -11.85398438 57.92074219 -10.83398438 58.26074219 C-9.777771 60.04678345 -9.777771 60.04678345 -8.83398438 62.26074219 C-8.31097748 63.30674088 -8.31097748 63.30674088 -7.77740479 64.37387085 C-4.56564274 71.48096231 -4.30751548 77.76693154 -4.44335938 85.48730469 C-4.44901917 86.71613373 -4.45467896 87.94496277 -4.46051025 89.21102905 C-4.4827482 93.10301071 -4.53292358 96.99404278 -4.58398438 100.88574219 C-4.60406552 103.53807256 -4.62231344 106.19041749 -4.63867188 108.84277344 C-4.68257215 115.31579082 -4.75151425 121.78810597 -4.83398438 128.26074219 C1.10601562 128.26074219 7.04601562 128.26074219 13.16601562 128.26074219 C13.14506836 126.6167041 13.12412109 124.97266602 13.10253906 123.27880859 C13.02983962 117.14738766 12.98410655 111.01600444 12.94628906 104.88427734 C12.92624183 102.23642559 12.89899679 99.58861773 12.86425781 96.94091797 C12.81543819 93.12293631 12.79297682 89.30554283 12.77539062 85.48730469 C12.75474548 84.3139859 12.73410034 83.14066711 12.71282959 81.93179321 C12.71083228 74.52488885 13.85188353 68.88891065 17.16601562 62.26074219 C17.45684021 61.5507608 17.74766479 60.84077942 18.04730225 60.10928345 C19.45978531 57.7753226 20.7102656 57.39836197 23.16601562 56.26074219 C23.83962883 55.91354378 24.51324203 55.56634537 25.20726776 55.20862579 C30.70188022 52.54095744 35.14446841 51.68060814 41.21484375 51.74316406 C42.06976913 51.73615479 42.92469452 51.72914551 43.80552673 51.72192383 C46.60311343 51.70446413 49.39967046 51.71592339 52.19726562 51.72949219 C54.15824577 51.72679381 56.1192246 51.72290852 58.0802002 51.71789551 C62.17875986 51.71201674 66.27696949 51.72051103 70.37548828 51.73925781 C75.61083088 51.76204627 80.84535304 51.74891448 86.08066559 51.72496796 C90.12662866 51.71046608 94.17239945 51.71513606 98.21836853 51.72547913 C100.14794514 51.72813429 102.0775396 51.72491958 104.00709534 51.71556091 C106.71092517 51.70532265 109.41345378 51.72099696 112.1171875 51.74316406 C112.90290634 51.73506714 113.68862518 51.72697021 114.49815369 51.71862793 C120.45853465 51.80847909 124.90452702 53.54882909 130.16601562 56.26074219 C131.2508618 56.76231291 131.2508618 56.76231291 132.35762405 57.27401638 C134.71726491 58.56152433 135.14714157 59.81007101 136.16601562 62.26074219 C136.51468689 62.88448227 136.86335815 63.50822235 137.22259521 64.15086365 C140.70867619 70.91478805 140.68551601 77.11530079 140.55664062 84.60839844 C140.55098083 85.86083847 140.54532104 87.1132785 140.53948975 88.40367126 C140.5209972 91.70339259 140.48517976 95.00230479 140.44067383 98.30175781 C140.39945892 101.68056431 140.38142333 105.05949015 140.36132812 108.43847656 C140.31738641 115.04625085 140.24842194 121.65334019 140.16601562 128.26074219 C145.77601563 128.26074219 151.38601563 128.26074219 157.16601562 128.26074219 C157.39205472 117.15144244 157.57545792 106.04367231 157.68413734 94.93259239 C157.73630217 89.77303948 157.8070321 84.61514261 157.92041016 79.45654297 C158.02917175 74.47674976 158.08887715 69.49854753 158.11478806 64.51765823 C158.13324832 62.61884123 158.16930111 60.72011024 158.22331619 58.82197189 C158.92752435 48.64289889 158.92752435 48.64289889 155.0163269 39.79084778 C152.41485137 38.19014088 150.07330583 37.17117483 147.16601562 36.26074219 C145.807258 35.69124066 144.45003884 35.11802475 143.09570312 34.53808594 C141.74987585 34.07447541 140.3979242 33.62834089 139.04101562 33.19824219 C137.902854 32.83110107 137.902854 32.83110107 136.74169922 32.45654297 C117.45438777 26.48122791 97.17165587 23.5843647 77.16601562 21.26074219 C75.86164551 21.10831055 74.55727539 20.95587891 73.21337891 20.79882812 C26.77082337 15.57669206 -22.43065763 15.83794452 -68.83398438 21.26074219 Z M-112.83398438 71.26074219 C-114.77619859 74.14909116 -115.0922072 76.51344573 -115.12451172 79.94995117 C-115.13727142 80.87448593 -115.15003113 81.79902069 -115.16317749 82.75157166 C-115.16540314 83.74330887 -115.16762878 84.73504608 -115.16992188 85.75683594 C-115.17657867 86.78253189 -115.18323547 87.80822784 -115.19009399 88.86500549 C-115.2002125 91.03278817 -115.20491126 93.20060194 -115.20458984 95.3684082 C-115.2089638 98.68265105 -115.245295 101.99556296 -115.28320312 105.30957031 C-115.28907128 107.41698764 -115.29304068 109.52441128 -115.29492188 111.63183594 C-115.30929291 112.62154892 -115.32366394 113.6112619 -115.33847046 114.63096619 C-115.30957991 118.98660645 -115.25171862 121.5570411 -112.99267578 125.36254883 C-109.12832311 128.76057439 -105.19728406 128.41430457 -100.32080078 128.421875 C-99.17639275 128.42932236 -99.17639275 128.42932236 -98.00886536 128.43692017 C-95.48441669 128.45152765 -92.96003086 128.4583412 -90.43554688 128.46386719 C-88.68061318 128.46961953 -86.92567951 128.47537726 -85.17074585 128.48114014 C-81.49045519 128.49164591 -77.81018636 128.49749144 -74.12988281 128.50097656 C-69.41651798 128.5064623 -64.70344188 128.53049373 -59.99016762 128.55894852 C-56.36474772 128.57758107 -52.7393973 128.58278081 -49.11393356 128.58431244 C-47.3764119 128.58733779 -45.63889143 128.59536237 -43.90141678 128.60849762 C-41.46937388 128.62557225 -39.03803572 128.6236747 -36.60595703 128.6171875 C-35.53192879 128.63100967 -35.53192879 128.63100967 -34.436203 128.64511108 C-30.05903476 128.6085777 -27.30367743 127.96159771 -23.83398438 125.26074219 C-21.72682131 122.09999759 -21.57737314 121.30288184 -21.54345703 117.68505859 C-21.53069733 116.7604483 -21.51793762 115.83583801 -21.50479126 114.88320923 C-21.50256561 113.88631073 -21.50033997 112.88941223 -21.49804688 111.86230469 C-21.49139008 110.83519379 -21.48473328 109.80808289 -21.47787476 108.74984741 C-21.46774563 106.57608838 -21.46305782 104.40229823 -21.46337891 102.22851562 C-21.45901022 98.90540175 -21.42270478 95.58362061 -21.38476562 92.26074219 C-21.37889664 90.14876756 -21.37492779 88.03678663 -21.37304688 85.92480469 C-21.35867584 84.93195465 -21.34430481 83.93910461 -21.32949829 82.91616821 C-21.35861967 78.51045095 -21.39449304 75.97729679 -23.73779297 72.15673828 C-27.46396326 68.78643331 -30.63060038 69.11255295 -35.43310547 69.11547852 C-36.21701157 69.1121199 -37.00091766 69.10876129 -37.80857849 69.1053009 C-40.40820894 69.09577746 -43.00777506 69.09384703 -45.60742188 69.09277344 C-47.41102119 69.0895616 -49.21462024 69.08619758 -51.01821899 69.08268738 C-54.80284224 69.07669246 -58.58744265 69.07484783 -62.37207031 69.07543945 C-67.22337976 69.07554104 -72.07454275 69.06189355 -76.92581749 69.04466724 C-80.65242181 69.03355183 -84.37899069 69.03152011 -88.10560989 69.03204918 C-89.8941867 69.03086819 -91.6827644 69.02643976 -93.47132492 69.01871681 C-95.97301246 69.00892708 -98.47438163 69.01179101 -100.97607422 69.01782227 C-102.08590416 69.00939301 -102.08590416 69.00939301 -103.21815491 69.00079346 C-108.36324752 69.01437387 -108.36324752 69.01437387 -112.83398438 71.26074219 Z M31.16601562 73.26074219 C29.98520756 75.62235831 30.02081867 77.08838875 29.98901367 79.72290039 C29.97617844 80.64758621 29.9633432 81.57227203 29.95011902 82.52497864 C29.94273209 83.52703842 29.93534515 84.52909821 29.92773438 85.56152344 C29.91966263 86.59004929 29.91159088 87.61857513 29.90327454 88.67826843 C29.88942796 90.85800487 29.87870838 93.03776305 29.87084961 95.2175293 C29.85363873 98.54940946 29.80975728 101.88029705 29.765625 105.21191406 C29.75549807 107.32844322 29.74698197 109.44498081 29.74023438 111.56152344 C29.72272629 112.55751053 29.7052182 113.55349762 29.68717957 114.57966614 C29.70088095 118.95455742 29.74058739 121.54220728 32.00512695 125.36694336 C35.87386625 128.75749931 39.80318397 128.4143053 44.67919922 128.421875 C45.82360725 128.42932236 45.82360725 128.42932236 46.99113464 128.43692017 C49.51558331 128.45152765 52.03996914 128.4583412 54.56445312 128.46386719 C56.31938682 128.46961953 58.07432049 128.47537726 59.82925415 128.48114014 C63.50954481 128.49164591 67.18981364 128.49749144 70.87011719 128.50097656 C75.58348202 128.5064623 80.29655812 128.53049373 85.00983238 128.55894852 C88.63525228 128.57758107 92.2606027 128.58278081 95.88606644 128.58431244 C97.6235881 128.58733779 99.36110857 128.59536237 101.09858322 128.60849762 C103.53062612 128.62557225 105.96196428 128.6236747 108.39404297 128.6171875 C109.46807121 128.63100967 109.46807121 128.63100967 110.563797 128.64511108 C114.94096524 128.6085777 117.69632257 127.96159771 121.16601562 125.26074219 C123.28282921 122.08552182 123.41771952 121.30363449 123.42480469 117.66918945 C123.43426117 116.27743248 123.43426117 116.27743248 123.44390869 114.8575592 C123.43986023 113.85752365 123.43581177 112.8574881 123.43164062 111.82714844 C123.43355408 110.79766586 123.43546753 109.76818329 123.43743896 108.70750427 C123.43880041 106.52952836 123.43510679 104.35154432 123.42675781 102.17358398 C123.41606878 98.83982079 123.42664902 95.50659783 123.43945312 92.17285156 C123.43813131 90.057616 123.43556846 87.94238077 123.43164062 85.82714844 C123.43568909 84.82913712 123.43973755 83.83112579 123.44390869 82.8028717 C123.43760437 81.87188156 123.43130005 80.94089142 123.42480469 79.98168945 C123.4232135 79.16467056 123.42162231 78.34765167 123.41998291 77.50587463 C123.12953205 74.93821853 122.61135188 73.40438355 121.16601562 71.26074219 C117.64216292 68.60881086 113.5810727 68.96500553 109.35571289 68.97021484 C108.1818251 68.96013901 108.1818251 68.96013901 106.98422241 68.94985962 C104.40022412 68.93087975 101.81648551 68.92695563 99.23242188 68.92480469 C97.43407586 68.91837738 95.6357309 68.91164907 93.83738708 68.90463257 C90.0688942 68.8926603 86.30049299 68.88895176 82.53198242 68.89013672 C77.70530905 68.89034005 72.87922354 68.86302323 68.05268955 68.8285923 C64.33889571 68.80634671 60.62524395 68.80229843 56.9113903 68.80335617 C55.13199777 68.80099725 53.3526015 68.79215731 51.57327461 68.77669144 C49.0836691 68.75707583 46.59533932 68.76285107 44.10571289 68.77490234 C43.37256363 68.76366333 42.63941437 68.75242432 41.88404846 68.74084473 C37.03749046 68.80040425 34.56594936 69.81413359 31.16601562 73.26074219 Z M-192.27148438 154.07324219 C-192.93414307 154.41943604 -193.59680176 154.76562988 -194.27954102 155.12231445 C-199.5967104 157.97347465 -204.36428897 161.19028171 -208.83398438 165.26074219 C-209.96900391 166.27587891 -209.96900391 166.27587891 -211.12695312 167.31152344 C-224.53748768 179.95830896 -233.60158343 198.3054001 -234.22705078 216.81445312 C-234.24171387 217.55985352 -234.25637695 218.30525391 -234.27148438 219.07324219 C-234.30508057 220.13140137 -234.30508057 220.13140137 -234.33935547 221.2109375 C-234.31508756 226.62395769 -232.90594841 229.80000598 -229.83398438 234.26074219 C-224.00943493 238.87184383 -219.59334791 239.41028109 -212.36476421 239.39216995 C-211.6058546 239.39422259 -210.84694499 239.39627522 -210.06503811 239.39839005 C-207.50742849 239.40407032 -204.94987253 239.40260154 -202.39225769 239.40118408 C-200.54588312 239.40376712 -198.69950911 239.40678011 -196.85313588 239.41018748 C-191.76777971 239.41826779 -186.68243765 239.42004763 -181.59707582 239.42078495 C-176.11706625 239.42263369 -170.63706404 239.43018007 -165.15705872 239.43692017 C-153.16960557 239.45051088 -141.18215576 239.45652923 -129.19469619 239.46093082 C-121.7129654 239.46369174 -114.23123591 239.4679288 -106.749506 239.472435 C-86.04377292 239.48462814 -65.33804079 239.49496307 -44.63230419 239.49831009 C-43.29332599 239.49853172 -41.95434778 239.49875351 -40.61536958 239.49897544 C-39.27315131 239.49919608 -37.93093304 239.49941656 -36.58871478 239.49963689 C-33.89597587 239.50007944 -31.20323696 239.50052656 -28.51049805 239.50097656 C-27.50903404 239.50114065 -27.50903404 239.50114065 -26.48733845 239.50130805 C-4.83417305 239.50493948 16.81895889 239.52086309 38.47211147 239.54416693 C61.36251179 239.56875732 84.25289866 239.58247581 107.14331359 239.58367801 C119.62235863 239.58459566 132.10135985 239.59037062 144.58039284 239.60849762 C155.20481976 239.62387604 165.82918931 239.6290324 176.45362524 239.62075952 C181.87620198 239.61684514 187.29866312 239.61782105 192.72122574 239.63181686 C197.68371768 239.64450834 202.64600659 239.64340019 207.60849806 239.63122615 C209.40526293 239.6292609 211.20204195 239.63238558 212.9987869 239.64107051 C215.43919598 239.65212137 217.87888323 239.64470437 220.31927204 239.63267899 C221.36809345 239.64407178 221.36809345 239.64407178 222.43810317 239.65569472 C228.72634443 239.58870232 233.20415776 237.96101901 237.97851562 233.82324219 C243.24338901 227.65581908 242.76238478 221.23162774 242.34814453 213.44970703 C240.81338447 195.00378383 231.4500775 178.76673758 218.16601562 166.26074219 C217.38742187 165.5246875 216.60882813 164.78863281 215.80664062 164.03027344 C211.11482573 159.96036018 206.02274729 156.87611697 200.54101562 154.01074219 C199.95102783 153.69331055 199.36104004 153.37587891 198.75317383 153.04882812 C187.02887346 147.24541386 174.19996575 145.66288037 161.29003906 145.75280762 C159.86869548 145.74818319 158.44735671 145.74182006 157.02602768 145.73389864 C153.17079176 145.71739328 149.31595824 145.72536452 145.46072197 145.73784351 C141.28339966 145.74696985 137.10614205 145.73288706 132.92883301 145.72192383 C124.76542024 145.70421421 116.60215527 145.70794469 108.43873692 145.71957439 C101.79927427 145.72863836 95.15985281 145.72981995 88.52038574 145.72547913 C87.09848045 145.72455973 87.09848045 145.72455973 85.6478498 145.72362176 C83.72163803 145.72234275 81.79542628 145.72104589 79.86921453 145.71973139 C61.84207182 145.70834773 43.8150107 145.72140446 25.78788137 145.74293286 C10.34747904 145.76080181 -5.09280296 145.75769708 -20.53320312 145.73925781 C-38.49947462 145.71781188 -56.46567474 145.70944616 -74.43195724 145.72170687 C-76.35075632 145.72298095 -78.2695554 145.72423844 -80.18835449 145.72547913 C-81.60417859 145.72640478 -81.60417859 145.72640478 -83.0486052 145.72734913 C-89.67373775 145.73079088 -96.29882471 145.72499914 -102.9239502 145.71556091 C-111.00688496 145.70429808 -119.0896645 145.7074705 -127.17258167 145.72868389 C-131.29010361 145.73913699 -135.40736754 145.74341525 -139.52488708 145.73008728 C-143.30506228 145.71803706 -147.08474396 145.72492987 -150.86487532 145.74599749 C-152.85649292 145.75247733 -154.84814567 145.7396414 -156.83972549 145.72576857 C-169.05475805 145.83018322 -181.43445528 148.21280509 -192.27148438 154.07324219 Z M-199.83398438 257.26074219 C-199.92576496 264.87853047 -200.00542303 272.4944042 -200.05371094 280.11230469 C-200.07383813 282.70416765 -200.10114253 285.29598515 -200.13574219 287.88769531 C-200.18420939 291.61111667 -200.20694254 295.33393818 -200.22460938 299.05761719 C-200.24525452 300.21815613 -200.26589966 301.37869507 -200.28717041 302.57440186 C-200.28747253 303.65522034 -200.28777466 304.73603882 -200.28808594 305.84960938 C-200.29696838 306.80003113 -200.30585083 307.75045288 -200.31500244 308.72967529 C-199.68930576 312.02202598 -198.42557026 313.20426071 -195.83398438 315.26074219 C-193.20497708 315.85528964 -193.20497708 315.85528964 -190.33398438 315.75683594 C-189.28210938 315.75748047 -188.23023438 315.758125 -187.14648438 315.75878906 C-186.05335938 315.73880859 -184.96023437 315.71882813 -183.83398438 315.69824219 C-182.74085938 315.70533203 -181.64773437 315.71242188 -180.52148438 315.71972656 C-173.53879942 315.85768943 -173.53879942 315.85768943 -167.83398438 312.26074219 C-166.83276266 309.25707705 -166.71286427 307.28334625 -166.72045898 304.14672852 C-166.72053452 303.10587601 -166.72061005 302.0650235 -166.72068787 300.99263 C-166.72842979 299.309701 -166.72842979 299.309701 -166.73632812 297.59277344 C-166.73845055 295.8678492 -166.73845055 295.8678492 -166.74061584 294.108078 C-166.74622009 290.4297731 -166.75877334 286.75152874 -166.77148438 283.07324219 C-166.77649883 280.58170661 -166.78106183 278.09017007 -166.78515625 275.59863281 C-166.79534064 269.48596043 -166.81491537 263.37341919 -166.83398438 257.26074219 C-177.72398437 257.26074219 -188.61398438 257.26074219 -199.83398438 257.26074219 Z M-148.83398438 257.26074219 C-148.83398438 267.82074219 -148.83398438 278.38074219 -148.83398438 289.26074219 C-141.94715615 287.73952856 -141.94715615 287.73952856 -135.09179688 286.11230469 C-114.46922596 281.13527788 -93.70078064 278.34750379 -72.58398438 276.57324219 C-71.50851349 276.48197052 -71.50851349 276.48197052 -70.41131592 276.38885498 C-45.86285761 274.34074293 -21.32648206 274.05684869 3.29101562 274.07324219 C4.08695885 274.07336178 4.88290207 274.07348137 5.70296478 274.07360458 C29.57249279 274.07813991 53.36687485 274.24214737 77.16601562 276.26074219 C78.47860352 276.36789551 79.79119141 276.47504883 81.14355469 276.58544922 C104.12440649 278.49224615 126.97127899 281.20656779 149.13745117 287.75170898 C151.77861738 288.41446401 154.48001532 288.81307547 157.16601562 289.26074219 C157.16601562 278.70074219 157.16601562 268.14074219 157.16601562 257.26074219 C56.18601562 257.26074219 -44.79398438 257.26074219 -148.83398438 257.26074219 Z M175.16601562 257.26074219 C175.0971322 264.57514184 175.03739988 271.88841525 175.0012207 279.20288086 C174.98613802 281.69087539 174.96566909 284.17884336 174.93969727 286.66674805 C174.90329225 290.24371907 174.88628379 293.82033841 174.87304688 297.39746094 C174.85756302 298.50909103 174.84207916 299.62072113 174.8261261 300.76603699 C174.82589951 301.80673843 174.82567291 302.84743988 174.82543945 303.91967773 C174.81877762 304.83234909 174.81211578 305.74502045 174.80525208 306.68534851 C175.24467911 309.82229961 176.32637266 311.7041879 178.16601562 314.26074219 C182.27102441 316.31324658 187.52918506 315.53394053 192.04101562 315.57324219 C193.14316406 315.60224609 194.2453125 315.63125 195.38085938 315.66113281 C196.97220703 315.67370117 196.97220703 315.67370117 198.59570312 315.68652344 C199.56749512 315.70110596 200.53928711 315.71568848 201.54052734 315.73071289 C204.97747019 315.11548926 205.99110048 313.95425973 208.16601562 311.26074219 C208.74067037 308.68746022 208.74067037 308.68746022 208.62011719 305.84960938 C208.61981506 304.76879089 208.61951294 303.68797241 208.61920166 302.57440186 C208.59855652 301.41386292 208.57791138 300.25332397 208.55664062 299.05761719 C208.54815094 297.26822723 208.54815094 297.26822723 208.53948975 295.44268799 C208.51709489 291.63163162 208.46688992 287.82151452 208.41601562 284.01074219 C208.39595478 281.42742243 208.37770329 278.84408794 208.36132812 276.26074219 C208.32062127 269.92675567 208.24232958 263.59480053 208.16601562 257.26074219 C197.27601563 257.26074219 186.38601563 257.26074219 175.16601562 257.26074219 Z " fill="#000000" transform="translate(251.833984375,178.7392578125)"/>
<path d="M0 0 C6.9499553 6.61900505 11.34393581 14.9803252 15.9375 23.3125 C16.56978516 24.44365234 17.20207031 25.57480469 17.85351562 26.74023438 C22.48076869 35.06730608 22.48076869 35.06730608 23.625 38.5 C26.56119659 35.93166024 28.12656765 33.00436565 29.953125 29.58203125 C30.59478061 28.39763935 31.23671701 27.21339953 31.87890625 26.02929688 C32.87427622 24.17974244 33.86642661 22.32861309 34.85302734 20.47436523 C44.85036061 1.7387897 44.85036061 1.7387897 52.625 -1.5 C55.359375 -1.87109375 55.359375 -1.87109375 58.375 -1.9375 C59.35984375 -1.97746094 60.3446875 -2.01742188 61.359375 -2.05859375 C67.26646232 -1.04817092 71.03145955 1.29868226 74.5703125 6.18725586 C76.56661096 9.47240429 78.42652259 12.80347398 80.25 16.1875 C81.51236547 18.46260334 82.77537756 20.73734803 84.0390625 23.01171875 C84.9367334 24.64826416 84.9367334 24.64826416 85.85253906 26.31787109 C88.33651659 30.77739769 90.95896175 35.14744845 93.625 39.5 C97.04396951 35.28573062 100.31098526 30.96847163 103.5625 26.625 C104.07490234 25.94308594 104.58730469 25.26117187 105.11523438 24.55859375 C107.56365403 21.29196015 109.96222012 18.01246828 112.26953125 14.64453125 C115.7122458 10.04853587 119.24648231 8.0039145 124.9296875 7.15625 C129.87643933 6.95638124 133.469493 7.6373174 137.625 10.5 C141.28299671 14.13223617 144.43664133 17.33146929 144.75642776 22.71085072 C144.76088976 24.01133366 144.76088976 24.01133366 144.76544189 25.33808899 C144.77115204 26.33482635 144.77686218 27.33156372 144.78274536 28.35850525 C144.78442215 29.99729393 144.78442215 29.99729393 144.78613281 31.66918945 C144.79109772 32.82066467 144.79606262 33.97213989 144.80117798 35.1585083 C144.81581129 38.97677198 144.82260353 42.79499411 144.828125 46.61328125 C144.83242252 48.59324261 144.83672055 50.57320396 144.8410995 52.55316514 C144.85291018 58.07090897 144.86044769 63.58864274 144.8638947 69.10639793 C144.86837383 76.2366852 144.88591599 83.36678063 144.9148953 90.49700958 C144.93653057 96.01219648 144.94659998 101.52732949 144.94793582 107.04255837 C144.94898261 110.33479136 144.95631385 113.62680308 144.97275543 116.91900063 C144.98979731 120.59369083 144.98793989 124.26791334 144.98144531 127.94262695 C144.9906601 129.02908005 144.99987488 130.11553314 145.0093689 131.23490906 C144.9735859 137.69351404 144.47075756 142.4149401 139.90625 147.36328125 C139.3184375 147.84152344 138.730625 148.31976563 138.125 148.8125 C137.5371875 149.30363281 136.949375 149.79476562 136.34375 150.30078125 C132.2959819 153.12501945 127.89741522 152.64542738 123.18034363 152.64044189 C122.30813354 152.64341302 121.43592346 152.64638414 120.53728276 152.6494453 C117.6032147 152.65814399 114.66918738 152.65964153 111.73510742 152.66113281 C109.63605156 152.66576014 107.53699654 152.67078469 105.4379425 152.67617798 C99.72715593 152.68931183 94.01638113 152.69574881 88.30558181 152.70018864 C84.7394029 152.70311766 81.17322723 152.70722214 77.60704994 152.71169281 C66.45419332 152.72537009 55.30134407 152.73503572 44.14847964 152.7388947 C31.26497796 152.74337672 18.3815823 152.7609304 5.49811286 152.7898953 C-4.45440286 152.81149572 -14.40688871 152.8215981 -24.35942763 152.82293582 C-30.30645583 152.82398499 -36.25338439 152.82991659 -42.20038795 152.84775543 C-47.79408679 152.8642078 -53.38761078 152.86640536 -58.98132515 152.85761642 C-61.03482277 152.85684454 -63.08832968 152.8612086 -65.14180374 152.87107468 C-67.94454266 152.88375132 -70.74665834 152.87794061 -73.5493927 152.86749268 C-74.76910199 152.87957728 -74.76910199 152.87957728 -76.01345187 152.89190602 C-81.69609894 152.84234198 -85.92305815 151.76174929 -90.23828125 147.78125 C-90.71652344 147.1934375 -91.19476563 146.605625 -91.6875 146 C-92.17863281 145.4121875 -92.66976562 144.824375 -93.17578125 144.21875 C-95.35369237 141.09731387 -95.50280727 138.34436965 -95.51544189 134.66191101 C-95.52115204 133.66517365 -95.52686218 132.66843628 -95.53274536 131.64149475 C-95.53386322 130.54896896 -95.53498108 129.45644318 -95.53613281 128.33081055 C-95.54109772 127.17933533 -95.54606262 126.02786011 -95.55117798 124.8414917 C-95.56581129 121.02322802 -95.57260353 117.20500589 -95.578125 113.38671875 C-95.58242252 111.40675739 -95.58672055 109.42679604 -95.5910995 107.44683486 C-95.60291018 101.92909103 -95.61044769 96.41135726 -95.6138947 90.89360207 C-95.61837383 83.7633148 -95.63591599 76.63321937 -95.6648953 69.50299042 C-95.68653057 63.98780352 -95.69659998 58.47267051 -95.69793582 52.95744163 C-95.69898261 49.66520864 -95.70631385 46.37319692 -95.72275543 43.08099937 C-95.73979731 39.40630917 -95.73793989 35.73208666 -95.73144531 32.05737305 C-95.7406601 30.97091995 -95.74987488 29.88446686 -95.7593689 28.76509094 C-95.7235859 22.30648596 -95.22075756 17.5850599 -90.65625 12.63671875 C-90.0684375 12.15847656 -89.480625 11.68023437 -88.875 11.1875 C-88.2871875 10.69636719 -87.699375 10.20523437 -87.09375 9.69921875 C-84.24867465 7.71413209 -81.56831025 7.30119096 -78.1875 7.1875 C-77.47207031 7.15011719 -76.75664062 7.11273438 -76.01953125 7.07421875 C-69.80047008 8.07551516 -65.61443094 10.79020382 -61.7421875 15.73046875 C-60.56104758 17.37064857 -59.3972051 19.02340811 -58.25 20.6875 C-57.66863281 21.50025391 -57.08726562 22.31300781 -56.48828125 23.15039062 C-53.07813527 27.9451932 -49.81804788 32.82647559 -46.64111328 37.77856445 C-45.47274098 39.64094327 -45.47274098 39.64094327 -43.375 40.5 C-43.10856689 39.62456543 -42.84213379 38.74913086 -42.56762695 37.84716797 C-41.4118242 34.60334898 -40.03852923 31.90617585 -38.29296875 28.9453125 C-37.69033203 27.91792969 -37.08769531 26.89054687 -36.46679688 25.83203125 C-35.83837891 24.77371094 -35.20996094 23.71539063 -34.5625 22.625 C-33.94568359 21.57441406 -33.32886719 20.52382813 -32.69335938 19.44140625 C-30.93357842 16.45295782 -29.15828395 13.47447101 -27.375 10.5 C-26.89442139 9.69079102 -26.41384277 8.88158203 -25.91870117 8.04785156 C-25.48920166 7.33854492 -25.05970215 6.62923828 -24.6171875 5.8984375 C-24.25351074 5.29435059 -23.88983398 4.69026367 -23.51513672 4.06787109 C-18.1833881 -3.26413954 -7.65680338 -3.40302373 0 0 Z M-10.375 17.5 C-10.69549316 18.07105469 -11.01598633 18.64210938 -11.34619141 19.23046875 C-14.07740923 24.0919785 -16.82087772 28.94616995 -19.578125 33.79296875 C-22.12674109 38.27544943 -24.63067665 42.77930706 -27.109375 47.30078125 C-28.32226313 49.47171942 -29.53578605 51.64230308 -30.75 53.8125 C-31.30768066 54.84955078 -31.86536133 55.88660156 -32.43994141 56.95507812 C-36.94235016 64.91009045 -36.94235016 64.91009045 -40.9765625 66.29296875 C-44.64778754 66.51661809 -46.27022462 66.44048461 -49.375 64.5 C-51.59375 62.12890625 -51.59375 62.12890625 -53.875 59.0625 C-54.29225342 58.50626953 -54.70950684 57.95003906 -55.1394043 57.37695312 C-59.56312801 51.4045637 -63.71389917 45.23074335 -67.8203125 39.03735352 C-68.33980469 38.26190186 -68.85929687 37.4864502 -69.39453125 36.6875 C-69.84932861 36.00042969 -70.30412598 35.31335938 -70.77270508 34.60546875 C-72.73067222 32.03263489 -75.08883406 29.78616594 -77.375 27.5 C-77.375 62.81 -77.375 98.12 -77.375 134.5 C-10.055 134.5 57.265 134.5 126.625 134.5 C126.625 99.19 126.625 63.88 126.625 27.5 C122.21639147 31.89475574 122.21639147 31.89475574 118.64453125 36.6875 C118.1252002 37.46295166 117.60586914 38.23840332 117.07080078 39.03735352 C116.53181152 39.85002686 115.99282227 40.6627002 115.4375 41.5 C107.05940912 53.87202031 107.05940912 53.87202031 103.25 59.0625 C102.15558594 60.58037109 102.15558594 60.58037109 101.0390625 62.12890625 C98.00452362 65.1094323 95.80880727 65.86454369 91.625 66.5 C88.20035746 65.65824833 86.89025105 64.8555811 84.76318359 62.00415039 C84.18906738 60.96250732 83.61495117 59.92086426 83.0234375 58.84765625 C82.7048175 58.27967819 82.38619751 57.71170013 82.05792236 57.12651062 C81.02519117 55.27895321 80.01297761 53.42094794 79 51.5625 C78.29248241 50.29173459 77.58332533 49.02188064 76.87255859 47.75292969 C75.45064518 45.21085355 74.03551015 42.66522361 72.62695312 40.11572266 C69.87460545 35.13757911 67.07438263 30.1875863 64.25 25.25 C63.80446777 24.45343994 63.35893555 23.65687988 62.89990234 22.83618164 C61.86503683 21.02383815 60.75355676 19.25553274 59.625 17.5 C58.965 17.5 58.305 17.5 57.625 17.5 C57.23344727 18.21317383 56.84189453 18.92634766 56.43847656 19.66113281 C49.70826733 31.89966274 42.9664196 44.12732721 35.8125 56.125 C35.31588867 56.96450195 34.81927734 57.80400391 34.30761719 58.66894531 C33.8490332 59.43045898 33.39044922 60.19197266 32.91796875 60.9765625 C32.5211792 61.63736816 32.12438965 62.29817383 31.71557617 62.97900391 C30.625 64.5 30.625 64.5 28.625 65.5 C22.87840136 65.96343537 22.87840136 65.96343537 20.625 65.5 C17.26604321 62.58420006 15.2246378 59.40296344 13.05078125 55.546875 C12.56239021 54.68684875 12.56239021 54.68684875 12.06413269 53.80944824 C11.01569037 51.95974247 9.9765107 50.10501714 8.9375 48.25 C8.2206236 46.98112225 7.50317386 45.71256826 6.78515625 44.44433594 C4.72434237 40.80037445 2.6744465 37.15036617 0.625 33.5 C-0.39142848 31.69763539 -1.40828649 29.89551287 -2.42578125 28.09375 C-4.41601952 24.5664773 -6.39881976 21.03516688 -8.375 17.5 C-9.035 17.5 -9.695 17.5 -10.375 17.5 Z " fill="#000000" transform="translate(231.375,1.5)"/>
<path d="M0 0 C2.24491338 2.41613558 3.04496169 4.72526015 3.6328125 7.92578125 C2.94051889 11.54109233 1.61440217 13.24436541 -0.9296875 15.86328125 C-3.70363305 17.25025402 -6.34996347 17.31759596 -9.4296875 17.67578125 C-21.67675672 19.40213013 -31.41252569 23.88742855 -39.2421875 33.73828125 C-43.55165982 39.91677886 -46.04515375 46.72309594 -48.12109375 53.91796875 C-49.05016392 56.15312307 -50.08147749 57.3176749 -51.9296875 58.86328125 C-55.42573484 60.22285521 -56.97179049 59.85043627 -60.6171875 58.73828125 C-64.37686349 56.61016276 -64.80099967 55.88350441 -65.9296875 51.86328125 C-65.527643 36.89303614 -56.71782031 23.21863674 -46.3046875 13.11328125 C-36.25073628 4.50882607 -13.17199952 -7.75921429 0 0 Z " fill="#000000" transform="translate(99.9296875,342.13671875)"/>
<path d="M0 0 C2.875 1.5625 2.875 1.5625 5 4 C6.14888518 7.94929279 6.43129396 10.02958859 4.75 13.8125 C3 16 3 16 0 18 C-3.90831419 18.33262248 -6.71326332 18.23028561 -10 16 C-12.4596 12.3106 -12.7996897 9.28167192 -12 5 C-8.62505893 0.09099481 -5.84787119 -0.93983644 0 0 Z " fill="#000000" transform="translate(336,85)"/>
<path d="M0 0 C2.93052231 1.99524923 4.64521503 3.42836485 5.4453125 6.97265625 C5.64529931 10.53908774 5.30896766 12.59834205 3.125 15.4375 C-0.41699942 18.04191134 -2.58936125 18.43241556 -7 18 C-9.89839328 16.45419025 -11.54079398 15.27883538 -12.671875 12.12890625 C-13.41273528 8.20975539 -13.33323283 6.540067 -11.1875 3.0625 C-7.5291086 -0.38684047 -4.99330376 -0.5077936 0 0 Z " fill="#000000" transform="translate(183,85)"/>
<path d="M0 0 C2.43119623 1.87015094 3.64069173 3.28138345 5 6 C5.43023798 9.87214182 5.31669086 11.52496371 3.125 14.8125 C0.61855093 17.39266816 -0.25461673 17.91717964 -3.8125 18.3125 C-7.7307645 17.92835642 -9.21293267 16.70743683 -12 14 C-13.3899408 11.2201184 -13.18488204 9.0813674 -13 6 C-10.8003658 -0.0912947 -5.98910018 -1.01428309 0 0 Z " fill="#000000" transform="translate(132,341)"/>
<path d="M0 0 C3.43250143 1.9401095 4.70166193 3.14227804 6 6.875 C6 10.74826713 5.12269877 12.7793536 3 16 C0.35555365 18.17222379 -1.02987018 17.99893321 -4.5 17.875 C-8.405988 16.898503 -9.83194553 16.38216497 -12 13 C-12.7099846 8.0301078 -12.79117716 6.15080314 -9.9375 2 C-6.23727467 -0.51930235 -4.3968344 -0.7066341 0 0 Z " fill="#000000" transform="translate(285,85)"/>
<path d="M0 0 C2.93052231 1.99524923 4.64521503 3.42836485 5.4453125 6.97265625 C5.63409202 10.33922437 5.25759307 12.59815481 3.4375 15.4375 C0.19100111 17.51858903 -2.15247539 17.93249957 -6 18 C-9.24798106 16.70080758 -10.58941682 15.69052626 -12.375 12.6875 C-13.15819434 9.31976433 -13.05358898 7.30124547 -12 4 C-8.34963177 -0.07982332 -5.37276648 -0.86348033 0 0 Z " fill="#000000" transform="translate(234,85)"/>
</svg>
