<?xml version="1.0" encoding="UTF-8"?>
<svg version="1.1" xmlns="http://www.w3.org/2000/svg" width="512" height="512">
<path d="M0 0 C2.07065193 -0.00570839 4.14130072 -0.01267446 6.21194458 -0.02079773 C11.81533086 -0.03869287 17.41856022 -0.03756751 23.02196646 -0.03185534 C27.70867759 -0.02875805 32.39535883 -0.034862 37.0820657 -0.04089409 C48.14327759 -0.05492592 59.20441223 -0.05338934 70.265625 -0.04199219 C81.65710238 -0.03051373 93.04834425 -0.04458526 104.43979061 -0.07138866 C114.23884161 -0.09357757 124.03781887 -0.1001758 133.8368932 -0.09431225 C139.68118438 -0.09094896 145.52532464 -0.09331605 151.36959457 -0.11056328 C156.86744139 -0.12608101 162.36494057 -0.12202321 167.8627739 -0.10325813 C169.87343786 -0.09958555 171.88412787 -0.10264163 173.89476776 -0.11314392 C194.31862058 -0.21163034 210.54585124 4.84284369 225.59423828 19.40405273 C233.16255025 28.68616561 237.93222508 38.99198144 242.65673828 49.90405273 C247.8217504 61.76896864 253.40550727 72.62095622 260.59423828 83.40405273 C260.62001953 82.36764648 260.64580078 81.33124023 260.67236328 80.26342773 C260.72865779 78.89359472 260.78600483 77.52380469 260.84423828 76.15405273 C260.85841797 75.47213867 260.87259766 74.79022461 260.88720703 74.08764648 C261.03435114 71.05647787 261.34625323 68.80270776 262.96044922 66.20776367 C267.15178242 63.33739199 271.38002673 63.83326999 276.34423828 63.87280273 C277.39450195 63.86897583 278.44476563 63.86514893 279.52685547 63.86120605 C281.74594075 63.85848578 283.96505803 63.86585497 286.18408203 63.88256836 C289.58194424 63.90397528 292.97769189 63.88276948 296.37548828 63.85717773 C298.53174295 63.85982099 300.68799631 63.86494592 302.84423828 63.87280273 C303.86098633 63.86470581 304.87773437 63.85660889 305.92529297 63.8482666 C312.81925235 63.939979 312.81925235 63.939979 316.23291016 65.98413086 C318.10940687 69.31982588 318.11217034 71.83370665 318.12548828 75.65405273 C318.12931519 76.34917969 318.13314209 77.04430664 318.13708496 77.76049805 C318.13980008 79.22633314 318.13246663 80.69221701 318.11572266 82.15795898 C318.09430247 84.39734248 318.11553271 86.6335186 318.14111328 88.87280273 C318.13846993 90.29989312 318.13334478 91.72698152 318.12548828 93.15405273 C318.12097656 94.44827148 318.11646484 95.74249023 318.11181641 97.07592773 C317.59423828 100.40405273 317.59423828 100.40405273 315.88891602 102.7644043 C313.3231636 104.59774755 311.42753152 105.2510314 308.34814453 105.88842773 C307.34589844 106.10112305 306.34365234 106.31381836 305.31103516 106.53295898 C304.27011719 106.73791992 303.22919922 106.94288086 302.15673828 107.15405273 C301.1196875 107.37448242 300.08263672 107.59491211 299.01416016 107.82202148 C294.45835379 108.76419852 290.2619234 109.53255495 285.59423828 109.40405273 C289.71462987 113.70253591 294.16902178 117.45751478 298.78173828 121.21655273 C299.53841797 121.83820313 300.29509766 122.45985352 301.07470703 123.1003418 C305.03591383 126.34764959 309.03576926 129.52871202 313.09423828 132.65405273 C327.78883903 144.45954554 338.4909713 162.69399558 341.59423828 181.40405273 C341.89592393 186.37509467 341.8887291 191.34364058 341.88476562 196.32202148 C341.89075762 197.82744681 341.8975647 199.33286907 341.90512085 200.83828735 C341.9227149 204.9084855 341.92747329 208.97859944 341.92875242 213.04883194 C341.93017776 215.59509396 341.93445449 218.14133481 341.93974686 220.68759155 C341.95822182 229.579746 341.96642022 238.47184066 341.96484375 247.36401367 C341.96364145 255.63929659 341.98476766 263.91431908 342.01633108 272.18953609 C342.04251129 279.30824727 342.05321039 286.42687343 342.05193293 293.54563236 C342.05142402 297.79136902 342.05706829 302.03687377 342.07828903 306.28256226 C342.09770227 310.27509227 342.09777513 314.26716973 342.08325577 318.25971603 C342.08117072 319.72057128 342.08585044 321.1814551 342.09797668 322.64226151 C342.1693564 331.8402524 341.89619321 338.49486361 335.62939453 345.64624023 C334.97841797 346.18506836 334.32744141 346.72389648 333.65673828 347.27905273 C333.00833984 347.83334961 332.35994141 348.38764648 331.69189453 348.95874023 C326.96439379 352.21604987 322.61853206 352.70187596 316.9934082 352.69458008 C316.24474991 352.7012973 315.49609161 352.70801453 314.7247467 352.7149353 C312.25799865 352.73388041 309.79152324 352.73783786 307.32470703 352.73999023 C305.60223785 352.74642113 303.87976976 352.75314971 302.15730286 352.76016235 C298.5486091 352.77212678 294.94001101 352.77584409 291.33129883 352.7746582 C286.72129123 352.77445519 282.1119013 352.80174296 277.50203991 352.83620262 C273.94425169 352.85851038 270.38661113 352.86249454 266.82876015 352.86143875 C265.12999661 352.86378943 263.43122867 352.87258276 261.73253441 352.88810349 C243.87992476 353.03593479 243.87992476 353.03593479 236.35205078 346.43920898 C235.81322266 345.78823242 235.27439453 345.13725586 234.71923828 344.46655273 C234.16494141 343.8181543 233.61064453 343.16975586 233.03955078 342.50170898 C226.50574833 333.01886597 229.59423828 325.25994655 229.59423828 312.40405273 C134.55423828 312.40405273 39.51423828 312.40405273 -58.40576172 312.40405273 C-58.40576172 319.99405273 -58.40576172 327.58405273 -58.40576172 335.40405273 C-62.93109956 344.45472841 -62.93109956 344.45472841 -66.34326172 347.27905273 C-66.99166016 347.83334961 -67.64005859 348.38764648 -68.30810547 348.95874023 C-73.03560621 352.21604987 -77.38146794 352.70187596 -83.0065918 352.69458008 C-83.75525009 352.7012973 -84.50390839 352.70801453 -85.2752533 352.7149353 C-87.74200135 352.73388041 -90.20847676 352.73783786 -92.67529297 352.73999023 C-94.39776215 352.74642113 -96.12023024 352.75314971 -97.84269714 352.76016235 C-101.4513909 352.77212678 -105.05998899 352.77584409 -108.66870117 352.7746582 C-113.27870877 352.77445519 -117.8880987 352.80174296 -122.49796009 352.83620262 C-126.05574831 352.85851038 -129.61338887 352.86249454 -133.17123985 352.86143875 C-134.87000339 352.86378943 -136.56877133 352.87258276 -138.26746559 352.88810349 C-156.12007524 353.03593479 -156.12007524 353.03593479 -163.64794922 346.43920898 C-164.18677734 345.78823242 -164.72560547 345.13725586 -165.28076172 344.46655273 C-165.83505859 343.8181543 -166.38935547 343.16975586 -166.96044922 342.50170898 C-169.97777935 338.12250281 -170.65781549 334.34091945 -170.67991638 329.07073975 C-170.68989151 327.79265442 -170.69986664 326.51456909 -170.71014404 325.19775391 C-170.71103981 323.7883302 -170.7117034 322.37890634 -170.7121582 320.96948242 C-170.7197836 319.47910142 -170.72821175 317.98872435 -170.73738098 316.49835205 C-170.75931263 312.45217356 -170.76812465 308.40607066 -170.77320743 304.35983944 C-170.77685669 301.82508138 -170.78310012 299.29034291 -170.79020882 296.75559235 C-170.81471176 287.89198443 -170.82775422 279.02843497 -170.83129883 270.16479492 C-170.83492086 261.93911809 -170.8647178 253.71381744 -170.90670341 245.48825526 C-170.94158533 238.40258428 -170.95685045 231.31703667 -170.95754486 224.23128057 C-170.95833249 220.01029961 -170.96682908 215.78970079 -170.99554253 211.56880951 C-171.16895577 184.37627877 -168.96795655 160.26571113 -149.40576172 139.40405273 C-140.8158592 130.85511954 -131.16588083 123.56430781 -121.55029297 116.22436523 C-120.73947266 115.60303711 -119.92865234 114.98170898 -119.09326172 114.34155273 C-118.39587891 113.81432617 -117.69849609 113.28709961 -116.97998047 112.74389648 C-115.27604067 111.47066556 -115.27604067 111.47066556 -114.40576172 109.40405273 C-115.68451172 109.32155273 -116.96326172 109.23905273 -118.28076172 109.15405273 C-123.51824651 108.61976908 -128.63208763 107.66578866 -133.78076172 106.59155273 C-134.56563965 106.43847656 -135.35051758 106.28540039 -136.15917969 106.12768555 C-136.90828613 105.96494141 -137.65739258 105.80219727 -138.42919922 105.63452148 C-139.09870605 105.49425537 -139.76821289 105.35398926 -140.45800781 105.20947266 C-143.24894014 104.0553882 -144.58621497 102.82671327 -146.40576172 100.40405273 C-146.92333984 97.07592773 -146.92333984 97.07592773 -146.93701172 93.15405273 C-146.94083862 92.45892578 -146.94466553 91.76379883 -146.9486084 91.04760742 C-146.95132352 89.58177233 -146.94399007 88.11588846 -146.92724609 86.65014648 C-146.9058259 84.41076298 -146.92705614 82.17458687 -146.95263672 79.93530273 C-146.94999337 78.50821234 -146.94486822 77.08112395 -146.93701172 75.65405273 C-146.9325 74.35983398 -146.92798828 73.06561523 -146.92333984 71.73217773 C-146.40576172 68.40405273 -146.40576172 68.40405273 -145.04443359 65.98413086 C-140.79009157 63.43656409 -136.52155791 63.83405372 -131.65576172 63.87280273 C-130.60549805 63.86897583 -129.55523437 63.86514893 -128.47314453 63.86120605 C-126.25405925 63.85848578 -124.03494197 63.86585497 -121.81591797 63.88256836 C-118.41805576 63.90397528 -115.02230811 63.88276948 -111.62451172 63.85717773 C-109.46825705 63.85982099 -107.31200369 63.86494592 -105.15576172 63.87280273 C-104.13901367 63.86470581 -103.12226562 63.85660889 -102.07470703 63.8482666 C-95.07274447 63.9414158 -95.07274447 63.9414158 -91.78564453 66.22143555 C-88.79177516 70.95696141 -89.01145216 76.95283874 -88.40576172 82.40405273 C-82.0280339 72.22671016 -76.56989359 61.89096072 -71.59326172 50.96655273 C-70.94628936 49.56057887 -70.29850432 48.15497869 -69.64990234 46.74975586 C-69.3349028 46.06718719 -69.01990326 45.38461853 -68.69535828 44.68136597 C-68.3870961 44.01364166 -68.07883392 43.34591736 -67.76123047 42.65795898 C-67.46106522 42.00723419 -67.16089996 41.3565094 -66.85163879 40.68606567 C-58.90165221 23.46938687 -48.5069884 10.60890105 -30.40576172 3.40405273 C-29.8311212 3.15655242 -29.25648067 2.9090521 -28.6644268 2.65405178 C-19.44471687 -0.73923923 -9.67509061 -0.0240824 0 0 Z M-41.05419922 30.66967773 C-48.43778559 39.25524328 -52.59239412 50.03657975 -57.15576172 60.27905273 C-58.16352347 62.52516989 -59.17301509 64.77050234 -60.18292236 67.01565552 C-60.80563146 68.40169248 -61.42676964 69.78843664 -62.04608154 71.17599487 C-63.43821464 74.29004513 -64.87959201 77.35171332 -66.40576172 80.40405273 C33.91423828 80.40405273 134.23423828 80.40405273 237.59423828 80.40405273 C234.62423828 74.13405273 231.65423828 67.86405273 228.59423828 61.40405273 C225.62548828 54.65014648 225.62548828 54.65014648 224.35009766 51.70654297 C217.48847725 36.05313795 209.82223274 25.25618674 193.40673828 18.52905273 C186.78844445 16.57611357 180.28166177 16.25549837 173.41716003 16.27033997 C172.63404381 16.26807441 171.85092758 16.26580885 171.04408056 16.26347464 C168.44123693 16.2571856 165.83844605 16.25796071 163.2355957 16.25878906 C161.36066115 16.2557944 159.48572721 16.25239116 157.61079407 16.24861145 C152.53217548 16.23979878 147.45357376 16.23743449 142.37494826 16.23679566 C139.19816333 16.23608364 136.02138265 16.23394643 132.84459877 16.23129845 C121.75096999 16.22205424 110.65735321 16.21796242 99.5637207 16.21875 C89.24024216 16.21935062 78.9168159 16.20879942 68.59335059 16.19300634 C59.71495672 16.17991035 50.83657989 16.17456696 41.95817643 16.17520541 C36.66222024 16.17545978 31.36631053 16.17264223 26.070364 16.16202736 C21.08726451 16.15231164 16.10425565 16.15229095 11.12115288 16.15954399 C9.29873776 16.1605855 7.4763169 16.15825286 5.65391159 16.15218353 C-12.70081004 16.0950438 -26.75809169 17.99477828 -41.05419922 30.66967773 Z M-130.40576172 80.40405273 C-130.40576172 83.37405273 -130.40576172 86.34405273 -130.40576172 89.40405273 C-118.52576172 91.87905273 -118.52576172 91.87905273 -106.40576172 94.40405273 C-106.40576172 89.78405273 -106.40576172 85.16405273 -106.40576172 80.40405273 C-114.32576172 80.40405273 -122.24576172 80.40405273 -130.40576172 80.40405273 Z M277.59423828 80.40405273 C277.59423828 85.02405273 277.59423828 89.64405273 277.59423828 94.40405273 C285.51423828 92.75405273 293.43423828 91.10405273 301.59423828 89.40405273 C301.59423828 86.43405273 301.59423828 83.46405273 301.59423828 80.40405273 C293.67423828 80.40405273 285.75423828 80.40405273 277.59423828 80.40405273 Z M-85.74153113 104.49976885 C-86.65996327 106.11767102 -87.53439915 107.76032153 -88.40576172 109.40405273 C-90.46564865 111.77457619 -90.46564865 111.77457619 -92.26123047 113.52514648 C-93.09533447 114.36505127 -93.09533447 114.36505127 -93.94628906 115.22192383 C-94.48979004 115.75640137 -95.03329102 116.29087891 -95.59326172 116.84155273 C-96.18059082 117.42501465 -96.76791992 118.00847656 -97.37304688 118.60961914 C-101.46276763 122.61815437 -105.66148355 126.17794358 -110.40576172 129.40405273 C-108.98349139 132.24859338 -107.31738158 132.40728452 -104.37036133 133.53955078 C-103.29511703 133.95726242 -102.21987274 134.37497406 -101.11204529 134.80534363 C-99.35284508 135.47875542 -99.35284508 135.47875542 -97.55810547 136.16577148 C-95.72347688 136.88238877 -93.888856 137.59902652 -92.05468845 138.31682301 C-87.52603731 140.08707183 -82.99212948 141.84353827 -78.45288086 143.58642578 C-75.91189296 144.56274003 -73.37472942 145.54803183 -70.84095764 146.54292297 C-68.45673633 147.47849619 -66.06728354 148.40087818 -63.67210388 149.30802917 C-62.57479446 149.74150162 -61.47748505 150.17497406 -60.34692383 150.62158203 C-59.39063583 150.99083298 -58.43434784 151.36008392 -57.44908142 151.74052429 C-51.61600647 154.92897869 -47.11190963 159.43112514 -42.90783691 164.53367615 C-37.09537831 171.47125678 -32.01099932 177.07460183 -22.66149139 178.08722019 C-17.79871522 178.28815756 -12.98462488 178.14244592 -8.12451172 177.93920898 C-6.01428167 177.9139596 -3.90393954 177.89689625 -1.7935791 177.88755798 C3.71659905 177.84614857 9.22055707 177.71532835 14.72851562 177.55822754 C23.56723169 177.31748056 32.40737683 177.19748143 41.24876404 177.11074638 C44.32163923 177.06501046 47.39006134 176.97004852 50.46154785 176.86891174 C65.82799718 176.51528908 65.82799718 176.51528908 70.72119141 180.73217773 C72.27893066 182.58300781 72.27893066 182.58300781 73.59423828 184.40405273 C74.64043717 185.45055493 75.70069431 186.48342981 76.78173828 187.49389648 C77.72189066 188.44048826 78.65945738 189.38965613 79.59423828 190.34155273 C80.08279297 190.83461914 80.57134766 191.32768555 81.07470703 191.83569336 C82.25027353 193.02278502 83.42262654 194.21305771 84.59423828 195.40405273 C87.72829496 194.01808407 89.8125801 192.41334117 92.19580078 189.96264648 C92.85064453 189.2968457 93.50548828 188.63104492 94.18017578 187.94506836 C94.85306641 187.2509082 95.52595703 186.55674805 96.21923828 185.84155273 C97.56335698 184.46306737 98.90960981 183.08665873 100.25830078 181.71264648 C100.85078613 181.10219482 101.44327148 180.49174316 102.05371094 179.86279297 C104.65469596 177.39989511 105.58882848 177.40406747 109.33123779 177.39387512 C110.98251957 177.44053658 112.6336619 177.49228382 114.28466797 177.54785156 C116.15416205 177.60061752 118.02369161 177.65213711 119.89324951 177.70259094 C120.88946068 177.72997156 121.88567184 177.75735218 122.91207123 177.78556252 C129.33006584 177.94171258 135.74973761 178.00214525 142.16917038 178.0706377 C147.79220159 178.13583478 153.4086975 178.24014285 159.02880859 178.43603516 C186.53200052 180.65782886 186.53200052 180.65782886 210.64255714 170.20362663 C214.74388594 166.11077754 218.20500802 161.49359224 221.625 156.8274231 C225.85658699 151.61997685 231.4357193 149.70576775 237.71923828 147.71655273 C238.9099292 147.28052734 240.10062012 146.84450195 241.32739258 146.39526367 C243.80209275 145.48994492 246.28524769 144.60739908 248.77636719 143.74829102 C252.78555641 142.35804002 256.72775183 140.81640776 260.66845703 139.24389648 C261.64890991 138.85268364 261.64890991 138.85268364 262.64916992 138.4535675 C263.93869043 137.93837065 265.2280608 137.42279782 266.51727295 136.90682983 C271.19758745 135.04215758 275.89779894 133.22763834 280.59423828 131.40405273 C280.59423828 130.41405273 280.59423828 129.42405273 280.59423828 128.40405273 C278.61170739 126.51193221 278.61170739 126.51193221 275.96923828 124.59155273 C271.14761751 120.77287892 266.69932089 116.74680632 262.34423828 112.40405273 C261.49611572 111.56910278 261.49611572 111.56910278 260.63085938 110.71728516 C255.98314318 106.03912541 255.98314318 106.03912541 254.19701743 103.12242353 C251.88210835 99.44055511 250.09323422 96.86022478 245.82771349 95.56214833 C242.34160552 95.22866871 238.95222967 95.18531162 235.45025635 95.23428345 C234.10732696 95.22103847 232.76443141 95.20388866 231.42159629 95.18318594 C227.74112077 95.13792483 224.06263349 95.14866646 220.3820138 95.16889453 C216.40894806 95.18103478 212.43634312 95.14146833 208.46343994 95.10876465 C200.68334603 95.05333548 192.9039603 95.04711458 185.12370709 95.05937834 C178.7980893 95.06877278 172.47268444 95.06207182 166.1470871 95.04395676 C164.79612202 95.04015577 164.79612202 95.04015577 163.41786472 95.036278 C161.58811647 95.03111119 159.75836825 95.02593044 157.92862007 95.0207359 C140.77046919 94.97438282 123.61272051 94.98630924 106.45455787 95.01607566 C90.76770423 95.04150565 75.08204164 94.99483381 59.39540747 94.91384681 C43.27990955 94.83128192 27.16497212 94.7969526 11.04926276 94.81486928 C2.00485246 94.82409276 -7.03857597 94.81444862 -16.08281708 94.75447464 C-23.78414365 94.70395613 -31.48385836 94.69921777 -39.18519089 94.75291605 C-43.11260477 94.77906513 -47.03709458 94.78464177 -50.96432495 94.73325729 C-70.82916892 93.53906607 -70.82916892 93.53906607 -85.74153113 104.49976885 Z M-136.40576172 150.40405273 C-139.91523006 154.35282335 -143.22957097 158.58534465 -145.40576172 163.40405273 C-144.41445577 168.45848923 -142.45721202 171.2333525 -138.40576172 174.40405273 C-131.2644013 176.79394205 -124.22533298 176.77578098 -116.74560547 176.84545898 C-115.44176407 176.8592308 -114.13792267 176.87300262 -112.79457092 176.88719177 C-110.04704253 176.91257289 -107.29962217 176.92834279 -104.55200195 176.93945312 C-101.0455341 176.95605504 -97.54106378 177.01461232 -94.03526974 177.08259678 C-90.66794559 177.13828704 -87.30085939 177.14461787 -83.93310547 177.15795898 C-82.68190414 177.18781387 -81.43070282 177.21766876 -80.1415863 177.24842834 C-74.29537208 177.21893757 -70.40131975 177.16812993 -66.06030273 172.98193359 C-63.86030921 170.52233208 -63.86030921 170.52233208 -63.40576172 167.40405273 C-79.09633095 160.83511594 -94.82960151 154.38981457 -110.65576172 148.15405273 C-111.38938934 147.86438629 -112.12301697 147.57471985 -112.87887573 147.27627563 C-114.95470393 146.45733082 -117.03155054 145.64103875 -119.10888672 144.82592773 C-120.3015918 144.35767578 -121.49429688 143.88942383 -122.72314453 143.40698242 C-128.43622624 141.27107601 -132.35188592 146.60495963 -136.40576172 150.40405273 Z M291.00463867 144.59130859 C289.80992447 145.06857895 288.61521027 145.5458493 287.3842926 146.0375824 C286.07013507 146.56462514 284.75600299 147.09173138 283.44189453 147.61889648 C282.10295045 148.15471241 280.76395545 148.69040112 279.4249115 149.22596741 C276.61414472 150.35058751 273.80384639 151.47636779 270.99389648 152.60302734 C267.38856415 154.04855435 263.78233075 155.49181664 260.17577457 156.93428707 C257.40889405 158.04109363 254.6423738 159.14879822 251.87597466 160.25680733 C250.54636364 160.78928911 249.21666841 161.32156065 247.8868885 161.85362053 C246.02865556 162.59734659 244.17093154 163.34234387 242.31323242 164.08740234 C241.2547963 164.51153915 240.19636017 164.93567596 239.10585022 165.37266541 C236.65424399 166.34324629 236.65424399 166.34324629 234.59423828 167.40405273 C236.12244624 171.15510863 238.02830705 174.38405577 241.59423828 176.40405273 C246.03441649 177.14239445 250.43514669 177.03218305 254.92626953 176.96264648 C256.2319841 176.96031509 257.53769867 176.9579837 258.88298035 176.95558167 C261.64458296 176.94942573 264.40537148 176.92678354 267.16674805 176.89111328 C270.68704487 176.84597477 274.20660284 176.83109328 277.72716236 176.82737637 C281.10613726 176.8218501 284.48486809 176.79845894 287.86376953 176.77514648 C289.11922073 176.76978378 290.37467194 176.76442108 291.66816711 176.75889587 C302.74502396 176.79398849 302.74502396 176.79398849 312.46923828 172.15405273 C315.61457143 168.21796211 315.61457143 168.21796211 316.59423828 163.40405273 C314.63928363 159.76338869 312.1733792 156.62122013 309.59423828 153.40405273 C308.95486328 152.49655273 308.31548828 151.58905273 307.65673828 150.65405273 C304.6858118 147.41304202 301.24972335 144.83825446 297.59423828 142.40405273 C295.38692682 142.40405273 292.99645582 143.794045 291.00463867 144.59130859 Z M-53.49951172 183.33764648 C-54.29357422 184.16393555 -55.08763672 184.99022461 -55.90576172 185.84155273 C-61.2134151 191.34738149 -61.2134151 191.34738149 -65.50219727 191.55122375 C-66.84890987 191.56637045 -68.19569271 191.57585981 -69.54248047 191.58105469 C-70.64536156 191.59091148 -70.64536156 191.59091148 -71.77052307 191.60096741 C-74.21143699 191.62072405 -76.65228908 191.63237289 -79.09326172 191.64233398 C-79.92845337 191.64640951 -80.76364502 191.65048504 -81.62414551 191.65468407 C-86.05118564 191.67556242 -90.47819469 191.68985219 -94.90527344 191.69921875 C-99.46020904 191.71024128 -104.01465044 191.74458742 -108.56941223 191.78439045 C-112.08523407 191.81065808 -115.60094049 191.81891991 -119.11685181 191.82250023 C-120.79443673 191.82734601 -122.47201721 191.83890217 -124.14950562 191.85753822 C-135.22855992 191.97289441 -144.37118605 191.48630436 -153.40576172 184.40405273 C-154.46304259 191.26389082 -154.52216015 197.97188498 -154.46826172 204.90405273 C-154.46375 206.01264648 -154.45923828 207.12124023 -154.45458984 208.26342773 C-154.4428933 210.97702673 -154.42650258 213.69051034 -154.40576172 216.40405273 C-153.82297455 216.40547775 -153.24018738 216.40690277 -152.63973999 216.40837097 C-146.50594606 216.4282469 -140.37312354 216.48289697 -134.23974609 216.55664062 C-131.95889282 216.57966166 -129.67793564 216.59417851 -127.39697266 216.59960938 C-110.39476088 216.64803811 -94.65323259 217.16930174 -81.40576172 229.40405273 C-79.52553921 232.34550513 -79.40341387 233.33713916 -79.53076172 236.96655273 C-80.40576172 240.40405273 -80.40576172 240.40405273 -82.03076172 242.40405273 C-85.48461065 243.85830492 -87.97456729 243.6795897 -91.40576172 242.40405273 C-93.16038095 241.31917775 -94.88746925 240.18918825 -96.59326172 239.02905273 C-107.23719238 231.98612579 -118.09743123 231.9823206 -130.40576172 232.40405273 C-130.53293715 239.10902386 -130.51778189 245.5187427 -126.11669922 251.01342773 C-118.0115704 258.38172666 -106.44102342 256.77502527 -96.28076172 256.88256836 C-94.44771484 256.92220703 -94.44771484 256.92220703 -92.57763672 256.96264648 C-91.46485352 256.97610107 -90.35207031 256.98955566 -89.20556641 257.00341797 C-86.40576172 257.40405273 -86.40576172 257.40405273 -84.54492188 258.81054688 C-83.12346411 260.79894268 -83.00316095 261.97518507 -83.03076172 264.40405273 C-83.01916016 265.42499023 -83.01916016 265.42499023 -83.00732422 266.46655273 C-83.55428146 269.1262664 -84.18190116 269.81170996 -86.40576172 271.40405273 C-89.08976332 271.71509696 -91.53687869 271.84829058 -94.22216797 271.83764648 C-94.99326401 271.84288834 -95.76436005 271.84813019 -96.55882263 271.85353088 C-98.19374388 271.85995528 -99.82871133 271.85860864 -101.46362305 271.85009766 C-103.93543898 271.84166471 -106.40488191 271.870213 -108.87646484 271.90209961 C-118.8829478 271.94656752 -127.39530355 271.3257707 -135.71826172 265.15405273 C-142.85040682 257.85604379 -145.59418871 250.08842253 -146.03076172 240.02905273 C-146.06943359 239.29299805 -146.10810547 238.55694336 -146.14794922 237.79858398 C-146.2413417 236.00077868 -146.32459882 234.20245165 -146.40576172 232.40405273 C-149.04576172 232.40405273 -151.68576172 232.40405273 -154.40576172 232.40405273 C-154.45551162 237.93585934 -154.4916459 243.46753326 -154.515625 248.99951172 C-154.52563045 250.87811555 -154.53923904 252.75670402 -154.55664062 254.63525391 C-154.58113052 257.34859021 -154.59229962 260.06171911 -154.60107422 262.77514648 C-154.61139679 263.60364609 -154.62171936 264.43214569 -154.63235474 265.28575134 C-154.63390248 273.48390565 -153.75288915 280.90078964 -148.40576172 287.40405273 C-135.0623558 300.65214861 -113.04221976 297.6406341 -95.52856445 297.84594727 C-78.19778045 297.95052347 -78.19778045 297.95052347 -63.76757812 289.54150391 C-60.90589652 286.10341436 -58.42831335 282.54987623 -56.06640625 278.75463867 C-50.68591259 271.13873262 -40.23154629 267.29464965 -31.40576172 265.40405273 C-23.95628011 264.50352655 -16.4151991 264.7188645 -8.92529297 264.75708008 C-6.67995497 264.75029342 -4.43462255 264.74138444 -2.18930054 264.73052979 C3.87274106 264.70785485 9.93435425 264.71652407 15.99640274 264.73242521 C22.36130112 264.74514551 28.72616452 264.73332714 35.09106445 264.72549438 C46.45986202 264.71583528 57.82844349 264.73130571 69.19719779 264.75679107 C79.47840347 264.77912601 89.75932675 264.77524465 100.04052734 264.75219727 C112.01666323 264.72536242 123.992628 264.7155205 135.96880436 264.73025858 C142.29489476 264.73802583 148.62079121 264.73916985 154.9468689 264.72257614 C160.89627676 264.70805858 166.845155 264.71828622 172.79450607 264.74704742 C174.96880594 264.75361936 177.14315091 264.75182789 179.3174324 264.7407341 C195.35864559 264.66647682 209.25570537 265.97776339 222.04507446 276.86642456 C223.89865009 278.70619778 225.42799477 280.69658809 227.01879883 282.76757812 C233.05313792 290.29025133 238.63165481 296.45561691 248.53710938 297.90283203 C255.74469556 298.41698119 262.91465637 298.16621663 270.11932373 297.7565918 C273.52913875 297.58498252 276.94089409 297.52949437 280.35400391 297.45874023 C300.84803069 297.87893076 300.84803069 297.87893076 318.22314453 288.76342773 C325.20426406 281.02531934 325.75344692 273.13328265 325.69189453 263.06811523 C325.69047958 262.18876312 325.68906464 261.30941101 325.68760681 260.40341187 C325.68203705 257.61192331 325.66949019 254.82051679 325.65673828 252.02905273 C325.65171937 250.12931431 325.64715715 248.22957463 325.64306641 246.32983398 C325.63207753 241.68787559 325.61483385 237.04597804 325.59423828 232.40405273 C322.95423828 232.40405273 320.31423828 232.40405273 317.59423828 232.40405273 C317.56845703 233.44303711 317.54267578 234.48202148 317.51611328 235.55249023 C317.11682334 246.63944097 315.88679179 256.29996635 307.59423828 264.40405273 C300.53990254 269.64733748 294.06590362 271.71560277 285.23876953 271.70483398 C284.45531662 271.70911911 283.67186371 271.71340424 282.8646698 271.71781921 C281.21830203 271.72353481 279.57190903 271.72408332 277.92553711 271.71972656 C275.40386414 271.71654911 272.88334609 271.74011896 270.36181641 271.76538086 C268.75830226 271.76765237 267.15478496 271.76835804 265.55126953 271.76733398 C264.42154472 271.78114861 264.42154472 271.78114861 263.26899719 271.79524231 C258.07986667 271.74914403 258.07986667 271.74914403 255.62182617 270.00244141 C254.34173277 268.01128639 254.19244408 266.7619421 254.21923828 264.40405273 C254.21150391 263.72342773 254.20376953 263.04280273 254.19580078 262.34155273 C254.72929518 259.74730545 255.48217163 259.00171283 257.59423828 257.40405273 C260.36230469 257.01928711 260.36230469 257.01928711 263.69580078 256.99780273 C264.90880859 256.97588867 266.12181641 256.95397461 267.37158203 256.93139648 C268.64130859 256.92237305 269.91103516 256.91334961 271.21923828 256.90405273 C284.40969188 257.26134894 284.40969188 257.26134894 296.1706543 252.12963867 C300.4304822 247.51145035 301.70685427 242.29378394 301.63720703 236.17749023 C301.62302734 234.93225586 301.60884766 233.68702148 301.59423828 232.40405273 C286.92293611 231.90135583 275.96847373 233.08710876 263.69970703 241.85717773 C259.81419952 243.79260034 257.74200253 243.46976297 253.59423828 242.40405273 C251.59423828 240.84155273 251.59423828 240.84155273 250.59423828 238.40405273 C250.39524198 234.29146243 250.30620795 231.83556831 253.10205078 228.72827148 C263.74948902 220.38705975 274.7113401 217.13816311 287.99658203 216.98999023 C289.0742836 216.97062408 290.15198517 216.95125793 291.26234436 216.93130493 C294.68539658 216.87179518 298.10848294 216.82523818 301.53173828 216.77905273 C303.86052853 216.74084665 306.18930505 216.7017934 308.51806641 216.66186523 C314.21000128 216.56611726 319.90201969 216.48098691 325.59423828 216.40405273 C325.62353809 212.57073575 325.64113725 208.73744802 325.65673828 204.90405273 C325.66511719 203.82639648 325.67349609 202.74874023 325.68212891 201.63842773 C325.69995713 195.79076891 325.48529791 190.18541603 324.59423828 184.40405273 C324.08634766 184.74178711 323.57845703 185.07952148 323.05517578 185.42749023 C322.02263672 186.09651367 322.02263672 186.09651367 320.96923828 186.77905273 C320.29634766 187.21991211 319.62345703 187.66077148 318.93017578 188.11499023 C313.73032374 190.9844738 308.83276749 191.70965674 302.97167969 191.7421875 C302.23262894 191.7537236 301.49357819 191.7652597 300.73213196 191.77714539 C298.30333263 191.81127017 295.87478635 191.8299145 293.44580078 191.84545898 C292.61178112 191.85236189 291.77776146 191.85926479 290.91846848 191.86637688 C286.50667907 191.9021293 282.09501618 191.9257137 277.68310547 191.93945312 C273.1410703 191.95601247 268.60058885 192.01447571 264.05907631 192.08259678 C260.55189497 192.12748433 257.04508354 192.14095483 253.53763962 192.14607048 C251.86391955 192.15393737 250.19020981 192.17350128 248.51677322 192.20529366 C233.8200721 192.46615242 233.8200721 192.46615242 228.69335938 188.04443359 C227.62375165 186.86307946 226.58663182 185.65097427 225.59423828 184.40405273 C224.6041746 183.39421418 223.60726923 182.39084972 222.59423828 181.40405273 C219.40863876 182.8003838 217.35479983 184.44962766 214.96923828 186.96655273 C211.78868273 190.30683051 211.78868273 190.30683051 209.59423828 191.40405273 C206.68767627 191.41196867 203.80732174 191.35797716 200.90380859 191.26025391 C199.03431452 191.20748795 197.16478496 191.15596836 195.29522705 191.10551453 C194.29901588 191.07813391 193.30280472 191.05075329 192.27640533 191.02254295 C185.85841072 190.86639288 179.43873895 190.80596022 173.01930618 190.73746777 C167.39627497 190.67227069 161.77977906 190.56796262 156.15966797 190.37207031 C128.40265477 188.22933256 128.40265477 188.22933256 104.01815414 198.85027409 C99.81837651 202.90893876 96.27684663 207.42874473 93.05926514 212.29975891 C91.59423828 214.40405273 91.59423828 214.40405273 89.59423828 215.40405273 C82.96398579 216.31857032 82.96398579 216.31857032 79.66686249 214.11723232 C76.22655379 211.00029744 73.05206665 207.85930404 70.09631348 204.27442932 C64.28385487 197.33684869 59.19947588 191.73350364 49.84996796 190.72088528 C44.98719178 190.51994791 40.17310144 190.66565955 35.31298828 190.86889648 C33.20275823 190.89414587 31.09241611 190.91120922 28.98205566 190.92054749 C23.47187751 190.9619569 17.96791949 191.09277712 12.45996094 191.24987793 C3.62124487 191.49062491 -5.21890027 191.61062404 -14.06028748 191.69735909 C-17.13316267 191.74309501 -20.20158478 191.83805695 -23.27307129 191.93919373 C-38.63968375 192.29269798 -38.63968375 192.29269798 -43.54443359 188.0703125 C-45.10876465 186.21632385 -45.10876465 186.21632385 -46.40576172 184.40405273 C-47.88302011 182.69200813 -47.88302011 182.69200813 -49.40576172 181.40405273 C-51.63588195 181.17790245 -51.63588195 181.17790245 -53.49951172 183.33764648 Z M-49.40576172 296.40405273 C38.37423828 296.40405273 126.15423828 296.40405273 216.59423828 296.40405273 C208.13511264 286.53507282 200.66263066 281.27060331 187.4491806 280.23611498 C181.28944608 279.95003031 175.12617853 279.99544479 168.96142578 280.01586914 C166.89047978 280.01179795 164.81953595 280.00645301 162.74859619 279.99993896 C157.15358346 279.98632474 151.55873768 279.99153962 145.96372223 280.00107622 C140.09169586 280.00870344 134.21968321 280.00161873 128.34765625 279.99691772 C118.48906911 279.99146908 108.63054953 279.9986284 98.77197266 280.01293945 C87.39525628 280.0292642 76.01870123 280.02397507 64.64198875 280.00746024 C54.85139275 279.99381998 45.06084514 279.99193812 35.27024269 279.99977624 C29.43271874 280.0044388 23.59527047 280.00511672 17.75775146 279.99516678 C12.26812995 279.9864624 6.77871523 279.99258227 1.28911591 280.00984955 C-0.71832182 280.01379589 -2.72577712 280.01271234 -4.7332077 280.00606155 C-23.64936287 279.94919754 -36.51908891 281.36960112 -49.40576172 296.40405273 Z M-154.40576172 305.40405273 C-154.49332477 309.1122357 -154.54634187 312.82015036 -154.59326172 316.52905273 C-154.61839844 317.57577148 -154.64353516 318.62249023 -154.66943359 319.70092773 C-154.80539155 327.51967597 -154.80539155 327.51967597 -151.40576172 334.40405273 C-147.56159278 336.36749954 -144.34064773 336.6608999 -140.05834961 336.67871094 C-138.79676529 336.68824295 -137.53518097 336.69777496 -136.23536682 336.70759583 C-134.86638359 336.70733438 -133.49740034 336.70639724 -132.12841797 336.70483398 C-130.71504084 336.70872439 -129.30166487 336.71305977 -127.88829041 336.71781921 C-124.93028976 336.72526753 -121.97240851 336.72500023 -119.0144043 336.71972656 C-115.23380603 336.71393293 -111.45369785 336.73086657 -107.67318058 336.75407124 C-104.75541859 336.76884098 -101.83777376 336.76967591 -98.919981 336.76656151 C-97.52659573 336.76707307 -96.13320362 336.77227971 -94.73985481 336.78237343 C-92.7874644 336.7947824 -90.83497453 336.78598273 -88.88256836 336.77636719 C-87.77401993 336.77699661 -86.6654715 336.77762604 -85.52333069 336.77827454 C-81.91569838 336.34522729 -79.50773086 335.26967672 -76.40576172 333.40405273 C-73.81066543 329.28897148 -74.17120309 324.80678767 -74.28076172 320.09155273 C-74.28978516 319.35098633 -74.29880859 318.61041992 -74.30810547 317.84741211 C-74.33151959 316.03281806 -74.36738556 314.21839202 -74.40576172 312.40405273 C-75.59393997 312.39858429 -75.59393997 312.39858429 -76.80612183 312.39300537 C-84.30851019 312.35497777 -91.81041004 312.29795968 -99.31248283 312.22014999 C-103.1684617 312.18081199 -107.02421688 312.14855722 -110.88037109 312.13305664 C-114.60893076 312.11779887 -118.3368749 312.08319513 -122.06515884 312.03574371 C-123.48029321 312.02102304 -124.8955155 312.01301712 -126.31072617 312.01216888 C-134.93673234 312.00180866 -141.64733688 311.20393961 -149.40576172 307.40405273 C-151.06797573 306.72636046 -152.73362222 306.05687102 -154.40576172 305.40405273 Z M317.13720703 309.21264648 C312.74964019 311.26826536 309.01302903 311.5437203 304.17333984 311.609375 C302.87229309 311.62932022 301.57124634 311.64926544 300.23077393 311.66981506 C298.81547158 311.68679691 297.400168 311.70367581 295.98486328 311.72045898 C294.53325829 311.74104029 293.08165914 311.76203707 291.63006592 311.78343201 C287.81610856 311.83853124 284.00209821 311.88799388 280.18804932 311.9362793 C276.29344995 311.98658323 272.39892719 312.04222281 268.50439453 312.09741211 C260.86774073 312.20484501 253.23102307 312.30632274 245.59423828 312.40405273 C245.51271485 314.94637616 245.45350113 317.48604475 245.40673828 320.02905273 C245.38160156 320.7419043 245.35646484 321.45475586 245.33056641 322.18920898 C245.26472664 326.97356564 245.78393105 330.34404272 248.59423828 334.40405273 C252.29262259 336.59622164 255.70310156 336.66108187 259.94165039 336.67871094 C261.20323471 336.68824295 262.46481903 336.69777496 263.76463318 336.70759583 C265.13361641 336.70733438 266.50259966 336.70639724 267.87158203 336.70483398 C269.28495916 336.70872439 270.69833513 336.71305977 272.11170959 336.71781921 C275.06971024 336.72526753 278.02759149 336.72500023 280.9855957 336.71972656 C284.76619397 336.71393293 288.54630215 336.73086657 292.32681942 336.75407124 C295.24458141 336.76884098 298.16222624 336.76967591 301.080019 336.76656151 C302.47340427 336.76707307 303.86679638 336.77227971 305.26014519 336.78237343 C307.2125356 336.7947824 309.16502547 336.78598273 311.11743164 336.77636719 C312.22598007 336.77699661 313.3345285 336.77762604 314.47666931 336.77827454 C318.08817789 336.34476199 320.49387255 335.281523 323.59423828 333.40405273 C325.6263164 329.91107718 325.83412935 326.87430325 325.78955078 322.88452148 C325.78310547 321.86293945 325.77666016 320.84135742 325.77001953 319.78881836 C325.75326172 318.7337207 325.73650391 317.67862305 325.71923828 316.59155273 C325.71021484 315.51711914 325.70119141 314.44268555 325.69189453 313.33569336 C325.66839134 310.6915842 325.63553404 308.04793401 325.59423828 305.40405273 C322.81519135 305.40405273 319.55968478 307.95667944 317.13720703 309.21264648 Z " fill="#000000" transform="translate(170.40576171875,79.595947265625)"/>
</svg>
