<?xml version="1.0" encoding="UTF-8"?>
<svg version="1.1" xmlns="http://www.w3.org/2000/svg" width="512" height="512">
<path d="M0 0 C1.90625 0.46484375 1.90625 0.46484375 4.40625 2.83984375 C5.90625 5.46484375 5.90625 5.46484375 5.90625 7.46484375 C6.91983078 7.45152008 6.91983078 7.45152008 7.95388794 7.43792725 C14.99423758 7.34935265 22.03442862 7.28906704 29.07519531 7.24511719 C31.70188833 7.2250166 34.32853669 7.19773171 36.95507812 7.16308594 C40.73318512 7.11450211 44.51069984 7.09185866 48.2890625 7.07421875 C49.46115265 7.05357361 50.6332428 7.03292847 51.84085083 7.01165771 C58.17794761 7.00991827 62.13067924 7.12773472 66.90625 11.46484375 C71.38691394 16.55100282 72.07959788 19.65085407 72.14453125 26.2890625 C72.152603 27.06868851 72.16067474 27.84831451 72.16899109 28.65156555 C72.1828338 30.30504126 72.19355512 31.95854558 72.20141602 33.61206055 C72.21856615 36.12540008 72.26244048 38.63740227 72.30664062 41.15039062 C72.31677345 42.75910494 72.32528771 44.36783041 72.33203125 45.9765625 C72.34953934 46.72161545 72.36704742 47.4666684 72.38508606 48.23429871 C72.36349499 53.50196186 71.35731132 57.3896656 67.90625 61.46484375 C61.81576405 66.43786012 55.8075169 65.99021191 48.19140625 65.85546875 C46.98052841 65.84980896 45.76965057 65.84414917 44.52207947 65.83831787 C40.67056042 65.81600257 36.81998591 65.7658121 32.96875 65.71484375 C30.35092493 65.69477262 27.73308522 65.67652293 25.11523438 65.66015625 C18.71187797 65.61615315 12.30922391 65.54715639 5.90625 65.46484375 C5.90625 69.09484375 5.90625 72.72484375 5.90625 76.46484375 C7.22625 77.12484375 8.54625 77.78484375 9.90625 78.46484375 C11.44720847 79.82249693 12.93712281 81.23887643 14.39125061 82.68914795 C15.28431412 83.57512665 16.17737762 84.46110535 17.09750366 85.37393188 C18.07951122 86.35823318 19.06141068 87.34264233 20.04321289 88.32714844 C21.08285078 89.36243815 22.12290554 90.3973094 23.16334534 91.43179321 C25.98620024 94.24125718 28.80261489 97.0570943 31.61751485 99.87452602 C33.96907224 102.22715323 36.32359967 104.57679683 38.67808622 106.92649198 C44.23379589 112.47110576 49.78415894 118.02103233 55.33129883 123.57421875 C61.05068374 129.29964209 66.77917948 135.01583162 72.51222426 140.72757411 C77.43662976 145.63435472 82.35519876 150.54693273 87.26917261 155.4641602 C90.20295808 158.39975752 93.13891826 161.33309244 96.08055305 164.26082611 C98.84761262 167.01529788 101.60730123 169.77694921 104.36154747 172.54423141 C105.37197074 173.55701806 106.3849443 174.56726792 107.40067291 175.57473373 C108.7901469 176.95371913 110.1694359 178.34294417 111.54823303 179.73260498 C112.32195283 180.50615704 113.09567263 181.27970909 113.89283848 182.07670212 C118.09946549 187.06625393 119.52674796 191.53555096 119.32421875 197.9296875 C118.43635852 203.31493316 115.63595563 207.15701754 111.34375 210.40234375 C104.50156158 213.38483614 100.23175626 212.46484375 91.90625 212.46484375 C91.90625 225.99484375 91.90625 239.52484375 91.90625 253.46484375 C96.19625 253.46484375 100.48625 253.46484375 104.90625 253.46484375 C110.50299317 254.26437849 113.2898496 256.10372538 116.7265625 260.421875 C118.00575888 262.63717204 118.29498824 264.19347553 118.59375 266.71484375 C120.05865054 275.56465526 130.64908723 282.36726577 137.078125 287.85546875 C139.54796892 290.02977579 141.82417439 292.37220894 144.12890625 294.71875 C145.97218574 296.52962018 147.88447799 298.21805729 149.84375 299.90234375 C152.65201347 302.32102154 155.30595593 304.82384058 157.90625 307.46484375 C160.48634215 310.08524984 163.11728607 312.56807787 165.90625 314.96484375 C169.41766648 317.98246728 172.65932402 321.19843456 175.90625 324.49609375 C177.84516002 326.4047083 179.84324551 328.19194927 181.90625 329.96484375 C185.41626511 332.98126298 188.65676276 336.19579507 191.90234375 339.4921875 C194.48871151 342.03822204 197.2216028 344.38505932 199.97265625 346.75 C202.47194138 348.96653772 204.78906884 351.33646656 207.12890625 353.71875 C208.97218574 355.52962018 210.88447799 357.21805729 212.84375 358.90234375 C215.65201347 361.32102154 218.30595593 363.82384058 220.90625 366.46484375 C223.48634215 369.08524984 226.11728607 371.56807787 228.90625 373.96484375 C232.41626511 376.98126298 235.65676276 380.19579507 238.90234375 383.4921875 C241.48741575 386.03694649 244.21870061 388.38277006 246.96875 390.74609375 C249.48351296 392.97693186 251.81635935 395.36145536 254.16796875 397.76171875 C256.50503822 400.05152165 258.99254544 402.13187926 261.5234375 404.203125 C263.65138751 406.1447291 263.89902304 407.39980114 264.21875 410.27734375 C263.82003388 414.34424815 263.02041229 415.8178058 259.90625 418.46484375 C253.4022658 419.36760496 253.4022658 419.36760496 250.09130859 417.36962891 C248.23488788 415.77773365 246.53934321 414.10206691 244.84375 412.33984375 C243.52916048 411.04374864 242.21404156 409.74819029 240.8984375 408.453125 C240.23553711 407.78748535 239.57263672 407.1218457 238.88964844 406.43603516 C235.82220464 403.38747026 232.64463937 400.46199978 229.46875 397.52734375 C228.21801627 396.36146372 226.96802234 395.19478956 225.71875 394.02734375 C225.09355469 393.44339844 224.46835937 392.85945313 223.82421875 392.2578125 C218.51754606 387.29699221 213.22040325 382.32599259 207.92236328 377.35595703 C204.58432333 374.22487717 201.24524927 371.09490051 197.90625 367.96484375 C193.89401255 364.20367763 189.88199839 360.44227495 185.87109375 356.6796875 C179.38991012 350.60043774 172.90447977 344.5258733 166.40625 338.46484375 C161.25396498 333.65920392 156.10831513 328.84658541 150.96875 324.02734375 C149.98273804 323.10320679 149.98273804 323.10320679 148.97680664 322.16040039 C145.50911239 318.90941058 142.04514143 315.65455474 138.5859375 312.39453125 C137.8755835 311.72607178 137.16522949 311.0576123 136.43334961 310.36889648 C135.08660598 309.10145637 133.74097855 307.83282866 132.39672852 306.56274414 C128.33108022 302.73921882 124.16821416 299.06858951 119.90625 295.46484375 C118.59107079 307.7559653 118.59107079 307.7559653 121.40625 319.39453125 C123.45438251 321.38666014 125.50812047 322.91699767 127.90625 324.46484375 C129.19418784 325.54901049 130.46521642 326.65357555 131.71875 327.77734375 C132.37488281 328.34066406 133.03101563 328.90398437 133.70703125 329.484375 C136.37102357 331.88338762 138.88962025 334.41377501 141.40625 336.96484375 C144.45961953 340.05976986 147.52948755 343.08418712 150.84375 345.90234375 C154.383041 348.91837202 157.64119445 352.15932276 160.90625 355.46484375 C164.15076876 358.74952366 167.38547358 361.97218379 170.90625 364.96484375 C174.99499765 368.44027925 178.71441684 372.24584612 182.48217773 376.06030273 C185.8120733 379.41545269 189.24556399 382.56209827 192.84765625 385.625 C195.97855281 388.42320167 198.89454695 391.43258031 201.84228516 394.42041016 C204.42647318 397.02605114 207.04834158 399.52537484 209.84375 401.90234375 C213.383041 404.91837202 216.64119445 408.15932276 219.90625 411.46484375 C223.15076876 414.74952366 226.38547358 417.97218379 229.90625 420.96484375 C233.99499765 424.44027925 237.71441684 428.24584612 241.48217773 432.06030273 C244.8120733 435.41545269 248.24556399 438.56209827 251.84765625 441.625 C254.97855281 444.42320167 257.89454695 447.43258031 260.84228516 450.42041016 C263.42647318 453.02605114 266.04834158 455.52537484 268.84375 457.90234375 C272.383041 460.91837202 275.64119445 464.15932276 278.90625 467.46484375 C282.73091112 471.33684711 286.61410317 475.01940821 290.765625 478.54296875 C294.22031719 481.6446267 297.45247663 484.96998955 300.6953125 488.29101562 C306.80593347 494.50671341 310.25620896 496.54428531 318.95996094 496.67016602 C320.18092468 496.69011124 321.40188843 496.71005646 322.65985107 496.73060608 C323.97350647 496.74731857 325.28716187 496.76403107 326.640625 496.78125 C328.00254936 496.80183294 329.36446752 496.82282976 330.72637939 496.84422302 C334.30359872 496.8993054 337.88087438 496.94877539 341.45819092 496.99707031 C345.11150094 497.04738664 348.76472958 497.10301972 352.41796875 497.15820312 C359.58066017 497.26561537 366.74341946 497.3670976 373.90625 497.46484375 C373.46515571 495.86882609 373.01396287 494.27559737 372.55859375 492.68359375 C372.30843506 491.79607422 372.05827637 490.90855469 371.80053711 489.99414062 C370.2654551 485.65249454 367.81141745 482.75544105 363.96875 480.15234375 C358.27967295 478.25598473 352.77703363 478.4399983 346.87890625 478.640625 C314.70219049 479.3160068 314.70219049 479.3160068 307.43310547 473.10009766 C305.22095345 470.65907978 303.23868819 468.13895338 301.36669922 465.42871094 C298.79710036 461.97336938 295.54582767 459.2575431 292.34375 456.40234375 C291.10787487 455.25300586 289.87478071 454.10067011 288.64453125 452.9453125 C286.06806459 450.54165348 283.48094492 448.15010256 280.88671875 445.765625 C280.23968994 445.16951416 279.59266113 444.57340332 278.92602539 443.95922852 C277.68917828 442.82055146 276.45017587 441.68420981 275.20874023 440.55053711 C270.0546438 435.80038799 270.0546438 435.80038799 269.59375 431.65234375 C269.98926263 427.6181149 270.85668811 426.12343617 273.90625 423.46484375 C277.8258894 423.03239527 280.12954636 423.01451485 283.57421875 425.01171875 C284.40566406 425.73875 285.23710937 426.46578125 286.09375 427.21484375 C287.0321875 428.03210938 287.970625 428.849375 288.9375 429.69140625 C293.12945569 433.55168459 297.12760724 437.60464344 301.1171875 441.671875 C304.00057803 444.55930389 306.9914618 447.23376605 310.09765625 449.875 C312.61594596 452.08870176 314.94125177 454.4720786 317.265625 456.88671875 C317.80703125 457.4075 318.3484375 457.92828125 318.90625 458.46484375 C319.41124023 458.98618896 319.91623047 459.50753418 320.43652344 460.04467773 C324.20980618 462.21442721 327.78687206 461.82740531 332.0625 461.765625 C333.90885772 461.77327502 335.7552121 461.78176627 337.6015625 461.79101562 C340.49343226 461.78881816 343.38462629 461.7775516 346.27636719 461.74975586 C360.0602646 461.64669647 369.95943496 462.32142271 380.84375 471.65234375 C388.07399271 479.92813626 389.34736074 487.72211487 389.40625 498.46484375 C389.41261475 499.49287109 389.41897949 500.52089844 389.42553711 501.58007812 C389.30119203 508.83173897 389.30119203 508.83173897 387.89645195 511.08358252 C384.7394212 513.27465874 381.35163214 512.87480172 377.64309692 512.84236717 C376.35777718 512.84890766 376.35777718 512.84890766 375.04649138 512.85558027 C372.14948934 512.86660646 369.25295631 512.85608037 366.35595703 512.84579468 C364.26835446 512.84924833 362.18075372 512.85401092 360.09315681 512.85997641 C354.33648118 512.87255623 348.5799538 512.86628441 342.82327747 512.85701776 C336.62279544 512.85025607 330.42233968 512.86069413 324.22186279 512.86895752 C312.77047231 512.88155431 301.31914828 512.88042355 289.8677581 512.87222311 C279.28994642 512.86468518 268.71215218 512.86270226 258.13433838 512.86629105 C257.4334885 512.8665202 256.73263862 512.86674936 256.01055087 512.86698546 C253.16578319 512.86791943 250.32101552 512.86887462 247.47624785 512.86986475 C220.77411072 512.87904782 194.07200387 512.87071174 167.36987141 512.85457406 C143.63133033 512.84033657 119.89283753 512.84161042 96.15429688 512.85595703 C69.50191697 512.87201069 42.84956386 512.87839664 16.19717979 512.86912024 C13.35750708 512.86815805 10.51783435 512.86721953 7.67816162 512.86629105 C6.97892925 512.86605381 6.27969687 512.86581658 5.55927564 512.86557216 C-5.01352979 512.86215551 -15.5863159 512.86615844 -26.15911865 512.87372971 C-38.17733627 512.88229298 -50.19548439 512.87990417 -62.21369982 512.86388747 C-68.35068278 512.85597945 -74.48756753 512.85295608 -80.62454987 512.86283493 C-86.23513844 512.87173013 -91.84553715 512.86693498 -97.45610833 512.85090227 C-99.49306876 512.8475324 -101.53004501 512.84929752 -103.56699538 512.85652964 C-106.32176194 512.86556513 -109.07586584 512.85638491 -111.83059692 512.84236717 C-112.63365713 512.84939067 -113.43671734 512.85641417 -114.26411271 512.8636505 C-119.60046264 512.8088441 -119.60046264 512.8088441 -122.08529472 511.07601416 C-123.41906895 508.9450941 -123.49378148 507.46799128 -123.46875 504.96484375 C-123.47648437 504.19140625 -123.48421875 503.41796875 -123.4921875 502.62109375 C-122.98568594 499.88002647 -122.30383405 499.14351234 -120.09375 497.46484375 C-117.55004883 497.12426758 -117.55004883 497.12426758 -114.55078125 497.171875 C-113.47763672 497.18154297 -112.40449219 497.19121094 -111.29882812 497.20117188 C-110.17927734 497.22630859 -109.05972656 497.25144531 -107.90625 497.27734375 C-106.77509766 497.29087891 -105.64394531 497.30441406 -104.47851562 497.31835938 C-101.68311683 497.35374417 -98.88867108 497.40311427 -96.09375 497.46484375 C-96.09743717 496.49539731 -96.10112434 495.52595087 -96.10492325 494.52712727 C-96.19367854 470.95021643 -96.2594326 447.37332723 -96.30099869 423.79628468 C-96.32163346 412.394647 -96.34977163 400.99311962 -96.39550781 389.59155273 C-96.43534746 379.655206 -96.46117615 369.71893913 -96.47010398 359.78251475 C-96.47532357 354.52008377 -96.48761067 349.25788128 -96.51667023 343.99552345 C-96.54379386 339.04368206 -96.55220114 334.09216359 -96.54618073 329.14025497 C-96.54728233 327.32176014 -96.55525435 325.50325465 -96.5705719 323.68482399 C-96.59045236 321.20324712 -96.58569678 318.72289193 -96.57476807 316.24128723 C-96.58641943 315.52046221 -96.5980708 314.79963719 -96.61007524 314.05696899 C-96.55303852 309.27072112 -95.50851671 306.81170841 -92.09375 303.46484375 C-90.09375 302.8359375 -90.09375 302.8359375 -88.09375 302.90234375 C-87.43375 302.90105469 -86.77375 302.89976562 -86.09375 302.8984375 C-84.09375 303.46484375 -84.09375 303.46484375 -80.09375 307.46484375 C-80.09375 319.67484375 -80.09375 331.88484375 -80.09375 344.46484375 C-28.61375 344.46484375 22.86625 344.46484375 75.90625 344.46484375 C75.90625 300.90484375 75.90625 257.34484375 75.90625 212.46484375 C24.42625 212.46484375 -27.05375 212.46484375 -80.09375 212.46484375 C-80.09375 236.22484375 -80.09375 259.98484375 -80.09375 284.46484375 C-84.88862179 289.25971554 -84.88862179 289.25971554 -89.09375 289.46484375 C-91.92533547 288.74048468 -93.54735101 288.26065465 -95.22409058 285.81854248 C-96.40280191 282.628407 -96.3328593 279.89366565 -96.32080078 276.49316406 C-96.32109283 275.80007645 -96.32138489 275.10698883 -96.32168579 274.39289856 C-96.32029608 272.10945983 -96.30475206 269.82635025 -96.2890625 267.54296875 C-96.28533109 265.95684996 -96.28248472 264.37072886 -96.28048706 262.78460693 C-96.27286068 258.61543382 -96.25322078 254.44640064 -96.2310791 250.27728271 C-96.21059921 246.0208119 -96.20148076 241.76431841 -96.19140625 237.5078125 C-96.16997391 229.16009212 -96.13585002 220.81248536 -96.09375 212.46484375 C-96.97998047 212.47789551 -97.86621094 212.49094727 -98.77929688 212.50439453 C-100.52823242 212.51962158 -100.52823242 212.51962158 -102.3125 212.53515625 C-104.0440332 212.55473389 -104.0440332 212.55473389 -105.81054688 212.57470703 C-110.81307197 212.40731141 -114.86852235 211.55622312 -118.65234375 208 C-122.27962557 203.79728537 -123.27740841 201.16687744 -123.40625 195.71484375 C-123.44363281 194.68875 -123.48101562 193.66265625 -123.51953125 192.60546875 C-122.4154083 184.46129581 -114.61316634 178.62144033 -109.10546875 173.0703125 C-108.37937881 172.33574042 -108.37937881 172.33574042 -107.63862038 171.58632851 C-105.08129075 168.99916569 -102.51837888 166.41769529 -99.95043945 163.84106445 C-97.30732499 161.18694804 -94.68330158 158.51476025 -92.06323528 155.83791637 C-90.03578436 153.77315579 -87.99497985 151.72199444 -85.95032692 149.67428017 C-84.97694916 148.69486987 -84.00855072 147.71048351 -83.04541588 146.72099876 C-81.69655355 145.33787299 -80.32653933 143.97547211 -78.95581055 142.61401367 C-78.18399948 141.83491135 -77.41218842 141.05580902 -76.61698914 140.25309753 C-73.40716261 137.97824996 -70.99435001 137.62558436 -67.09375 137.46484375 C-63.94577182 139.24413576 -62.49867374 140.50314986 -61.09375 143.83984375 C-61.09375 148.23958544 -63.25040672 151.4682698 -66.04226685 154.76739502 C-66.77871429 155.49416443 -67.51516174 156.22093384 -68.27392578 156.96972656 C-69.53005173 158.22067108 -69.53005173 158.22067108 -70.81155396 159.49688721 C-71.71163177 160.37834412 -72.61170959 161.25980103 -73.5390625 162.16796875 C-74.95299708 163.57179622 -76.36692948 164.97562589 -77.78072929 166.37958908 C-79.75294594 168.33432055 -81.73202416 170.28203451 -83.71105957 172.2298584 C-87.18614469 175.65261044 -90.6512971 179.08540891 -94.11495972 182.51971436 C-95.95811265 184.34584664 -97.8043324 186.16888953 -99.65383911 187.98858643 C-100.48495209 188.8099408 -101.31606506 189.63129517 -102.17236328 190.47753906 C-103.27464767 191.56291962 -103.27464767 191.56291962 -104.39920044 192.67022705 C-106.16563943 194.36787151 -106.16563943 194.36787151 -107.09375 196.46484375 C-37.79375 196.46484375 31.50625 196.46484375 102.90625 196.46484375 C97.26904977 189.99179566 97.26904977 189.99179566 91.38197327 183.8203125 C90.55617767 182.99314224 89.73038208 182.16597198 88.87956238 181.31373596 C87.99770767 180.43547653 87.11585297 179.5572171 86.20727539 178.65234375 C85.2503749 177.69572599 84.29369585 176.73888667 83.33721924 175.78184509 C80.76350275 173.20784399 78.18673482 170.63691805 75.60937047 168.06657028 C72.90764966 165.37113936 70.20879753 162.67283911 67.5096283 159.97485352 C62.40842778 154.8767498 57.30468561 149.78119858 52.20000499 144.6865797 C46.38417883 138.88196619 40.57122278 133.07448201 34.75849545 127.26676559 C22.81091763 115.32961474 10.85977495 103.39603926 -1.09375 91.46484375 C-4.32198695 93.00157488 -6.48041149 94.6118113 -9.00439453 97.16430664 C-9.7584256 97.92171646 -10.51245667 98.67912628 -11.28933716 99.45948792 C-12.4957637 100.6861039 -12.4957637 100.6861039 -13.7265625 101.9375 C-14.55960907 102.77574814 -15.39265564 103.61399628 -16.25094604 104.47764587 C-18.91166527 107.1561822 -21.56560594 109.8413055 -24.21875 112.52734375 C-26.87989491 115.21607399 -29.54246799 117.90334954 -32.20797729 120.5877533 C-33.8667562 122.25882295 -35.52285518 123.93255774 -37.17605591 125.60914612 C-37.92378265 126.36340378 -38.6715094 127.11766144 -39.44189453 127.89477539 C-40.10045441 128.56158829 -40.75901428 129.22840118 -41.43753052 129.91542053 C-43.67759796 132.01104406 -44.82479541 132.43495991 -47.90625 132.77734375 C-51.9731544 132.37862763 -53.44671205 131.57900604 -56.09375 128.46484375 C-56.7808224 125.10414888 -57.07309398 123.63765326 -56.09375 120.46484375 C-53.22728905 117.24362154 -49.75452742 114.87303421 -46.28515625 112.3359375 C-20.84190847 92.64458118 -20.84190847 92.64458118 -8.60974598 64.09567165 C-6.88562965 47.7507312 -7.83451493 30.90908957 -9.55062866 14.59338379 C-9.67434845 13.31596313 -9.79806824 12.03854248 -9.92553711 10.72241211 C-10.05238388 9.6057164 -10.17923065 8.48902069 -10.30992126 7.33848572 C-10.09375 4.46484375 -10.09375 4.46484375 -8.22926331 2.10914612 C-5.32263792 -0.12889707 -3.55823231 -0.16596233 0 0 Z M5.90625 23.46484375 C5.90625 32.04484375 5.90625 40.62484375 5.90625 49.46484375 C22.40625 49.46484375 38.90625 49.46484375 55.90625 49.46484375 C55.90625 40.88484375 55.90625 32.30484375 55.90625 23.46484375 C39.40625 23.46484375 22.90625 23.46484375 5.90625 23.46484375 Z M91.90625 269.46484375 C91.90625 287.94484375 91.90625 306.42484375 91.90625 325.46484375 C95.53625 325.46484375 99.16625 325.46484375 102.90625 325.46484375 C102.90625 306.98484375 102.90625 288.50484375 102.90625 269.46484375 C99.27625 269.46484375 95.64625 269.46484375 91.90625 269.46484375 Z M114.90625 335.46484375 C113.25625 336.78484375 111.60625 338.10484375 109.90625 339.46484375 C100.99625 340.45484375 100.99625 340.45484375 91.90625 341.46484375 C91.90625 392.94484375 91.90625 444.42484375 91.90625 497.46484375 C105.43625 497.46484375 118.96625 497.46484375 132.90625 497.46484375 C133.20033847 478.65327463 133.43953429 459.84358205 133.57980824 441.03029346 C133.64668727 432.29385069 133.73776732 423.55894319 133.88696289 414.82348633 C134.01702586 407.20458183 134.10051908 399.58678952 134.12940043 391.96680564 C134.14627116 387.93578168 134.18555838 383.9079377 134.28074074 379.87793922 C135.56352359 361.11411186 135.56352359 361.11411186 128.41046429 344.71602154 C125.72115056 342.22705983 123.059169 340.35356872 119.90625 338.46484375 C118.94237869 337.87472 117.97850739 337.28459625 116.98542786 336.67658997 C116.29929916 336.27671371 115.61317047 335.87683746 114.90625 335.46484375 Z M-80.09375 359.46484375 C-80.09375 405.00484375 -80.09375 450.54484375 -80.09375 497.46484375 C-68.21375 497.46484375 -56.33375 497.46484375 -44.09375 497.46484375 C-44.09375 451.92484375 -44.09375 406.38484375 -44.09375 359.46484375 C-55.97375 359.46484375 -67.85375 359.46484375 -80.09375 359.46484375 Z M-28.09375 359.46484375 C-28.09375 367.71484375 -28.09375 375.96484375 -28.09375 384.46484375 C-11.26375 384.46484375 5.56625 384.46484375 22.90625 384.46484375 C22.90625 376.21484375 22.90625 367.96484375 22.90625 359.46484375 C6.07625 359.46484375 -10.75375 359.46484375 -28.09375 359.46484375 Z M38.90625 359.46484375 C38.90625 405.00484375 38.90625 450.54484375 38.90625 497.46484375 C51.11625 497.46484375 63.32625 497.46484375 75.90625 497.46484375 C75.90625 451.92484375 75.90625 406.38484375 75.90625 359.46484375 C63.69625 359.46484375 51.48625 359.46484375 38.90625 359.46484375 Z M148.90625 367.46484375 C148.90625 410.36484375 148.90625 453.26484375 148.90625 497.46484375 C168.37625 497.46484375 187.84625 497.46484375 207.90625 497.46484375 C208.16831251 484.3546654 208.16831251 484.3546654 208.34570312 471.24414062 C208.39937397 465.89102237 208.46264766 460.53929797 208.58520508 455.18725586 C208.68346768 450.86881265 208.73690372 446.55186483 208.76014519 442.23238945 C208.77669235 440.59005641 208.80900809 438.94779937 208.85782051 437.30610847 C209.28539144 427.98799522 209.28539144 427.98799522 205.97677612 419.51071167 C203.73307894 417.23695434 201.48359202 415.34422196 198.90625 413.46484375 C197.62748791 412.36986936 196.35514183 411.26728413 195.09375 410.15234375 C194.44792969 409.59933594 193.80210937 409.04632813 193.13671875 408.4765625 C190.28749809 405.90677504 187.60191675 403.19401265 184.90625 400.46484375 C181.66173719 397.18015743 178.4270259 393.95750326 174.90625 390.96484375 C171.38544277 387.9721576 168.15101164 384.7493228 164.90625 381.46484375 C157.59112671 373.56966723 157.59112671 373.56966723 148.90625 367.46484375 Z M-28.09375 400.46484375 C-28.09375 407.06484375 -28.09375 413.66484375 -28.09375 420.46484375 C-11.26375 420.46484375 5.56625 420.46484375 22.90625 420.46484375 C22.90625 413.86484375 22.90625 407.26484375 22.90625 400.46484375 C6.07625 400.46484375 -10.75375 400.46484375 -28.09375 400.46484375 Z M-28.09375 436.46484375 C-28.09375 443.06484375 -28.09375 449.66484375 -28.09375 456.46484375 C-11.26375 456.46484375 5.56625 456.46484375 22.90625 456.46484375 C22.90625 449.86484375 22.90625 443.26484375 22.90625 436.46484375 C6.07625 436.46484375 -10.75375 436.46484375 -28.09375 436.46484375 Z M223.90625 438.46484375 C223.90625 457.93484375 223.90625 477.40484375 223.90625 497.46484375 C244.36625 497.46484375 264.82625 497.46484375 285.90625 497.46484375 C281.9081839 492.8004333 278.11719307 488.63878548 273.59375 484.58984375 C269.66833552 481.02641427 265.81490466 477.43164145 262.09375 473.65234375 C259.51036228 471.03151562 256.89401441 468.53945439 254.09375 466.15234375 C250.51723024 463.08981485 247.21261148 459.8118214 243.90625 456.46484375 C237.55215833 450.04033839 230.85051116 444.25172805 223.90625 438.46484375 Z M-28.09375 472.46484375 C-28.09375 480.71484375 -28.09375 488.96484375 -28.09375 497.46484375 C-11.26375 497.46484375 5.56625 497.46484375 22.90625 497.46484375 C22.90625 489.21484375 22.90625 480.96484375 22.90625 472.46484375 C6.07625 472.46484375 -10.75375 472.46484375 -28.09375 472.46484375 Z " fill="#000000" transform="translate(123.09375,-0.46484375)"/>
<path d="M0 0 C10.33267959 7.44835196 17.67250457 18.41224363 20 31 C21.03058361 41.64861228 21.19078559 52.38629652 16 62 C15.50242187 62.93070312 15.00484375 63.86140625 14.4921875 64.8203125 C7.57848736 76.62183785 -2.59202719 84.499107 -15.85546875 88.140625 C-29.32015788 91.28041611 -42.26815828 88.90455853 -54.25 82.25 C-66.53456311 74.37528006 -73.34169227 63.11655961 -76.6875 49.125 C-78.09139768 35.08602319 -75.62194464 21.87821207 -67.0625 10.40234375 C-50.03671682 -9.7549674 -22.47135692 -13.94899465 0 0 Z M-52 18 C-57.92544318 24.95820016 -61.72975323 33.66843331 -61.28125 42.9375 C-59.86756123 53.304551 -55.11541709 61.16322564 -46.9609375 67.6796875 C-38.45931848 73.40388517 -29.48027161 74.30294 -19.48828125 72.5625 C-10.51851029 70.05785191 -4.13366519 63.98247159 0.80859375 56.30859375 C4.91357934 48.35434298 5.52300387 38.97086746 3.3125 30.3046875 C2.37005907 28.05068294 1.30145919 26.06606646 0 24 C-0.4125 23.30390625 -0.825 22.6078125 -1.25 21.890625 C-5.66566773 15.21694536 -11.80378246 12.00688665 -18.875 8.625 C-31.82968378 6.03406324 -42.53264118 8.81791 -52 18 Z " fill="#000000" transform="translate(149,237)"/>
</svg>
