<?xml version="1.0" encoding="UTF-8"?>
<svg version="1.1" xmlns="http://www.w3.org/2000/svg" width="512" height="512">
<path d="M0 0 C0.99825302 -0.0071553 1.99650604 -0.01431061 3.02500916 -0.02168274 C4.12427231 -0.02437164 5.22353546 -0.02706055 6.35610962 -0.02983093 C7.5106514 -0.03640213 8.66519318 -0.04297333 9.85472107 -0.04974365 C13.68802956 -0.06950879 17.52129886 -0.08114523 21.35464478 -0.09111023 C22.66069294 -0.09518576 23.9667411 -0.09926128 25.31236649 -0.10346031 C31.50922491 -0.12251091 37.70607142 -0.13674302 43.90295351 -0.14507228 C51.05879698 -0.1548491 58.21433148 -0.1811803 65.37006605 -0.22157317 C70.89963749 -0.25171687 76.42912027 -0.26653942 81.9587723 -0.26985329 C85.26220796 -0.27220558 88.56523753 -0.2831541 91.86860275 -0.30631447 C95.55349367 -0.33054774 99.2375704 -0.32976961 102.92251587 -0.32279968 C104.01773056 -0.33560974 105.11294525 -0.3484198 106.24134827 -0.36161804 C107.24524094 -0.35467422 108.24913361 -0.34773041 109.28344727 -0.34057617 C110.15470938 -0.34296453 111.02597149 -0.34535288 111.92363548 -0.34781361 C115.05298914 0.31271285 116.24774117 1.72961772 118.26870728 4.14717102 C119.39652076 6.40279799 119.40474382 7.64272353 119.42692566 10.14610291 C119.44160889 11.39972878 119.44160889 11.39972878 119.45658875 12.67868042 C119.46234421 13.59721298 119.46809967 14.51574554 119.47402954 15.46211243 C119.48392914 16.42800797 119.49382874 17.3939035 119.50402832 18.3890686 C119.53569944 21.59226503 119.56042293 24.7954763 119.58511353 27.99873352 C119.60567821 30.21548353 119.62667454 32.43222957 119.64808655 34.64897156 C119.7033574 40.49166153 119.75274455 46.33438718 119.80093384 52.17713928 C119.8511123 58.13593227 119.90681741 64.09467327 119.96206665 70.05342102 C120.06970953 81.7512933 120.17114086 93.44921067 120.26870728 105.14717102 C120.81212769 104.68803818 121.3555481 104.22890533 121.91543579 103.75585938 C124.57773491 101.93592078 126.80709949 101.23255389 129.92105103 100.40815735 C131.07059265 100.09909958 132.22013428 99.79004181 133.4045105 99.47161865 C134.65907043 99.14412125 135.91363037 98.81662384 137.20620728 98.47920227 C138.53989473 98.12408514 139.87336569 97.7681541 141.20663452 97.41146851 C144.808902 96.45016225 148.41399957 95.49990933 152.01979065 94.55191803 C155.78039174 93.5615724 159.53861545 92.56228938 163.29702759 91.56367493 C167.94245944 90.32995027 172.58816658 89.09730156 177.2350769 87.86915588 C187.06329202 85.2707972 196.88184199 82.63899084 206.69291687 79.9766674 C210.8276861 78.85546744 214.96377684 77.73915125 219.09983063 76.62270069 C222.37369683 75.73858393 225.64674498 74.85164799 228.91812134 73.95835876 C232.54847075 72.96890292 236.18160449 71.99038996 239.81558228 71.01435852 C240.8792804 70.72150467 241.94297852 70.42865082 243.03890991 70.12692261 C254.93499277 66.95793986 254.93499277 66.95793986 260.3364563 68.88479614 C267.3794153 73.48608998 269.01514043 91.14321548 271.06558228 99.11201477 C271.53119025 100.90499043 271.99728857 102.69783881 272.46383667 104.49057007 C273.46340136 108.33551666 274.4596554 112.18129974 275.45327759 116.02778625 C277.04531948 122.19070233 278.64473548 128.3516902 280.24526978 134.5124054 C282.19930335 142.03563399 284.15167194 149.55929058 286.10184479 157.08352089 C289.50508034 170.21328285 292.92127254 183.33962301 296.34683228 196.46357727 C296.5920034 197.40289534 296.83717453 198.3422134 297.08977509 199.30999565 C298.32259556 204.03296524 299.55566516 208.75586975 300.78884888 213.47874451 C303.03314085 222.07448198 305.27519431 230.67080344 307.51744843 239.26707268 C308.76777937 244.06046192 310.0182503 248.85381465 311.26870728 253.64717102 C311.76870795 255.56383751 312.26870795 257.48050418 312.76870728 259.39717102 C313.01620728 260.34592102 313.26370728 261.29467102 313.51870728 262.27217102 C315.76870798 270.89717373 315.76870798 270.89717373 316.51872635 273.77224445 C317.01866256 275.6886664 317.51859899 277.60508829 318.01853561 279.52151012 C319.26951323 284.3169206 320.52048723 289.11233202 321.77145386 293.90774536 C324.00977624 302.48804085 326.24812198 311.06833024 328.4866066 319.64858341 C329.72128336 324.38118078 330.95593843 329.11378381 332.19058228 333.84638977 C332.43565269 334.78578588 332.68072311 335.725182 332.93321991 336.69304466 C336.38356781 349.9189807 339.83288754 363.14518456 343.28152466 376.37156677 C345.22393569 383.8211786 347.1666144 391.27072062 349.10935211 398.72024727 C350.6900365 404.78156418 352.27036593 410.84297348 353.85042191 416.90445423 C354.82783274 420.65368359 355.80559035 424.40282246 356.78343964 428.15193748 C357.23289167 429.87544174 357.68220321 431.59898263 358.13135529 433.32256508 C358.55057561 434.93123449 358.96998955 436.53985346 359.38961411 438.14841747 C359.78544275 439.66580757 360.18083474 441.18331166 360.57574844 442.70094013 C361.50897598 446.27854885 362.45670316 449.85118269 363.43484497 453.41679382 C363.62006084 454.09596957 363.80527672 454.77514532 363.99610519 455.47490215 C364.49614693 457.30289561 365.00156615 459.12941574 365.50741577 460.95581055 C366.5209988 465.20478586 367.57463038 469.88872612 366.26870728 474.14717102 C361.70201689 478.98586444 355.77861176 479.95296839 349.56167603 481.55342102 C347.63101049 482.06790099 345.70035858 482.58243297 343.77000332 483.09807587 C341.57420503 483.6829969 339.37702062 484.26252128 337.17977905 484.84199524 C331.76597345 486.27497162 326.36412286 487.75087146 320.96255493 489.22920227 C311.46811479 491.82679539 301.96908713 494.40685082 292.46618843 496.97332764 C286.93320404 498.46805499 281.40163928 499.96766181 275.87295532 501.47822571 C270.43489699 502.96387034 264.99363557 504.43718318 259.54991722 505.90194702 C257.49995945 506.45577113 255.45116006 507.01390316 253.40361977 507.57659912 C250.55480277 508.35866717 247.70212916 509.12478925 244.84805298 509.8874054 C244.0225444 510.11795624 243.19703583 510.34850708 242.34651184 510.58604431 C236.10380668 512.22755975 228.6941159 514.11873404 222.81866455 510.73699951 C220.53380522 506.91922086 219.54067045 503.00680395 218.46939087 498.70991516 C218.2203664 497.75817099 217.97134193 496.80642681 217.71477127 495.8258419 C216.89420781 492.67705398 216.09325206 489.52361611 215.29214478 486.36982727 C214.71712426 484.14838967 214.14079988 481.92728921 213.56323242 479.70651245 C212.37027156 475.11089247 211.18506463 470.51337926 210.00637817 465.91407776 C208.40259867 459.65905986 206.77815448 453.40962953 205.14468384 447.16230774 C202.31765153 436.34359043 199.5077207 425.52049138 196.70088959 414.69651794 C194.14813184 404.85513363 191.59082414 395.01492958 189.03433228 385.17451477 C188.74868282 384.07484249 188.46303337 382.97517021 188.16872787 381.84217453 C182.34883981 359.43813647 176.50154698 337.0413121 170.64370728 314.64717102 C170.17513964 312.85580972 169.70657275 311.06444823 169.23800659 309.27308655 C169.00603514 308.38625057 168.77406368 307.4994146 168.53506279 306.5857048 C167.36029527 302.09448652 166.18558159 297.60325416 165.01089478 293.11201477 C164.77829578 292.22275299 164.54569679 291.33349121 164.30604935 290.4172821 C160.5398277 276.01770863 156.78134496 261.61612638 153.02651978 247.21357727 C152.49693026 245.18239786 151.96733838 243.15121907 151.43774414 241.12004089 C149.20073359 232.53997916 146.96383643 223.95988825 144.72889328 215.37928772 C138.98214476 193.3232816 133.2028779 171.27601269 127.39956665 149.2348175 C126.70378678 146.59171843 126.00806646 143.94860368 125.31234741 141.30548859 C123.63133908 134.91932874 121.9501132 128.5332262 120.26870728 122.14717102 C120.26724206 123.36312164 120.26724206 123.36312164 120.26574725 124.60363692 C120.20751002 172.61907047 120.13373968 220.63445865 120.03972099 268.64983616 C120.02845246 274.4115615 120.01731407 280.17328708 120.0062561 285.93501282 C120.00405242 287.08209734 120.00184874 288.22918186 119.99957827 289.41102652 C119.96417935 307.99890518 119.93932987 326.58678381 119.91836026 345.17468371 C119.89661887 364.2391741 119.8635843 383.30362065 119.82000571 402.36807376 C119.79346034 414.13747057 119.77578624 425.90681271 119.76936124 437.67623798 C119.76411618 445.74048188 119.74792896 453.80465693 119.72304162 461.86886396 C119.70899634 466.52560474 119.69986707 471.18222215 119.70369911 475.83898544 C119.70709899 480.09964339 119.69680459 484.36003747 119.67547176 488.62064133 C119.67018543 490.16445262 119.66998819 491.70829118 119.67531165 493.25210234 C119.68180024 495.34667229 119.66995855 497.44036484 119.65346813 499.53486156 C119.65156953 500.69946382 119.64967093 501.86406607 119.64771479 503.0639593 C119.22552215 506.49848038 118.32378844 508.38828617 116.26870728 511.14717102 C113.94900309 512.30702311 112.61829612 512.27542998 110.03573799 512.2813921 C109.14247342 512.28584994 108.24920885 512.29030779 107.32887566 512.29490072 C106.34134706 512.29471635 105.35381846 512.29453199 104.33636475 512.29434204 C103.29208876 512.29801873 102.24781276 512.30169542 101.17189205 512.30548352 C97.64963417 512.31655464 94.12740576 512.32036997 90.60513306 512.32417297 C88.08919175 512.33043493 85.57325137 512.33708148 83.05731201 512.34408569 C75.49113799 512.36333721 67.92496914 512.37391665 60.35877687 512.38281348 C56.79788806 512.3871946 53.23700075 512.39256181 49.67611313 512.39780235 C37.84305441 512.41481435 26.00999663 512.42930977 14.17692757 512.43655109 C11.10547001 512.43846106 8.03401246 512.44038138 4.96255493 512.44233704 C4.19913779 512.44282078 3.43572066 512.44330452 2.64916967 512.44380292 C-9.72497879 512.45210791 -22.09903072 512.47745283 -34.47313701 512.50991771 C-47.17004093 512.54295867 -59.86689574 512.56099711 -72.56384289 512.56419533 C-79.6957384 512.56636305 -86.82749309 512.57514975 -93.95934677 512.60065651 C-100.66520718 512.62458405 -107.37076984 512.62820792 -114.07667923 512.61789513 C-116.54222201 512.61739742 -119.0077769 512.62378626 -121.47328186 512.63745117 C-124.83082465 512.65502371 -128.18744114 512.64813579 -131.54498291 512.63491821 C-133.01958365 512.65137208 -133.01958365 512.65137208 -134.5239743 512.66815835 C-135.42245436 512.65957746 -136.32093443 512.65099657 -137.24664116 512.64215565 C-138.40923747 512.64362086 -138.40923747 512.64362086 -139.59532058 512.64511567 C-142.73216683 511.91384405 -143.8521654 510.74755006 -145.73129272 508.14717102 C-146.23384005 504.86689764 -146.23384005 504.86689764 -146.2374506 500.87539005 C-146.24356396 500.13783011 -146.24967732 499.40027016 -146.25597593 498.64035991 C-146.2716457 496.15509174 -146.25868225 493.67078976 -146.24595642 491.18551636 C-146.25127863 489.39133362 -146.25834243 487.59715534 -146.26700348 485.80298561 C-146.28570101 480.86189631 -146.27930143 475.92110527 -146.26885045 470.98000324 C-146.26187853 465.65542956 -146.27784107 460.3309184 -146.29084778 455.00636292 C-146.31252685 444.57101501 -146.31235087 434.13577598 -146.30422223 423.70041294 C-146.29793074 415.22132513 -146.29905145 406.74226915 -146.30549431 398.26318169 C-146.30639596 397.05788512 -146.30729762 395.85258856 -146.3082266 394.61076785 C-146.31007774 392.16246763 -146.3119403 389.71416743 -146.31381416 387.26586723 C-146.33040628 364.28944834 -146.32166145 341.31309079 -146.30482858 318.33667558 C-146.29013072 297.30141014 -146.30475878 276.26628753 -146.33359874 255.23104049 C-146.36296906 233.64876726 -146.3739719 212.06656 -146.36441654 190.48426765 C-146.36339395 188.04450382 -146.36239935 185.60473998 -146.36143303 183.16497612 C-146.36095664 181.96447167 -146.36048025 180.76396721 -146.35998942 179.52708383 C-146.35782215 171.05595944 -146.36764604 162.58489728 -146.38220406 154.1137867 C-146.39969222 143.79338331 -146.39966067 133.47316206 -146.3768524 123.15276594 C-146.36567815 117.88428887 -146.36261958 112.61613312 -146.38115311 107.3476696 C-146.39788925 102.52823525 -146.39170046 97.70940417 -146.36693632 92.8900094 C-146.36202995 91.14308251 -146.36563106 89.39610759 -146.37842376 87.64922065 C-146.3945245 85.28034382 -146.38003859 82.91357363 -146.35770512 80.54479313 C-146.35743543 79.22743327 -146.35716574 77.91007342 -146.35688788 76.55279356 C-145.57271685 72.28391374 -144.09366128 70.80425826 -140.73129272 68.14717102 C-138.07017803 67.53193188 -138.07017803 67.53193188 -135.15675354 67.54589844 C-134.04762604 67.53902512 -132.93849854 67.53215179 -131.79576111 67.52507019 C-130.58879074 67.54304657 -129.38182037 67.56102295 -128.13827515 67.57954407 C-126.85982727 67.57881393 -125.58137939 67.5780838 -124.26419067 67.57733154 C-120.7663112 67.57589895 -117.26929179 67.60526168 -113.77161193 67.64020133 C-110.11346679 67.67149181 -106.45530117 67.67439766 -102.79704285 67.68032837 C-95.87319791 67.69585903 -88.94974847 67.73687653 -82.02607757 67.78707582 C-74.14224981 67.84299384 -66.258403 67.87046189 -58.37442625 67.89555299 C-42.15981701 67.94779343 -25.94560537 68.03572008 -9.73129272 68.14717102 C-9.74128548 66.99871452 -9.74128548 66.99871452 -9.7514801 65.82705688 C-9.81165234 58.60300686 -9.857298 51.37907878 -9.88672924 44.15484333 C-9.90236895 40.44099528 -9.92357581 36.72735474 -9.95761108 33.0136261 C-9.99026567 29.42801061 -10.00815849 25.8425944 -10.01592445 22.25684166 C-10.02145708 20.89051871 -10.03226109 19.52420637 -10.04848289 18.15796852 C-10.07033548 16.24082245 -10.0715188 14.3234748 -10.0718689 12.40620422 C-10.08186165 10.7707238 -10.08186165 10.7707238 -10.09205627 9.10220337 C-9.68091836 5.73455205 -8.73531169 3.86046485 -6.73129272 1.14717102 C-4.29555094 -0.07069987 -2.7231148 0.01336826 0 0 Z M8.26870728 18.14717102 C8.26870728 29.03717102 8.26870728 39.92717102 8.26870728 51.14717102 C38.95870728 51.14717102 69.64870728 51.14717102 101.26870728 51.14717102 C101.26870728 40.25717102 101.26870728 29.36717102 101.26870728 18.14717102 C70.57870728 18.14717102 39.88870728 18.14717102 8.26870728 18.14717102 Z M8.26870728 69.14717102 C8.26870728 77.06717102 8.26870728 84.98717102 8.26870728 93.14717102 C38.95870728 93.14717102 69.64870728 93.14717102 101.26870728 93.14717102 C101.26870728 85.22717102 101.26870728 77.30717102 101.26870728 69.14717102 C70.57870728 69.14717102 39.88870728 69.14717102 8.26870728 69.14717102 Z M-127.73129272 86.14717102 C-127.73129272 94.06717102 -127.73129272 101.98717102 -127.73129272 110.14717102 C-88.79129272 110.14717102 -49.85129272 110.14717102 -9.73129272 110.14717102 C-9.73129272 102.22717102 -9.73129272 94.30717102 -9.73129272 86.14717102 C-48.67129272 86.14717102 -87.61129272 86.14717102 -127.73129272 86.14717102 Z M238.81338501 90.05561829 C237.67568413 90.36062004 237.67568413 90.36062004 236.51499939 90.67178345 C233.99312756 91.34882119 231.47273068 92.03119206 228.95230103 92.71357727 C227.1805027 93.19037992 225.40861495 93.66685038 223.63664246 94.14300537 C218.94557404 95.40452641 214.25573319 96.67055397 209.56613159 97.93751526 C204.8967426 99.19821142 200.22624026 100.45476737 195.55581665 101.71162415 C187.54030467 103.86927618 179.52568185 106.03020611 171.51155663 108.1930027 C163.88061411 110.2522726 156.24866898 112.30780225 148.61636353 114.36201477 C147.53930649 114.65193802 146.46224945 114.94186127 145.35255432 115.24057007 C142.99128713 115.87616007 140.63000636 116.51169953 138.26870728 117.14717102 C140.66059967 127.62346394 143.2578048 138.00396991 146.18995667 148.34329224 C146.54594437 149.59857224 146.90193207 150.85385223 147.26870728 152.14717102 C160.35792342 149.17391198 173.31622533 145.79067913 186.27261353 142.28779602 C188.33333634 141.7327724 190.39412347 141.17798755 192.45497131 140.62342834 C197.819712 139.17914128 203.18358599 137.73166169 208.54727173 136.28346252 C214.04438099 134.79986421 219.54232341 133.31936 225.04019165 131.83857727 C235.78383714 128.94443 246.52656747 126.04690152 257.26870728 123.14717102 C257.12015894 121.71793243 256.96867184 120.2889991 256.81596375 118.86019897 C256.73192323 118.06442979 256.64788271 117.2686606 256.56129551 116.4487772 C256.17498502 113.40991745 255.45534003 110.53153317 254.63980103 107.58076477 C254.32720337 106.4367218 254.01460571 105.29267883 253.6925354 104.1139679 C253.36704712 102.94929993 253.04155884 101.78463196 252.70620728 100.58467102 C252.37685181 99.38519836 252.04749634 98.18572571 251.7081604 96.9499054 C250.90106006 94.01393169 250.08778199 91.07982224 249.26870728 88.14717102 C245.58074453 88.14717102 242.34219596 89.0947739 238.81338501 90.05561829 Z M8.26870728 111.14717102 C8.26870728 209.48717102 8.26870728 307.82717102 8.26870728 409.14717102 C38.95870728 409.14717102 69.64870728 409.14717102 101.26870728 409.14717102 C101.26870728 310.80717102 101.26870728 212.46717102 101.26870728 111.14717102 C70.57870728 111.14717102 39.88870728 111.14717102 8.26870728 111.14717102 Z M-127.73129272 128.14717102 C-127.73129272 212.62717102 -127.73129272 297.10717102 -127.73129272 384.14717102 C-88.79129272 384.14717102 -49.85129272 384.14717102 -9.73129272 384.14717102 C-9.73129272 299.66717102 -9.73129272 215.18717102 -9.73129272 128.14717102 C-48.67129272 128.14717102 -87.61129272 128.14717102 -127.73129272 128.14717102 Z M257.20298767 141.03848267 C256.35211075 141.26139984 255.50123383 141.48431702 254.62457275 141.71398926 C253.22119156 142.09337395 253.22119156 142.09337395 251.78945923 142.48042297 C250.80554703 142.74041077 249.82163483 143.00039856 248.8079071 143.26826477 C245.53908619 144.13385788 242.27307451 145.00960119 239.00698853 145.88545227 C236.73991141 146.48804007 234.47267179 147.09001681 232.20527649 147.69140625 C226.22050514 149.28062678 220.23808502 150.87853296 214.256073 152.47810364 C208.18687674 154.09920371 202.11535091 155.71152903 196.0440979 157.3249054 C187.15990276 159.68758434 178.27633688 162.05260233 169.39492798 164.42573547 C168.46946167 164.67258591 167.54399536 164.91943634 166.59048462 165.17376709 C161.80308128 166.45437289 157.02904173 167.7692508 152.26870728 169.14717102 C152.57953599 170.89746864 152.89243907 172.64739796 153.20620728 174.39717102 C153.38023071 175.37170227 153.55425415 176.34623352 153.73355103 177.35029602 C154.17275758 179.64571129 154.69037108 181.884669 155.26870728 184.14717102 C168.33694975 181.1689577 181.29082488 177.82384013 194.23745728 174.35810852 C195.24664719 174.08845905 196.2558371 173.81880959 197.29560852 173.54098892 C202.6078803 172.12153858 207.9193548 170.69915186 213.23013306 169.27412415 C218.71489912 167.80300743 224.20228661 166.34191908 229.69029999 164.88297081 C233.92261398 163.75598161 238.15299264 162.62186192 242.38285828 161.48572159 C244.40763662 160.94319379 246.43314043 160.40336619 248.45936584 159.86626816 C251.27094681 159.12027217 254.07965117 158.36428696 256.8878479 157.60566711 C257.72716354 157.38537338 258.56647919 157.16507965 259.43122864 156.93811035 C261.3947008 156.40201189 263.335179 155.78285406 265.26870728 155.14717102 C266.7503623 152.18386096 265.75228835 150.25013086 264.95620728 147.08467102 C264.69194946 146.00056946 264.42769165 144.9164679 264.15542603 143.79951477 C262.73668968 139.55580561 261.05416154 140.01272199 257.20298767 141.03848267 Z M265.20298767 173.15873718 C264.35211075 173.38302902 263.50123383 173.60732086 262.62457275 173.83840942 C261.22119156 174.2124012 261.22119156 174.2124012 259.78945923 174.59394836 C258.80554703 174.85408218 257.82163483 175.114216 256.8079071 175.38223267 C253.54029734 176.24680589 250.27364 177.11492219 247.00698853 177.98310852 C244.73980311 178.58385996 242.47256506 179.18441278 240.20527649 179.78477478 C235.44420258 181.04600572 230.68355901 182.3088439 225.92324829 183.57295227 C219.82855116 185.19139497 213.73314142 186.80713273 207.63744831 188.42181969 C201.82288246 189.96215532 196.00866969 191.50382159 190.19448853 193.04560852 C189.08673883 193.33924664 187.97898914 193.63288475 186.83767128 193.93542099 C183.68989625 194.77008687 180.54237244 195.60569315 177.39492798 196.44160461 C176.46946167 196.686884 175.54399536 196.93216339 174.59048462 197.18487549 C169.80176383 198.45783294 165.02793795 199.76792394 160.26870728 201.14717102 C163.34912843 214.59036958 166.75140246 227.94062363 170.22183228 241.28779602 C170.80107718 243.5211814 171.38017003 245.75460622 171.9591217 247.98806763 C173.49422538 253.90790955 175.03181411 259.82710315 176.57006454 265.74612808 C177.52066906 269.40472134 178.47057275 273.06349581 179.42022705 276.72233582 C186.90472058 305.55861774 194.40098499 334.3918292 201.95620728 363.20967102 C202.28536133 364.46598328 202.61451538 365.72229553 202.9536438 367.01667786 C203.85293886 370.44723717 204.75377062 373.87738767 205.65542603 377.30732727 C205.91134018 378.28321304 206.16725433 379.25909882 206.43092346 380.26455688 C206.6618721 381.14113449 206.89282074 382.0177121 207.13076782 382.92085266 C207.42711372 384.0477224 207.42711372 384.0477224 207.72944641 385.19735718 C208.19003475 386.86271355 208.72230509 388.50796447 209.26870728 390.14717102 C216.03812004 388.86668215 222.6952216 387.33481117 229.35244751 385.56513977 C230.30493881 385.31446747 231.25743011 385.06379517 232.23878479 384.80552673 C235.35247086 383.98508012 238.46494542 383.16014929 241.57730103 382.33467102 C243.75297877 381.75929144 245.92868417 381.18401639 248.10441589 380.60884094 C252.64632098 379.40728282 257.18756963 378.20327921 261.72842407 376.99775696 C267.55324083 375.45175755 273.3801337 373.91374352 279.20759487 372.37774658 C283.69263992 371.19431872 288.17632003 370.00578528 292.6596241 368.81578064 C294.80859033 368.24622959 296.95803826 367.67849288 299.10796928 367.1125946 C302.10366542 366.3234553 305.09739581 365.52725126 308.09072876 364.72920227 C308.98060486 364.49641571 309.87048096 364.26362915 310.787323 364.02378845 C311.60158249 363.80516144 312.41584198 363.58653442 313.254776 363.36128235 C314.3151742 363.08034477 314.3151742 363.08034477 315.39699459 362.79373169 C317.56208897 362.13403839 317.56208897 362.13403839 320.26870728 360.14717102 C316.22887196 344.56336256 312.18707644 328.98006297 308.14370728 313.39717102 C307.8418539 312.23384247 307.54000053 311.07051392 307.22900009 309.87193298 C298.38429787 275.78706246 289.51008846 241.71009063 280.58120728 207.64717102 C280.34124779 206.73174026 280.1012883 205.81630951 279.85405731 204.87313843 C276.99427329 193.96395779 274.1326117 183.05527069 271.26870728 172.14717102 C269.0561619 172.14717102 267.34328132 172.59133128 265.20298767 173.15873718 Z M315.68795776 380.18997192 C314.79904343 380.42123276 313.91012909 380.65249359 312.99427795 380.89076233 C312.03199783 381.14786987 311.06971771 381.40497742 310.07827759 381.6698761 C309.05502884 381.9381572 308.03178009 382.20643829 306.9775238 382.48284912 C303.59883811 383.3708353 300.22273367 384.26819306 296.84683228 385.16670227 C294.5022951 385.78745973 292.1577103 386.40803736 289.81307983 387.02844238 C284.90272298 388.3295886 279.99377346 389.63590307 275.08560181 390.94526672 C268.78138205 392.62615422 262.472687 394.28953581 256.16267776 395.94853687 C251.3221064 397.22407395 246.48464666 398.51110238 241.64800262 399.8014431 C239.32216768 400.41996376 236.99522025 401.03431616 234.66718292 401.64449501 C231.42196579 402.49641932 228.18141319 403.36422071 224.94155884 404.23628235 C223.97118179 404.4873172 223.00080475 404.73835205 222.00102234 404.99699402 C221.1233873 405.23671432 220.24575226 405.47643463 219.34152222 405.72341919 C218.574632 405.92713544 217.80774178 406.13085169 217.01761246 406.34074116 C216.44047375 406.60686301 215.86333504 406.87298487 215.26870728 407.14717102 C213.96211752 411.0669403 214.83186958 413.03131666 215.92105103 417.00263977 C216.10003433 417.66427628 216.27901764 418.32591278 216.46342468 419.00759888 C217.03649674 421.11885712 217.62117934 423.22669797 218.20620728 425.33467102 C218.59695052 426.76610187 218.9869338 428.19774041 219.37612915 429.6295929 C220.33151743 433.13790439 221.29734366 436.64324467 222.26870728 440.14717102 C229.03812004 438.86668215 235.6952216 437.33481117 242.35244751 435.56513977 C243.30493881 435.31446747 244.25743011 435.06379517 245.23878479 434.80552673 C248.35247086 433.98508012 251.46494542 433.16014929 254.57730103 432.33467102 C256.75297877 431.75929144 258.92868417 431.18401639 261.10441589 430.60884094 C265.64632098 429.40728282 270.18756963 428.20327921 274.72842407 426.99775696 C280.55324083 425.45175755 286.3801337 423.91374352 292.20759487 422.37774658 C296.69263992 421.19431872 301.17632003 420.00578528 305.6596241 418.81578064 C307.80859033 418.24622959 309.95803826 417.67849288 312.10796928 417.1125946 C315.10366542 416.3234553 318.09739581 415.52725126 321.09072876 414.72920227 C322.42554291 414.38002243 322.42554291 414.38002243 323.787323 414.02378845 C324.60158249 413.80516144 325.41584198 413.58653442 326.254776 413.36128235 C326.96170814 413.17399063 327.66864027 412.98669891 328.39699459 412.79373169 C330.56208897 412.13403839 330.56208897 412.13403839 333.26870728 410.14717102 C330.62870728 399.91717102 327.98870728 389.68717102 325.26870728 379.14717102 C321.47347212 379.14717102 319.19131446 379.26632581 315.68795776 380.18997192 Z M-127.73129272 402.14717102 C-127.73129272 410.06717102 -127.73129272 417.98717102 -127.73129272 426.14717102 C-88.79129272 426.14717102 -49.85129272 426.14717102 -9.73129272 426.14717102 C-9.73129272 418.22717102 -9.73129272 410.30717102 -9.73129272 402.14717102 C-48.67129272 402.14717102 -87.61129272 402.14717102 -127.73129272 402.14717102 Z M8.26870728 427.14717102 C8.26870728 432.42717102 8.26870728 437.70717102 8.26870728 443.14717102 C38.95870728 443.14717102 69.64870728 443.14717102 101.26870728 443.14717102 C101.26870728 437.86717102 101.26870728 432.58717102 101.26870728 427.14717102 C70.57870728 427.14717102 39.88870728 427.14717102 8.26870728 427.14717102 Z M328.68795776 430.18997192 C327.79904343 430.42123276 326.91012909 430.65249359 325.99427795 430.89076233 C325.03199783 431.14786987 324.06971771 431.40497742 323.07827759 431.6698761 C322.05502884 431.9381572 321.03178009 432.20643829 319.9775238 432.48284912 C316.59883811 433.3708353 313.22273367 434.26819306 309.84683228 435.16670227 C307.5022951 435.78745973 305.1577103 436.40803736 302.81307983 437.02844238 C297.90272298 438.3295886 292.99377346 439.63590307 288.08560181 440.94526672 C281.78138205 442.62615422 275.472687 444.28953581 269.16267776 445.94853687 C264.3221064 447.22407395 259.48464666 448.51110238 254.64800262 449.8014431 C252.32216768 450.41996376 249.99522025 451.03431616 247.66718292 451.64449501 C244.42196579 452.49641932 241.18141319 453.36422071 237.94155884 454.23628235 C236.97118179 454.4873172 236.00080475 454.73835205 235.00102234 454.99699402 C234.1233873 455.23671432 233.24575226 455.47643463 232.34152222 455.72341919 C231.574632 455.92713544 230.80774178 456.13085169 230.01761246 456.34074116 C229.44047375 456.60686301 228.86333504 456.87298487 228.26870728 457.14717102 C227.0030642 460.94410026 227.90850576 463.49721448 228.92105103 467.22138977 C229.10003433 467.90522232 229.27901764 468.58905487 229.46342468 469.29360962 C230.03657534 471.47610186 230.62122339 473.65532401 231.20620728 475.83467102 C231.59694262 477.31428787 231.98692582 478.79410357 232.37612915 480.27412415 C233.33161127 483.90083766 234.29741565 487.524661 235.26870728 491.14717102 C238.47395805 492.1869551 240.48498952 492.07997077 243.72247314 491.21116638 C244.60856766 490.97838989 245.49466217 490.7456134 246.40760803 490.50578308 C247.37191238 490.24193817 248.33621674 489.97809326 249.32974243 489.70625305 C250.86198708 489.29923157 250.86198708 489.29923157 252.42518616 488.88398743 C255.80526397 487.98357369 259.18146508 487.0694346 262.55776978 486.15498352 C264.90117916 485.5274044 267.24479993 484.90061411 269.58862305 484.27458191 C274.50114022 482.96040151 279.4119325 481.64002442 284.32144165 480.31465149 C290.62573209 478.61276491 296.93269947 476.92108349 303.24079323 475.23335457 C309.24315003 473.62711684 315.24431492 472.01644985 321.24526978 470.40498352 C322.39652973 470.09609318 323.54778969 469.78720284 324.73393631 469.46895218 C327.97876789 468.59734253 331.22275397 467.72266151 334.46646118 466.84687805 C335.434814 466.5870816 336.40316681 466.32728516 337.40086365 466.05961609 C338.28131851 465.82119995 339.16177338 465.58278381 340.06890869 465.33714294 C340.83617594 465.13028429 341.60344318 464.92342564 342.39396095 464.71029854 C344.33382505 464.18586295 344.33382505 464.18586295 346.26870728 463.14717102 C344.96770405 455.29364856 343.20464103 447.64626366 341.14370728 439.95967102 C340.86655884 438.91230774 340.5894104 437.86494446 340.30386353 436.7858429 C339.62924877 434.23859065 338.9508208 431.69242342 338.26870728 429.14717102 C334.86730937 429.04702828 331.97487635 429.32338886 328.68795776 430.18997192 Z M-127.73129272 444.14717102 C-127.73129272 460.64717102 -127.73129272 477.14717102 -127.73129272 494.14717102 C-88.79129272 494.14717102 -49.85129272 494.14717102 -9.73129272 494.14717102 C-9.73129272 477.64717102 -9.73129272 461.14717102 -9.73129272 444.14717102 C-48.67129272 444.14717102 -87.61129272 444.14717102 -127.73129272 444.14717102 Z M8.26870728 461.14717102 C8.26870728 472.03717102 8.26870728 482.92717102 8.26870728 494.14717102 C38.95870728 494.14717102 69.64870728 494.14717102 101.26870728 494.14717102 C101.26870728 483.25717102 101.26870728 472.36717102 101.26870728 461.14717102 C70.57870728 461.14717102 39.88870728 461.14717102 8.26870728 461.14717102 Z " fill="#000000" transform="translate(145.73129272460938,-0.1471710205078125)"/>
<path d="M0 0 C0.70427124 -0.0049649 1.40854248 -0.00992981 2.13415527 -0.01504517 C4.46924815 -0.02967629 6.80427307 -0.03647087 9.1394043 -0.04199219 C10.76124575 -0.04774353 12.38308718 -0.05350127 14.00492859 -0.05926514 C17.40872515 -0.06977829 20.81249807 -0.07561867 24.21630859 -0.07910156 C28.57435485 -0.08458236 32.93208805 -0.1086 37.2900362 -0.13707352 C40.64180915 -0.15571469 43.99350697 -0.16090631 47.34532738 -0.16243744 C48.95166927 -0.16546193 50.55800991 -0.17348364 52.16430092 -0.18662262 C54.41446209 -0.20371202 56.66386243 -0.20179603 58.9140625 -0.1953125 C60.19376419 -0.19895813 61.47346588 -0.20260376 62.79194641 -0.20635986 C66.44702867 0.19350478 68.28752741 0.88399618 71.15112305 3.16113281 C73.69265282 6.58543634 73.41074056 10.08180333 73.42578125 14.23706055 C73.43089218 14.94162384 73.43600311 15.64618713 73.44126892 16.37210083 C73.45514569 18.69639631 73.45420965 21.02039463 73.4519043 23.34472656 C73.45579226 24.96371063 73.46012714 26.58269368 73.46488953 28.20167542 C73.47234759 31.59354968 73.47206346 34.98531985 73.46679688 38.37719727 C73.4610025 42.71952065 73.47793422 47.06141745 73.50114155 51.40367031 C73.5158876 54.74687686 73.51674942 58.08998088 73.51363182 61.43321419 C73.51414459 63.03396512 73.51937398 64.63472186 73.52944374 66.23544121 C73.54180819 68.4758447 73.53501719 70.71541988 73.5234375 72.95581055 C73.52406693 74.22947983 73.52469635 75.50314911 73.52534485 76.81541443 C73.12320754 80.41071056 72.32189261 82.29858568 70.15112305 85.16113281 C67.21612655 86.62863106 64.24589438 86.33429037 61.02685547 86.35400391 C60.29332352 86.3621814 59.55979156 86.37035889 58.80403137 86.37878418 C56.37155984 86.40363803 53.93914667 86.42015412 51.5065918 86.43457031 C50.67619196 86.43989399 49.84579212 86.44521767 48.99022865 86.45070267 C44.59489489 86.47743429 40.19958954 86.49680907 35.80419922 86.51123047 C31.26435405 86.52787816 26.72523485 86.57265623 22.18566418 86.62360191 C18.69492255 86.65725882 15.20435358 86.66880613 11.71346474 86.67445755 C10.0400977 86.68117444 8.3667422 86.69640805 6.69353294 86.72034836 C4.34961174 86.75197149 2.00765276 86.75204207 -0.33642578 86.74462891 C-1.02596344 86.76103424 -1.7155011 86.77743958 -2.42593384 86.79434204 C-6.03639146 86.7476669 -7.80756601 86.19030235 -10.77896118 84.09220886 C-13.28747985 80.54005514 -13.55150902 77.87953397 -13.47998047 73.68041992 C-13.48713577 72.9448436 -13.49429108 72.20926727 -13.50166321 71.45140076 C-13.5185168 69.02978648 -13.49917159 66.61003218 -13.4777832 64.18847656 C-13.47861213 62.50126492 -13.48107242 60.81405337 -13.48509216 59.12684631 C-13.48794773 55.59530251 -13.47327158 52.06439379 -13.44580078 48.53295898 C-13.41169168 44.00764836 -13.41774685 39.48347118 -13.43646336 34.95810604 C-13.44703361 31.47590189 -13.43809585 27.99396133 -13.42307854 24.51178169 C-13.41789817 22.84323471 -13.41837678 21.1746602 -13.42462349 19.50611687 C-13.4300773 17.17429299 -13.40969917 14.84409026 -13.38232422 12.51245117 C-13.3888501 11.82403137 -13.39537598 11.13561157 -13.40209961 10.42633057 C-13.33523318 7.07499153 -13.05537384 5.42050176 -10.9405365 2.76417542 C-7.17806583 -0.11937262 -4.72459414 0.02525575 0 0 Z M5.15112305 18.16113281 C5.15112305 34.66113281 5.15112305 51.16113281 5.15112305 68.16113281 C21.65112305 68.16113281 38.15112305 68.16113281 55.15112305 68.16113281 C55.15112305 51.66113281 55.15112305 35.16113281 55.15112305 18.16113281 C38.65112305 18.16113281 22.15112305 18.16113281 5.15112305 18.16113281 Z " fill="#000000" transform="translate(46.848876953125,152.8388671875)"/>
</svg>
