<?xml version="1.0" encoding="UTF-8"?>
<svg version="1.1" xmlns="http://www.w3.org/2000/svg" width="512" height="512">
<path d="M0 0 C6.9633459 3.61341193 12.18449616 8.52149772 14.68359375 16.14453125 C16.47710569 26.11054088 14.64641336 33.61813615 9.3125 42 C3.46394138 47.84855862 -2.42788286 50.35891147 -10.625 50.5625 C-18.63297689 50.49413922 -25.15698856 47.86994168 -30.9375 42.25 C-32.71311257 39.9726908 -34.32282055 37.64895232 -35.9375 35.25 C-43.34888117 38.31677842 -47.63417667 42.20894844 -50.9967556 49.56828594 C-51.96231839 52.32074804 -52.19710307 54.35227301 -52.2159729 57.25508118 C-52.22713638 58.23799637 -52.23829987 59.22091156 -52.24980164 60.23361206 C-52.25196182 61.30032135 -52.25412201 62.36703064 -52.25634766 63.46606445 C-52.27141609 65.16428093 -52.27141609 65.16428093 -52.28678894 66.89680481 C-52.31765781 70.63562517 -52.33466666 74.37437379 -52.3515625 78.11328125 C-52.37027113 80.70689004 -52.38984432 83.30049273 -52.4102478 85.89408875 C-52.45635876 92.02085849 -52.49375545 98.14762456 -52.52692068 104.27447623 C-52.5651752 111.25154189 -52.6145766 118.22851477 -52.66490483 125.20550215 C-52.76815508 139.55360415 -52.85596649 153.90175855 -52.9375 168.25 C-44.6875 168.25 -36.4375 168.25 -27.9375 168.25 C-27.7828125 173.2 -27.7828125 173.2 -27.625 178.25 C-26.70628993 200.03954639 -21.74417413 219.68798557 -5.33984375 235.2421875 C10.62420644 248.58449937 30.21256214 254.50090487 51.02685547 252.9765625 C69.6027381 251.18395621 87.05361752 243.54166646 99.53125 229.46484375 C114.48489196 210.54848667 115.56125498 191.39369245 116.0625 168.25 C121.6725 168.25 127.2825 168.25 133.0625 168.25 C133.02440692 153.55880409 132.96525225 138.86785307 132.87859726 124.1768589 C132.8388801 117.35471862 132.80645066 110.53269246 132.79150391 103.71044922 C132.77704993 97.12265301 132.74185512 90.53517465 132.69419098 83.94752121 C132.67939059 81.43825741 132.67145976 78.92894308 132.67061615 76.41963577 C132.66824084 72.89607573 132.64111332 69.3734891 132.60839844 65.85009766 C132.6134288 64.82006622 132.61845917 63.79003479 132.62364197 62.72879028 C132.51318173 55.00400977 131.06559784 47.9100255 126.0625 41.8125 C125.0725 41.0390625 125.0725 41.0390625 124.0625 40.25 C123.4025 39.71375 122.7425 39.1775 122.0625 38.625 C120.12467255 37.29274363 118.19301686 36.23916854 116.0625 35.25 C115.66160156 35.84167969 115.26070312 36.43335938 114.84765625 37.04296875 C109.93814406 43.86730202 104.49668972 48.59623731 96.0625 50.25 C87.60399979 51.09099811 80.40594106 49.46120775 73.75 44.0625 C67.70820015 38.29751568 65.42084911 32.3595873 64.97265625 24.05078125 C65.22073623 16.31715754 67.76947955 10.52512208 73.09375 4.94140625 C79.03034743 -0.1588848 85.83586961 -2.12431751 93.5546875 -2.03515625 C100.04867139 -1.29674375 106.44241895 1.62991895 111.0625 6.25 C113.26991542 9.25453766 114.8836961 11.71358831 116.0625 15.25 C118.31814907 16.28760994 118.31814907 16.28760994 121.0625 17.0625 C133.35348393 21.2656344 141.5950417 28.95559618 147.80078125 40.2109375 C151.02414193 47.97494559 151.34640006 55.60034582 151.28955078 63.92016602 C151.28984283 65.05289444 151.29013489 66.18562286 151.29043579 67.35267639 C151.28905048 71.0698329 151.27352684 74.78678507 151.2578125 78.50390625 C151.25407953 81.09179068 151.2512339 83.67967652 151.24923706 86.26756287 C151.2423998 92.36593095 151.22666188 98.46421562 151.20653808 104.56255239 C151.18411242 111.5106235 151.17316896 118.45869823 151.16314721 125.40679657 C151.14229352 139.68790424 151.10675215 153.96894693 151.0625 168.25 C156.6725 168.25 162.2825 168.25 168.0625 168.25 C168.13225667 172.67567288 168.19170639 177.09935682 168.22729492 181.52514648 C168.24216572 183.02325992 168.26246866 184.5213316 168.28881836 186.01928711 C168.81188677 216.57263619 157.21587066 244.2108098 136.0625 266.25 C135.30324219 267.07242187 134.54398438 267.89484375 133.76171875 268.7421875 C118.99583879 284.25723649 98.82942685 295.94661814 78.0625 301.25 C77.0725 301.25 76.0825 301.25 75.0625 301.25 C75.07821045 302.23842896 75.07821045 302.23842896 75.09423828 303.24682617 C75.59973729 339.88910585 75.59973729 339.88910585 66.16796875 350.3515625 C60.8546079 355.28902593 56.36243186 357.36041914 49.0625 357.25 C49.55779719 390.22996133 56.10711011 420.52113774 80.22924805 444.61425781 C90.87723691 454.73278866 104.07467294 461.10932483 118.0625 465.25 C118.85140625 465.49492187 119.6403125 465.73984375 120.453125 465.9921875 C135.06862496 469.72271721 150.87297415 467.55941156 165.0625 463.25 C166.44115234 462.83427734 166.44115234 462.83427734 167.84765625 462.41015625 C190.74513965 454.33088162 207.71142624 434.43791932 218.0625 413.25 C224.99085813 397.50216862 226.51342912 381.74865105 226.44726562 364.81274414 C226.4513826 363.02517859 226.45685005 361.23761573 226.46354675 359.45005798 C226.47517464 355.63395501 226.47779122 351.81799627 226.47319031 348.00187874 C226.46631471 341.95116584 226.48236047 335.90063879 226.50158691 329.84996033 C226.53926216 317.00415008 226.55221408 304.15835701 226.5625 291.3125 C226.57360863 277.44189867 226.58915158 263.57138474 226.63321257 249.7008428 C226.65142467 243.70261333 226.65551355 237.70460078 226.64827728 231.70635045 C226.64674144 227.95685602 226.65762611 224.20746747 226.67165565 220.45800209 C226.67561382 218.73808444 226.67461081 217.0181459 226.66788292 215.29823685 C226.57423702 189.33677885 232.34674942 166.26275759 250.97265625 147.11328125 C264.20928753 134.31372876 282.31266197 127.39065881 300.5625 126.875 C317.23314 127.40422667 333.54316496 132.92905345 346.0625 144.25 C346.93261719 145.02859375 347.80273438 145.8071875 348.69921875 146.609375 C367.70693875 164.55390739 373.08429832 186.4661306 373.86035156 211.71533203 C373.93605735 214.56012254 374.00441508 217.40480154 374.0625 220.25 C374.77607666 220.43175781 375.48965332 220.61351562 376.22485352 220.80078125 C393.44975537 225.31878829 407.38632306 233.68733381 416.59765625 249.33984375 C424.24379194 264.53016665 427.28319632 281.78921555 422.4375 298.4375 C421.70204145 300.39702624 420.91229999 302.33728404 420.0625 304.25 C419.66160156 305.17554688 419.26070313 306.10109375 418.84765625 307.0546875 C411.17029968 322.76545197 398.17178807 332.27732298 382.10546875 338.3046875 C366.86002608 343.0407557 349.70347684 340.92494177 335.625 333.875 C320.44945631 325.65523694 311.34351876 312.97656598 305.9140625 296.8359375 C301.69031971 280.90971469 303.89582271 264.87430575 311.3125 250.3125 C319.4839838 236.33133257 331.08693733 227.66054629 346.08984375 222.02734375 C349.2035034 221.21312789 351.85858764 221.1019802 355.0625 221.25 C354.74291519 198.03877561 352.93267302 177.84189165 336.0625 160.25 C325.46016073 151.20008312 312.37166207 145.66793217 298.33984375 146.0625 C283.84002102 147.25631045 271.91254457 153.2023872 261.734375 163.63671875 C250.66752198 176.75220678 245.88745704 192.10545755 245.93119812 209.05607605 C245.92908241 209.7994682 245.92696669 210.54286035 245.92478687 211.30877954 C245.91883826 213.77772695 245.91978335 216.24662251 245.9206543 218.71557617 C245.91761914 220.49546901 245.9140967 222.27536108 245.91012573 224.05525208 C245.90225984 227.8801755 245.89710036 231.7050897 245.89383507 235.53001976 C245.88789417 241.59794802 245.87132194 247.66581856 245.85249329 253.73371887 C245.8461562 255.81733605 245.83983058 257.90095326 245.83351612 259.9845705 C245.83035031 261.02797458 245.8271845 262.07137866 245.82392275 263.14640105 C245.7819896 277.26157145 245.74891778 291.37671485 245.73657227 305.49194336 C245.72814713 315.02718085 245.7054912 324.56227485 245.6672166 334.09744054 C245.64760098 339.13106511 245.63500248 344.16447592 245.64005089 349.1981411 C245.67956986 397.56781565 245.67956986 397.56781565 237.375 416.625 C237.03251221 417.4404126 236.69002441 418.2558252 236.3371582 419.09594727 C230.56219546 432.43936378 222.83154531 443.54499825 213.0625 454.25 C212.40765625 454.98734375 211.7528125 455.7246875 211.078125 456.484375 C196.64168302 471.90792412 176.57117595 481.31233422 156.0625 485.25 C155.15628906 485.43949219 154.25007812 485.62898438 153.31640625 485.82421875 C126.59931107 489.3202132 99.2240932 482.97788999 77.36669922 467.01123047 C52.30481939 447.70769379 37.21916457 420.67943259 31.75 389.6875 C30.38949193 378.96873083 30.89741767 368.03114629 31.0625 357.25 C30.44979248 357.19666504 29.83708496 357.14333008 29.20581055 357.08837891 C28.39926025 357.01022949 27.59270996 356.93208008 26.76171875 356.8515625 C25.56421997 356.74062256 25.56421997 356.74062256 24.3425293 356.62744141 C18.80106334 355.71009411 14.87267602 351.55948741 11.44921875 347.36328125 C4.58882029 336.9084205 4.90585446 324.7019195 5 312.6875 C5.00451172 311.58341797 5.00902344 310.47933594 5.01367188 309.34179688 C5.0253486 306.644473 5.04172475 303.94726653 5.0625 301.25 C4.4327124 301.14333008 3.8029248 301.03666016 3.15405273 300.92675781 C-2.55820705 299.88435503 -7.61067657 298.43189216 -12.875 296 C-13.56102295 295.6898999 -14.2470459 295.3797998 -14.95385742 295.06030273 C-29.34365854 288.47108459 -41.41820393 280.11000409 -52.9375 269.25 C-53.73800781 268.53714844 -54.53851563 267.82429688 -55.36328125 267.08984375 C-73.45568034 250.2670867 -85.01914449 225.65357247 -87.9375 201.25 C-88.01600435 198.60566963 -88.05504754 195.99032589 -88.03515625 193.34765625 C-88.0337413 192.6250914 -88.03232635 191.90252655 -88.03086853 191.1580658 C-88.02532225 188.87616635 -88.0127802 186.59436921 -88 184.3125 C-87.99497804 182.75455872 -87.99041636 181.19661588 -87.98632812 179.63867188 C-87.97622623 175.84237789 -87.95664102 172.04630191 -87.9375 168.25 C-82.3275 168.25 -76.7175 168.25 -70.9375 168.25 C-70.94638245 166.78358566 -70.95526489 165.31717133 -70.9644165 163.80632019 C-71.04563285 149.96190479 -71.10576898 136.11750795 -71.14474869 122.27291393 C-71.16532196 115.1558846 -71.19334144 108.03903382 -71.23925781 100.92211914 C-71.27928701 94.71470983 -71.30497081 88.50742991 -71.31385398 82.29989511 C-71.31904181 79.01686142 -71.33326351 75.73428128 -71.36042023 72.45134544 C-71.38961262 68.77487965 -71.39344923 65.09917115 -71.39160156 61.42260742 C-71.40598267 60.34941757 -71.42036377 59.27622772 -71.43518066 58.17051697 C-71.36656194 45.48661041 -66.60491439 35.04861575 -57.75390625 26.0234375 C-52.0008872 20.97891834 -46.28966199 18.6649731 -38.94140625 16.6484375 C-35.10228424 14.86117394 -34.46492573 13.11113193 -32.9375 9.25 C-26.16884294 -1.42365152 -11.35447812 -4.86620491 0 0 Z M-16.8125 18.375 C-19.13832135 21.08128667 -19.13832135 21.08128667 -19.5 24.3125 C-18.80105315 27.96255579 -17.95547955 29.10564611 -14.9375 31.25 C-12.03398876 32.41448881 -12.03398876 32.41448881 -8.9375 32.25 C-5.80955468 30.44274271 -4.30349086 29.20157623 -3 25.8125 C-2.9251992 22.74566719 -3.48202994 20.94261962 -4.9375 18.25 C-9.47826024 15.2228265 -12.37174585 15.09270345 -16.8125 18.375 Z M84.0625 20.25 C82.98225342 22.65110217 82.98225342 22.65110217 83.0625 25.25 C84.68405629 28.73634601 85.82703292 30.09302194 89.0625 32.25 C92.57855497 32.10038064 94.5578789 31.60854657 97.4375 29.5625 C99.26050487 27.30480213 99.26050487 27.30480213 99.625 24.3125 C98.86307749 20.16425523 97.42594489 18.73602449 94.0625 16.25 C89.20277604 15.35739764 86.96410684 16.27372396 84.0625 20.25 Z M-69.9375 186.25 C-70.91780377 207.57160696 -63.73815393 227.28800275 -50.9375 244.25 C-50.54079102 244.7769043 -50.14408203 245.30380859 -49.73535156 245.84667969 C-30.91917477 270.44346626 -3.21057215 283.51922376 26.96875 287.8046875 C60.1180939 291.78403847 90.472151 280.48427644 116.40234375 260.44140625 C134.39678952 245.58262628 146.76682858 222.17830152 150.0625 199.25 C150.33116959 194.84728538 150.26549745 190.66519462 150.0625 186.25 C144.7825 186.25 139.5025 186.25 134.0625 186.25 C133.69125 190.024375 133.69125 190.024375 133.3125 193.875 C130.76734521 216.39648437 121.11385816 236.42127483 103.7421875 251.1953125 C83.24129385 266.91465661 57.53056594 273.95216948 31.84375 270.7890625 C7.20162985 267.18227171 -13.40307685 256.05470831 -28.9375 236.25 C-39.65355218 220.79714214 -43.73173737 204.57479727 -45.9375 186.25 C-53.8575 186.25 -61.7775 186.25 -69.9375 186.25 Z M332.21875 252.125 C324.98052456 260.98813319 321.02849774 272.83767871 322.0625 284.25 C324.30381948 298.00182462 330.65702251 307.63053927 341.8125 315.828125 C352.04657737 322.29549334 363.296453 323.66500411 375 321.1875 C385.41146521 318.31398906 393.89776944 312.09869489 400.0625 303.25 C406.09703837 292.15909033 408.36375683 280.1475318 405.15625 267.74609375 C400.5033182 256.06902453 392.62546047 246.59226316 381.21484375 241.07421875 C363.36622831 234.23926801 345.49305035 238.6257115 332.21875 252.125 Z M23.0625 305.25 C22.21326926 321.54312864 22.21326926 321.54312864 26.453125 336.96875 C30.57594985 340.5731358 34.77033662 339.97756131 40.0625 339.875 C41.06023437 339.89433594 42.05796875 339.91367187 43.0859375 339.93359375 C48.90236721 339.97010082 48.90236721 339.97010082 53.671875 336.96875 C58.6126927 327.30917382 57.21076878 315.77708347 57.0625 305.25 C45.8425 305.25 34.6225 305.25 23.0625 305.25 Z " fill="#000000" transform="translate(87.9375,13.75)"/>
<path d="M0 0 C6.11027968 3.8732526 9.86801764 9.09237715 12 16 C13.16230154 25.22092554 12.04503191 32.43245214 6.875 40.1875 C2.26233108 45.31891892 -4.41999814 48.50985945 -11.2265625 49.23828125 C-19.6509879 49.49897194 -26.68278415 47.52173075 -32.9375 41.6875 C-37.92467706 36.2074725 -39.5855945 30.14405495 -40.3125 22.875 C-39.66816321 14.88522381 -37.06445219 7.80998329 -30.96875 2.4375 C-21.89474616 -4.18796312 -10.0170831 -5.70236549 0 0 Z M-21 19 C-22.25331017 22.25860644 -22.23279906 23.47313898 -20.8125 26.6875 C-18.91619967 29.10691767 -17.93118128 30.13788786 -15 31 C-11.80830587 30.84041529 -10.27522616 30.20084071 -7.6875 28.3125 C-5.79589614 26.06594359 -5.79589614 26.06594359 -5.4375 23.0625 C-6.19942251 18.91425523 -7.63655511 17.48602449 -11 15 C-15.85972396 14.10739764 -18.09839316 15.02372396 -21 19 Z " fill="#000000" transform="translate(466,271)"/>
</svg>
