<?xml version="1.0" encoding="UTF-8"?>
<svg version="1.1" xmlns="http://www.w3.org/2000/svg" width="512" height="512">
<path d="M0 0 C3.00849666 1.56104191 5.89277023 3.25562461 8.78808594 5.01757812 C11.00303751 6.30999162 13.21922292 7.60029245 15.43652344 8.88867188 C16.56799805 9.55366699 17.69947266 10.21866211 18.86523438 10.90380859 C73.48358379 42.63854999 133.32768592 65.7511223 193.77783203 83.62890625 C195.91134084 84.26393834 198.03756837 84.91889461 200.16308594 85.58007812 C201.27425781 85.91394531 202.38542969 86.2478125 203.53027344 86.59179688 C206.85030694 88.15776169 208.2791877 89.85119962 210.28808594 92.89257812 C211.26171942 95.81347857 211.4159105 97.68067817 211.42179871 100.72102356 C211.42606369 101.7167337 211.43032867 102.71244385 211.4347229 103.73832703 C211.43426971 104.83055069 211.43381653 105.92277435 211.43334961 107.0480957 C211.43838753 108.77600342 211.43838753 108.77600342 211.44352722 110.53881836 C211.4530692 114.37159288 211.45498352 118.20432368 211.45605469 122.03710938 C211.45845672 124.04000203 211.46086071 126.0428947 211.4635151 128.04578704 C211.4716728 134.37126681 211.47409907 140.69673237 211.47338867 147.0222168 C211.47279524 153.46837275 211.48319444 159.914443 211.49913234 166.3605774 C211.51241905 171.94068237 211.51756357 177.52076023 211.51693326 183.1008808 C211.51668328 186.41172508 211.52022743 189.72243546 211.53011131 193.0332737 C211.59388965 216.65327176 211.32821363 240.77132635 207.10058594 264.08007812 C206.88700439 265.30090088 206.67342285 266.52172363 206.45336914 267.77954102 C195.35102279 328.79325085 167.10744916 388.37999507 122.26855469 431.91210938 C120.30993738 433.87072668 118.51604216 435.90524213 116.72558594 438.01757812 C113.85726671 441.35298603 110.78643368 444.21974247 107.43261719 447.06054688 C105.12270364 449.033861 102.89720432 451.0839715 100.66308594 453.14257812 C73.45037197 477.56002842 39.68598201 499.7586931 4.28808594 509.89257812 C3.64484375 510.08980469 3.00160156 510.28703125 2.33886719 510.49023438 C-9.64848198 512.84203812 -20.61246219 510.24070451 -31.71191406 505.89257812 C-32.35596191 505.64088867 -33.00000977 505.38919922 -33.66357422 505.12988281 C-51.39059624 498.04620224 -67.97290932 488.63944101 -83.71191406 477.89257812 C-84.62166992 477.27431152 -84.62166992 477.27431152 -85.54980469 476.64355469 C-98.83590353 467.55422246 -111.27804609 457.37444655 -123.03222656 446.38476562 C-125.48651756 444.10220345 -127.99023393 441.89795454 -130.52441406 439.70507812 C-134.00624781 436.63102671 -137.04503406 433.35900032 -140.04003906 429.81445312 C-141.6463304 427.96796869 -143.3250902 426.2772479 -145.08691406 424.58007812 C-202.24748005 368.05322129 -226.32171571 282.35481109 -226.98657227 204.29101562 C-227.01348975 199.28313441 -227.01577825 194.27551985 -227.01269531 189.26757812 C-227.01502239 187.25268067 -227.01852621 185.23778739 -227.02210206 183.22289181 C-227.03301472 176.95114773 -227.0337316 170.67946369 -227.02758789 164.40771484 C-227.02147847 157.96899052 -227.03407446 151.53048085 -227.05515796 145.09179306 C-227.07277223 139.50386559 -227.07877808 133.91600672 -227.07552022 128.32805252 C-227.07371679 125.01499873 -227.07759165 121.7021342 -227.09023476 118.38909912 C-227.10254642 114.72211732 -227.09584528 111.05564524 -227.08422852 107.38867188 C-227.09569412 105.76651512 -227.09569412 105.76651512 -227.10739136 104.11158752 C-227.06312047 97.80112678 -226.68229572 92.89196408 -222.01171875 88.17578125 C-218.79884536 86.38312068 -215.42845904 85.38079728 -211.91503906 84.36132812 C-211.14204971 84.12925156 -210.36906036 83.89717499 -209.57264709 83.6580658 C-207.90692884 83.15804054 -206.240228 82.66127926 -204.57266235 82.16744995 C-200.13183991 80.8494109 -195.70102577 79.49869238 -191.27050781 78.14648438 C-190.3743425 77.87312759 -189.47817719 77.59977081 -188.55485535 77.31813049 C-133.15962445 60.34194433 -77.73559404 37.54958167 -28.06347656 7.49023438 C-27.12487793 6.93053955 -26.1862793 6.37084473 -25.21923828 5.79418945 C-23.44577034 4.7318988 -21.68321451 3.65105695 -19.93505859 2.54760742 C-13.22648211 -1.46687279 -7.472228 -3.05131673 0 0 Z M-13.86425781 25.68164062 C-15.47288696 26.58873779 -15.47288696 26.58873779 -17.11401367 27.51416016 C-17.68876434 27.84015198 -18.26351501 28.1661438 -18.85568237 28.50201416 C-77.64536653 61.7871956 -139.28975343 86.10491739 -203.71191406 105.89257812 C-203.78261048 121.59383555 -203.83519436 137.29504863 -203.86735058 152.99642658 C-203.88269114 160.29007156 -203.90352871 167.58361657 -203.93823242 174.87719727 C-203.96853445 181.2488331 -203.98758152 187.62039641 -203.99417955 193.99210232 C-203.99802443 197.35272779 -204.008459 200.71298452 -204.02910423 204.07357216 C-204.16261351 226.74278821 -202.86800279 249.24879994 -198.02441406 271.45507812 C-197.77095215 272.64286865 -197.51749023 273.83065918 -197.25634766 275.05444336 C-191.79587469 299.75432123 -183.46236194 323.63092433 -171.68554688 346.02636719 C-170.74270208 347.83356518 -169.83001053 349.65319576 -168.92285156 351.47851562 C-160.74168883 367.68427436 -150.16812699 382.83767153 -138.71191406 396.89257812 C-138.30424805 397.40175781 -137.89658203 397.9109375 -137.4765625 398.43554688 C-130.66358327 406.9060199 -123.13867479 414.64901249 -115.46191406 422.33007812 C-114.99023804 422.80275116 -114.51856201 423.27542419 -114.03259277 423.76242065 C-88.50704508 449.28186388 -46.04397066 485.74194887 -8.25878906 489.11132812 C18.02913552 488.06677483 47.54807036 465.79934878 67.46240234 450.30078125 C69.16257341 448.98938961 70.88083738 447.70909192 72.61230469 446.43945312 C81.81948256 439.59918814 90.07163359 431.88262994 98.28808594 423.89257812 C99.38902588 422.82450928 99.38902588 422.82450928 100.51220703 421.73486328 C108.95380999 413.51247529 117.14883836 405.29517412 124.28808594 395.89257812 C125.21479069 394.70608443 126.14190249 393.51990857 127.06933594 392.33398438 C161.14154321 348.31409304 181.29058834 296.12012727 187.28808594 240.89257812 C187.37645438 240.08594317 187.46482283 239.27930822 187.5558691 238.44822979 C188.26808401 231.36951769 188.42443886 224.37185804 188.40161133 217.26098633 C188.40183037 215.44441277 188.40183037 215.44441277 188.40205383 213.59114075 C188.40148117 210.30675541 188.396505 207.02241403 188.38947988 203.73803735 C188.38318066 200.29209097 188.38263738 196.84614351 188.38145447 193.40019226 C188.37836036 186.89109564 188.37017315 180.38201605 188.36010498 173.87292689 C188.34888383 166.4556448 188.34341834 159.03836185 188.33840954 151.62107337 C188.3279887 136.3782318 188.31042688 121.13540717 188.28808594 105.89257812 C186.57922714 105.35685181 186.57922714 105.35685181 184.83584595 104.81030273 C180.50569516 103.45167223 176.17715778 102.08795892 171.84902954 100.72290039 C169.99499733 100.13888534 168.14056122 99.55615061 166.28567505 98.97485352 C122.3122811 85.18980992 79.44992866 67.90455737 38.38916016 46.95263672 C35.99101323 45.74269552 33.57996176 44.56095716 31.16699219 43.38085938 C20.49316015 38.14046205 10.06230084 32.63481389 -0.18725586 26.60058594 C-1.01523682 26.11557617 -1.84321777 25.63056641 -2.69628906 25.13085938 C-3.42557617 24.69813721 -4.15486328 24.26541504 -4.90625 23.81958008 C-8.55588273 21.94591114 -10.52752865 23.78505703 -13.86425781 25.68164062 Z " fill="#000000" transform="translate(263.7119140625,1.107421875)"/>
<path d="M0 0 C8.526363 7.05994951 12.93623064 14.95316431 14 26 C14.19513978 41.15585617 6.8675979 51.034838 -3.30149353 61.53359652 C-6.11285196 64.39605078 -8.95055885 67.23165092 -11.79077148 70.06542969 C-13.06837684 71.34739106 -14.34556651 72.62976682 -15.62237549 73.91252136 C-19.06600619 77.36945317 -22.51592098 80.82004581 -25.96747851 84.26906109 C-28.85695704 87.15746449 -31.74344144 90.04885112 -34.62999207 92.94018006 C-41.44150476 99.76275578 -48.25829181 106.58002958 -55.07836914 113.39404297 C-62.09898242 120.40860979 -69.11035133 127.4323209 -76.11729568 134.46053958 C-82.15118997 140.51207479 -88.19090244 146.55776002 -94.2352491 152.59885526 C-97.83763159 156.19942976 -101.43778259 159.80216423 -105.03228569 163.41060638 C-108.41143692 166.80237299 -111.79782605 170.18674583 -115.18978882 173.56569862 C-116.42868762 174.80224072 -117.66506718 176.04131315 -118.89863777 177.2831707 C-129.33754192 187.78709823 -138.95952914 196.70897982 -154.5 197.375 C-174.17623746 196.59784161 -186.69484193 180.46876298 -199.671875 167.53125 C-200.30613655 166.89981583 -200.9403981 166.26838165 -201.5938797 165.61781311 C-204.94270725 162.28385614 -208.28874356 158.94712888 -211.63232422 155.60791016 C-215.06381572 152.18192291 -218.50450894 148.76533392 -221.94739914 145.35080719 C-224.61718521 142.69971943 -227.28016722 140.04187465 -229.94138336 137.38218689 C-231.20663685 136.11993806 -232.47436455 134.86016382 -233.74471283 133.6030426 C-245.1349518 122.32310181 -253.77010837 112.85105682 -254 96 C-253.20184897 86.23004018 -249.2064477 77.18433331 -241.94140625 70.53125 C-232.80732536 63.32690451 -223.3727446 61.18535047 -211.88671875 62.46484375 C-199.88909293 64.68903149 -191.38977814 73.30382946 -183.125 81.6796875 C-182.31506592 82.49245148 -181.50513184 83.30521545 -180.6706543 84.14260864 C-178.10899596 86.71537691 -175.55441684 89.29504381 -173 91.875 C-171.25437106 93.6306706 -169.50828179 95.38588364 -167.76171875 97.140625 C-163.50247533 101.42180679 -159.24900727 105.70866009 -155 110 C-148.90539296 104.96326382 -143.35852764 99.46778043 -137.80126953 93.85131836 C-136.79047304 92.83367918 -135.77941842 91.81629634 -134.76812744 90.79914856 C-132.60231576 88.62007811 -130.43794715 86.43958812 -128.27460098 84.25806999 C-124.84796229 80.80342455 -121.41576496 77.35433783 -117.98239136 73.90638733 C-116.80336267 72.7222158 -115.62434089 71.53803739 -114.44532585 70.35385227 C-113.85520139 69.76114226 -113.26507694 69.16843224 -112.65706992 68.55776131 C-104.67408375 60.53882485 -96.69590574 52.51515031 -88.72802734 44.48120117 C-83.34001711 39.04860269 -77.94483931 33.62323259 -72.54153144 28.2058478 C-69.68820796 25.34447965 -66.83867402 22.47955549 -63.99798965 19.60563469 C-61.32582643 16.90225692 -58.64434732 14.2084747 -55.95566559 11.52152824 C-54.97546261 10.53864595 -53.99865212 9.55236576 -53.02568436 8.56232071 C-38.14020526 -6.57283308 -18.75251239 -13.1334085 0 0 Z M-37.06718445 24.83340454 C-37.53980282 25.30501963 -38.01242119 25.77663472 -38.49936134 26.26254117 C-40.0677587 27.82999269 -41.62892395 29.40444722 -43.19018555 30.97900391 C-44.31875535 32.10977689 -45.44777529 33.24010076 -46.57720947 34.37001038 C-49.00114744 36.79687388 -51.42190415 39.22685079 -53.84021568 41.65932083 C-57.66320886 45.50462804 -61.49332171 49.34279062 -65.32441711 53.18002319 C-71.38058333 59.24755553 -77.43205485 65.31974529 -83.4814871 71.39399087 C-94.32315235 82.2800445 -105.17046069 93.16046831 -116.02296668 104.03571451 C-119.8315547 107.85271535 -123.63731593 111.67250629 -127.44083631 115.49455667 C-129.80379807 117.86814904 -132.16877921 120.23972168 -134.53427124 122.61079216 C-135.63206009 123.71205584 -136.72897599 124.8141905 -137.82496071 125.91724968 C-139.31893795 127.42065897 -140.81595775 128.92097207 -142.31376648 130.42056274 C-143.15125773 131.26157343 -143.98874899 132.10258411 -144.85161877 132.96907997 C-147.87938147 135.83130191 -150.0418689 137.33504059 -154.1875 137.5625 C-158.04942913 137.41080109 -159.86272621 136.69686122 -162.6887207 134.07519531 C-163.37954742 133.43739136 -164.07037415 132.7995874 -164.78213501 132.14245605 C-168.83856766 128.2239449 -172.83130178 124.2486148 -176.79296875 120.234375 C-178.18188099 118.83605373 -179.57079915 117.43773828 -180.96006489 116.03976822 C-184.35061257 112.62643963 -187.73554284 109.20755629 -191.11791992 105.78613281 C-193.02901881 103.85339537 -194.94279265 101.92337875 -196.85945129 99.99615479 C-198.65563893 98.18965691 -200.44771807 96.37906228 -202.2351532 94.56390381 C-203.04982559 93.74585266 -203.86449799 92.92780151 -204.70385742 92.08496094 C-205.41475021 91.36661072 -206.12564301 90.6482605 -206.858078 89.90814209 C-211.02585104 86.19526031 -214.28525229 84.41089726 -220.0078125 84.6484375 C-224.40859302 85.42504583 -227.14364308 87.94382647 -229.875 91.3125 C-231.35759677 94.85425895 -231.46074983 97.18235857 -231 101 C-228.32741069 106.39965286 -225.1079519 110.32188556 -220.84204102 114.53027344 C-219.93149963 115.44629082 -219.93149963 115.44629082 -219.00256348 116.3808136 C-217.01031395 118.38111573 -215.00748874 120.37042962 -213.00390625 122.359375 C-211.60861444 123.75414768 -210.21384189 125.14944 -208.81956482 126.54522705 C-205.90320438 129.46149801 -202.98176704 132.37255314 -200.05639648 135.27978516 C-196.31093911 139.00252488 -192.57668907 142.73626975 -188.84594822 146.47375107 C-185.96984941 149.35319384 -183.08878075 152.22762083 -180.20609856 155.1004715 C-178.82729215 156.47543538 -177.44982363 157.85174227 -176.07373238 159.22942352 C-174.14982544 161.15370209 -172.21953757 163.07134203 -170.28735352 164.98730469 C-169.72251755 165.55461807 -169.15768158 166.12193146 -168.57572937 166.70643616 C-164.54138443 170.68697198 -160.62556833 174.38617458 -154.6875 174.625 C-151.01804456 174.40385785 -149.21731726 173.75245521 -146.52012634 171.26495361 C-145.82559294 170.62512794 -145.13105953 169.98530228 -144.41547966 169.32608795 C-139.2161689 164.31919251 -134.09310997 159.24073363 -128.99047852 154.13574219 C-127.69064275 152.83890286 -126.39060361 151.54226736 -125.09037781 150.24581909 C-121.58020619 146.74443493 -118.0732403 143.23985726 -114.56713986 139.73439693 C-112.37595104 137.54392075 -110.18405098 135.35415889 -107.99189568 133.16464996 C-100.34371603 125.52570107 -92.69810294 117.88419431 -85.05493164 110.24023438 C-77.92822924 103.11292939 -70.79594784 95.99124103 -63.66107231 88.87211871 C-57.53084581 82.7549461 -51.40445874 76.6339464 -45.28107589 70.50992322 C-41.6253911 66.85398312 -37.9681605 63.1996224 -34.30706978 59.54909515 C-30.87087689 56.12254886 -27.43947162 52.69128092 -24.01175117 49.25625992 C-22.75128313 47.99474225 -21.48909383 46.7349418 -20.22509384 45.47696304 C-18.50463437 43.76417218 -16.79040423 42.04538292 -15.07765198 40.32489014 C-14.5724166 39.82479832 -14.06718123 39.32470651 -13.54663569 38.8094604 C-10.25085823 35.48050775 -9.13272043 33.40683656 -8.6875 28.6875 C-9.06209146 24.26732079 -10.16385987 22.37270719 -13 19 C-16.45439516 16.12133737 -19.36623085 15.6416972 -23.83984375 15.50390625 C-29.2034246 16.73568702 -33.29517771 21.04726371 -37.06718445 24.83340454 Z " fill="#000000" transform="translate(376,161)"/>
<path d="M0 0 C2.90685707 2.67736835 3.87744994 4.58639356 5 8.375 C5 12.79327404 3.78800961 15.65714303 1 19 C-1.5405479 20.71715288 -4.24120574 21.67725736 -7.125 22.6875 C-7.96015137 23.00074219 -8.79530273 23.31398438 -9.65576172 23.63671875 C-12.76034934 24.78765592 -15.87922038 25.893708 -19 27 C-20.41174191 27.50783867 -21.82318305 28.016514 -23.234375 28.52587891 C-30.83510927 31.26752805 -38.44460962 33.98478026 -46.0703125 36.65625 C-46.74030273 36.89334183 -47.41029297 37.13043365 -48.10058594 37.37471008 C-52.76816337 39 -52.76816337 39 -55 39 C-54.97381592 40.12494873 -54.94763184 41.24989746 -54.9206543 42.40893555 C-54.82998255 46.59265157 -54.77268963 50.77628121 -54.7253418 54.96069336 C-54.7002361 56.76976132 -54.66614405 58.57872822 -54.62280273 60.38745117 C-54.56197421 62.99162751 -54.53375191 65.59446031 -54.51171875 68.19921875 C-54.48591232 69.00461594 -54.4601059 69.81001312 -54.43351746 70.63981628 C-54.43140926 74.88467929 -54.6094582 76.50225549 -57.31958008 79.95629883 C-60.60297475 82.45974147 -62.90069486 83.4345786 -67 84 C-70.73584549 82.94151045 -73.11458191 82.02161641 -75.67602539 79.06616211 C-77.67686844 74.43245606 -77.44787334 70.00036505 -77.43359375 65.00390625 C-77.4388356 63.93760483 -77.44407745 62.87130341 -77.44947815 61.77268982 C-77.45589259 59.52091339 -77.45456887 57.26910342 -77.44604492 55.01733398 C-77.43753835 51.57800425 -77.46630073 48.14033749 -77.49804688 44.70117188 C-77.49965913 42.51041716 -77.49908089 40.31965952 -77.49609375 38.12890625 C-77.50732773 37.10374405 -77.51856171 36.07858185 -77.53013611 35.02235413 C-77.47414469 29.26605728 -77.28009512 25.26159505 -73 21 C-70.05705579 19.41018137 -67.01684719 18.3926429 -63.8359375 17.37890625 C-62.47681747 16.91713234 -62.47681747 16.91713234 -61.09024048 16.44602966 C-58.1913227 15.46521232 -55.2840068 14.51292691 -52.375 13.5625 C-48.58874364 12.30009193 -44.80623708 11.02662731 -41.0234375 9.75390625 C-40.09650085 9.44490387 -39.16956421 9.13590149 -38.21453857 8.8175354 C-31.28731532 6.49121094 -24.47220888 3.93904307 -17.70101929 1.19203186 C-10.98642709 -1.50764903 -6.91136873 -2.76454749 0 0 Z " fill="#000000" transform="translate(157,100)"/>
<path d="M0 0 C3.76986651 2.59178322 4.78738468 4.33977347 6.1875 8.6875 C6.51094449 14.49871934 3.26332422 18.45658728 0 23 C-0.42007324 23.58845703 -0.84014648 24.17691406 -1.27294922 24.78320312 C-17.73423082 47.69497631 -37.13384965 69.34083561 -60 86 C-60.85464844 86.74121094 -61.70929688 87.48242188 -62.58984375 88.24609375 C-66.32003548 90.96060929 -69.56353904 90.66828722 -74 90 C-76.93038162 88.7530291 -78.41759241 87.77654345 -80.3125 85.25 C-81.57975652 81.10261504 -81.73288445 77.45420921 -79.76171875 73.54296875 C-77.89585445 70.84967018 -75.96155761 68.90785895 -73.5 66.75 C-72.15615234 65.56664062 -72.15615234 65.56664062 -70.78515625 64.359375 C-68.21119685 62.1789101 -65.58705062 60.08727957 -62.9375 58 C-51.07563643 48.38227278 -40.25907949 37.13258692 -31 25 C-30.17539641 23.9419928 -29.34982761 22.88473737 -28.5234375 21.828125 C-23.76636715 15.71780444 -19.18063766 9.52633089 -14.7890625 3.14453125 C-10.61784759 -1.85546217 -5.94180889 -1.60990187 0 0 Z " fill="#000000" transform="translate(384,346)"/>
<path d="M0 0 C2.82424288 2.19022918 4.41508603 3.83017207 6 7 C6.68128376 13.81283762 6.68128376 13.81283762 4.953125 16.82421875 C2.61960998 19.65875317 0.75467707 21.75434521 -2.953125 22.2734375 C-6.97637385 22.45133626 -10.12951176 22.44311184 -13.5 20.0625 C-16.31821658 16.61018468 -17.02371308 14.58823849 -17.2421875 10.21875 C-16.85639279 6.68437266 -15.30350467 4.62343588 -13 2 C-8.7741215 -0.81725233 -4.96375312 -0.79958384 0 0 Z " fill="#000000" transform="translate(293,432)"/>
<path d="M0 0 C3 2.4375 3 2.4375 5 5 C5.33 5.33 5.66 5.66 6 6 C6.43839055 9.38186995 6.48172213 12.62270898 6 16 C3.80977082 18.82424288 2.16982793 20.41508603 -1 22 C-6.29304255 22.34708476 -9.73358414 22.51351894 -14 19 C-16.31069059 16.0291121 -16.47087809 12.74838896 -16.39453125 9.03515625 C-15.68647817 5.38272403 -13.62465368 3.56216192 -11 1 C-7.53003768 -0.73498116 -3.78492805 -0.60794181 0 0 Z " fill="#000000" transform="translate(186,86)"/>
</svg>
