<?xml version="1.0" encoding="UTF-8"?>
<svg version="1.1" xmlns="http://www.w3.org/2000/svg" width="512" height="512">
<path d="M0 0 C1.48112526 -0.01029488 1.48112526 -0.01029488 2.99217224 -0.02079773 C6.25802975 -0.03910751 9.52340879 -0.03522215 12.78930664 -0.02954102 C15.05847836 -0.03410084 17.3276487 -0.03940581 19.59681702 -0.04542542 C24.35398975 -0.05436478 29.11099468 -0.05192396 33.86816406 -0.04199219 C39.96603074 -0.03050232 46.06331838 -0.05071058 52.16110897 -0.07990932 C56.8476988 -0.09825097 61.53414936 -0.09798288 66.22076607 -0.0922718 C68.46904882 -0.09211834 70.71734085 -0.09818357 72.96558952 -0.11056328 C76.10894012 -0.12543235 79.25121445 -0.1148255 82.39453125 -0.09765625 C83.32404602 -0.10732422 84.25356079 -0.11699219 85.21124268 -0.12695312 C89.41112978 -0.07889015 91.66400172 0.03120568 95.29795837 2.29708862 C99.65479259 6.97105615 99.58054349 11.8597253 99.59790039 17.99389648 C99.60788559 19.22711388 99.60788559 19.22711388 99.61807251 20.48524475 C99.62816964 22.21914441 99.63289044 23.95308269 99.63256836 25.68701172 C99.63694323 28.3296749 99.67329646 30.97066886 99.71118164 33.61303711 C99.71705025 35.30248456 99.72101935 36.99193989 99.72290039 38.68139648 C99.73727142 39.46594711 99.75164246 40.25049774 99.76644897 41.05882263 C99.72320654 46.28871558 98.72809941 49.26170206 95.26196289 53.40405273 C94.27196289 54.06405273 93.28196289 54.72405273 92.26196289 55.40405273 C91.82347107 57.78454751 91.82347107 57.78454751 91.92138672 60.58813477 C91.92172661 62.20958908 91.92172661 62.20958908 91.92207336 63.86380005 C91.93755722 65.03466156 91.95304108 66.20552307 91.96899414 67.41186523 C91.97323898 68.60762177 91.97748383 69.8033783 91.9818573 71.03536987 C91.99869387 74.86682345 92.03635605 78.69775727 92.07446289 82.52905273 C92.08950325 85.12149307 92.10319278 87.71394163 92.11547852 90.30639648 C92.14861371 96.67246022 92.19886259 103.03821936 92.26196289 109.40405273 C92.99509705 108.90421371 93.7282312 108.40437469 94.48358154 107.88938904 C100.97668808 103.46296344 107.47467964 99.04380318 113.9777832 94.63208008 C116.02976716 93.23998926 118.08127907 91.84720208 120.13208008 90.45336914 C122.58861172 88.78594682 125.04937821 87.12501745 127.51196289 85.46655273 C128.2304541 84.97767578 128.94894531 84.48879883 129.68920898 83.98510742 C135.47520808 80.10546185 140.07544089 77.57936988 147.26196289 78.40405273 C154.16216222 81.24283281 160.31168632 85.25061644 166.38696289 89.52905273 C167.20680664 90.09817383 168.02665039 90.66729492 168.87133789 91.25366211 C170.5439613 92.41491845 172.21488353 93.5786292 173.8840332 94.74487305 C177.33069591 97.14975187 180.79631701 99.52665738 184.26196289 101.90405273 C185.56802248 102.80238847 186.87401118 103.70082727 188.17993164 104.59936523 C195.86402027 109.88205901 203.56454646 115.14080927 211.26196289 120.40405273 C216.8447225 124.22136251 222.42682962 128.03961864 228.00708008 131.8605957 C229.47873815 132.86793896 230.95072832 133.87479729 232.4230957 134.88110352 C239.70000667 139.85495859 246.95397458 144.85767676 254.13696289 149.96655273 C254.72646729 150.38445068 255.31597168 150.80234863 255.92333984 151.23291016 C258.19109125 152.85446528 260.28672322 154.42881307 262.26196289 156.40405273 C262.93235395 163.33142704 262.93235395 163.33142704 260.69946289 166.90405273 C257.3537092 168.96297809 255.1486837 168.71748967 251.26196289 168.40405273 C248.47387695 167.04980469 248.47387695 167.04980469 245.77758789 165.14233398 C244.76946045 164.44188965 243.76133301 163.74144531 242.72265625 163.01977539 C241.66312744 162.25971191 240.60359863 161.49964844 239.51196289 160.71655273 C238.39664314 159.93417005 237.28017366 159.15342396 236.16259766 158.37426758 C233.91374895 156.80370881 231.6707553 155.22533025 229.43237305 153.63989258 C225.05507559 150.55293046 220.62902509 147.54024801 216.19946289 144.52905273 C209.89632784 140.21732186 203.60323429 135.89098658 197.31176758 131.56225586 C190.60157209 126.946707 183.87948298 122.34859526 177.15649414 117.75170898 C173.8192227 115.46979677 170.48342241 113.18575532 167.14868164 110.90014648 C166.30926025 110.32506348 165.46983887 109.74998047 164.60498047 109.1574707 C163.01728156 108.06968728 161.42985674 106.98150365 159.84277344 105.89282227 C154.67676951 102.35461951 149.47928013 98.86611869 144.26196289 95.40405273 C138.72011278 98.45832604 133.5248936 101.86592638 128.32446289 105.46655273 C127.49108398 106.04018555 126.65770508 106.61381836 125.79907227 107.20483398 C124.09466229 108.3783196 122.39104332 109.55295497 120.68823242 110.72875977 C117.85631569 112.68414441 115.02062377 114.63398598 112.18432617 116.58300781 C110.89470909 117.46923057 109.60532383 118.35579075 108.31616211 119.24267578 C99.16562559 125.53749274 89.99369916 131.80111002 80.82543945 138.07006836 C72.63179367 143.67295511 64.43942619 149.27756458 56.26196289 154.90405273 C48.08014802 160.53353498 39.88334802 166.14101564 31.68530273 171.74682617 C27.71033957 174.46514674 23.73617733 177.1846377 19.76196289 179.90405273 C14.97721478 183.17808743 10.19228222 186.45185084 5.40649414 189.72436523 C-2.62927034 195.21979127 -10.66032467 200.72185312 -18.68017578 206.24047852 C-23.05176093 209.24760744 -27.42835 212.24732733 -31.80834961 215.2421875 C-33.41831452 216.34337632 -35.02769723 217.44541683 -36.63647461 218.54833984 C-40.54464025 221.22679476 -44.45992673 223.8931032 -48.39428711 226.53295898 C-49.12711914 227.02795898 -49.85995117 227.52295898 -50.61499023 228.03295898 C-51.99022786 228.9615923 -53.36893729 229.88511309 -54.75170898 230.80249023 C-59.56838795 234.06752131 -62.61685046 236.62852825 -63.73803711 242.40405273 C-63.81863708 244.35578544 -63.84565954 246.31005691 -63.83569336 248.26342773 C-63.8324707 249.3784668 -63.82924805 250.49350586 -63.82592773 251.64233398 C-63.81754883 252.80120117 -63.80916992 253.96006836 -63.80053711 255.15405273 C-63.79602539 256.32838867 -63.79151367 257.50272461 -63.78686523 258.71264648 C-63.77508805 261.60983346 -63.75864037 264.50691727 -63.73803711 267.40405273 C-58.45231673 264.96707513 -53.82053556 261.84919169 -49.05053711 258.52905273 C-47.34878366 257.35447291 -45.64695876 256.17999662 -43.94506836 255.00561523 C-43.07962402 254.40652344 -42.21417969 253.80743164 -41.32250977 253.19018555 C-37.30447755 250.41331764 -33.27094116 247.65925488 -29.23803711 244.90405273 C-27.6585301 243.82344038 -26.07910328 242.74271081 -24.49975586 241.66186523 C-21.29436197 239.46866629 -18.08859401 237.27601555 -14.88256836 235.08374023 C-7.49548043 230.03192526 -0.11074819 224.97683265 7.26196289 219.90405273 C15.44377776 214.27457049 23.64057776 208.66708983 31.83862305 203.0612793 C35.81358621 200.34295873 39.78774845 197.62346777 43.76196289 194.90405273 C48.546711 191.63001804 53.33164356 188.35625463 58.11743164 185.08374023 C65.50451957 180.03192526 72.88925181 174.97683265 80.26196289 169.90405273 C86.82292169 165.38979744 93.39205492 160.88760055 99.96704102 156.39379883 C104.08368461 153.5800913 108.19728792 150.76213661 112.30493164 147.93530273 C116.26779911 145.20867635 120.24150894 142.49854064 124.22192383 139.79760742 C126.01988468 138.56941684 127.80274815 137.32275392 129.58227539 136.06811523 C134.84959891 132.4734237 139.68979872 129.51328007 146.26196289 130.40405273 C153.36810028 132.49138467 158.72857434 136.22825987 164.69946289 140.52905273 C166.74410545 141.97698198 168.78971266 143.4235498 170.83618164 144.86889648 C171.89111816 145.6163916 172.94605469 146.36388672 174.03295898 147.1340332 C179.31703724 150.84878896 184.66371468 154.47007288 190.01196289 158.09155273 C192.1136181 159.51719732 194.21518213 160.94297634 196.31665039 162.36889648 C197.32179688 163.05064941 198.32694336 163.73240234 199.36254883 164.43481445 C205.91134832 168.88266025 212.43970605 173.36043826 218.97045898 177.8347168 C221.34426861 179.46041979 223.71899829 181.08477074 226.09399414 182.70874023 C234.1399615 188.21056012 242.18065964 193.71982353 250.21069336 199.24487305 C258.54998546 204.98085031 266.90687803 210.69111695 275.26196289 216.40405273 C284.91882974 223.00710478 294.57308558 229.61373524 304.21069336 236.24487305 C310.11630236 240.30690116 316.02793266 244.36013537 321.94946289 248.39892578 C326.17718134 251.28392982 330.39076373 254.18707573 334.58618164 257.11889648 C335.45267334 257.7210498 336.31916504 258.32320313 337.21191406 258.94360352 C338.88137165 260.10431208 340.54706567 261.2704572 342.20849609 262.44262695 C342.95832764 262.96228027 343.70815918 263.48193359 344.48071289 264.01733398 C345.14006836 264.47922119 345.79942383 264.9411084 346.47875977 265.41699219 C348.35972318 266.64619758 348.35972318 266.64619758 351.26196289 266.40405273 C351.34943217 262.36252358 351.40251271 258.32123969 351.44946289 254.27905273 C351.47459961 253.13694336 351.49973633 251.99483398 351.52563477 250.81811523 C351.73164217 242.6172148 351.73164217 242.6172148 348.26196289 235.40405273 C346.14891149 233.43538038 343.8877921 231.79099059 341.51196289 230.15405273 C340.84583984 229.68080566 340.1797168 229.20755859 339.4934082 228.7199707 C333.82550534 224.72043172 328.05408438 220.87291641 322.26196289 217.05639648 C316.18897723 213.0467077 310.20282389 208.90922107 304.20336914 204.79077148 C300.82258514 202.47006955 297.43393426 200.16148657 294.03930664 197.86108398 C293.18691406 197.28205322 292.33452148 196.70302246 291.45629883 196.10644531 C289.83229895 195.00358681 288.20674282 193.90301506 286.5793457 192.80517578 C274.68202223 184.71090401 274.68202223 184.71090401 273.13696289 179.90405273 C273.26196289 176.40405273 273.26196289 176.40405273 274.82446289 173.52905273 C277.84863736 170.89259294 279.26029129 170.52188759 283.26196289 170.40405273 C286.00070833 171.728772 288.27067663 173.02698278 290.76196289 174.71655273 C291.82169312 175.40769165 291.82169312 175.40769165 292.90283203 176.11279297 C297.80360204 179.33835869 302.59771131 182.7109848 307.3425293 186.16137695 C313.35108007 190.5196101 319.49351895 194.67652916 325.63696289 198.84155273 C327.26287354 199.94551392 327.26287354 199.94551392 328.92163086 201.07177734 C333.65924075 204.28727363 338.40012748 207.49771182 343.14868164 210.69702148 C364.83553234 225.35434127 364.83553234 225.35434127 367.80615234 237.65795898 C368.71703785 243.14571483 368.48928812 248.72940204 368.51196289 254.27905273 C368.54290039 256.16043945 368.54290039 256.16043945 368.57446289 258.07983398 C368.60908286 266.25880196 368.34452088 271.73830809 362.94946289 278.15405273 C358.10006033 282.21401767 353.97120423 284.08759372 347.65258789 283.79467773 C337.54545978 282.14318621 328.7182095 273.96638197 320.63378906 268.10787964 C318.0998902 266.28762607 315.54788058 264.49531719 312.99047852 262.70825195 C312.10154907 262.08683319 311.21261963 261.46541443 310.29675293 260.82516479 C309.62527222 260.35619781 308.9537915 259.88723083 308.26196289 259.40405273 C308.02818053 273.90301302 307.85259936 288.40168046 307.74384117 302.90213966 C307.69231275 309.63535247 307.62209086 316.36739319 307.50756836 323.09985352 C307.39710731 329.59665901 307.33912636 336.0927042 307.31319046 342.59040451 C307.29470726 345.06970772 307.25861196 347.54894395 307.20466232 350.02772903 C307.13208259 353.50050187 307.12206962 356.96824162 307.12670898 360.44165039 C307.09075623 361.46736145 307.05480347 362.49307251 307.01776123 363.54986572 C307.06027421 366.48980162 307.19082806 368.66180926 308.26196289 371.40405273 C310.65703938 373.4914138 312.97826616 374.84434167 315.83361244 376.22670555 C318.98399476 377.75411843 320.97491489 379.78067415 323.26196289 382.40405273 C323.98383789 383.20842773 324.70571289 384.01280273 325.44946289 384.84155273 C327.26196289 387.40405273 327.26196289 387.40405273 327.94946289 390.59155273 C328.38258789 391.51967773 328.81571289 392.44780273 329.26196289 393.40405273 C331.40637678 394.13278213 333.51470334 394.43438092 335.75024414 394.79077148 C341.32377582 396.15164936 345.90726844 399.91041526 349.69946289 404.09155273 C352.36644233 406.49833906 353.63544078 406.94944551 357.01196289 407.84155273 C366.49812145 410.38902261 373.63261373 416.44400019 379.26196289 424.40405273 C384.31389482 434.34730603 386.08282108 444.81834406 383.01196289 455.71655273 C381.57874863 459.96133565 379.64754989 463.62001819 377.26196289 467.40405273 C378.41696289 467.32155273 379.57196289 467.23905273 380.76196289 467.15405273 C386.4945058 467.18443724 390.84565365 469.148118 395.02758789 473.05249023 C400.69230305 479.34967359 401.73164279 484.7820594 401.57055664 493.17749023 C400.88011786 500.39650834 397.60333641 504.64022044 392.14086914 509.17749023 C387.29937321 512.33805098 382.83419937 512.69215952 377.17273235 512.66132164 C376.35894053 512.66482771 375.54514872 512.66833379 374.70669654 512.67194611 C371.96835247 512.68128101 369.2302201 512.6763314 366.49186707 512.67147827 C364.51334739 512.67521348 362.53482919 512.67981447 360.55631334 512.68520892 C355.11028271 512.69747035 349.66431338 512.69717475 344.21827209 512.69482017 C338.34834012 512.69441279 332.47842801 512.70544352 326.60850525 512.7149353 C315.10483361 512.73156342 303.60118246 512.73704566 292.09749981 512.73816006 C282.74890464 512.73907886 273.40031471 512.74319409 264.05172157 512.74956131 C261.3615026 512.75135638 258.67128361 512.753136 255.98106462 512.75491107 C255.31228252 512.75535316 254.64350042 512.75579526 253.9544522 512.75625075 C235.1406747 512.76856059 216.3268995 512.77645173 197.51311779 512.77556419 C196.80367669 512.77553304 196.0942356 512.77550188 195.36329628 512.77546978 C191.76749046 512.77530356 188.17168464 512.77510548 184.57587882 512.77490036 C183.86172906 512.77486047 183.1475793 512.77482058 182.41178863 512.77477948 C180.96760348 512.77469861 179.52341833 512.77461501 178.07923318 512.7745287 C155.60911135 512.77330314 133.13904987 512.78831672 110.66894531 512.81567383 C85.42833617 512.84639128 60.18776668 512.86360653 34.94713765 512.86174738 C32.2559756 512.86159812 29.56481356 512.86150071 26.8736515 512.86143875 C26.21101116 512.86141544 25.54837081 512.86139213 24.86565046 512.86136812 C14.86008559 512.86131037 4.85456905 512.87201139 -5.15098 512.88810349 C-16.53038085 512.90628756 -27.90968279 512.91068542 -39.28909186 512.89708464 C-45.09662612 512.89054105 -50.90397046 512.89048803 -56.71148682 512.90779114 C-62.026854 512.92346525 -67.34187976 512.92071613 -72.65723833 512.90322287 C-74.58117691 512.90014049 -76.50514062 512.90383172 -78.42904959 512.91494302 C-81.04354138 512.92904385 -83.65683225 512.91849412 -86.27128315 512.90183067 C-87.01892361 512.91176703 -87.76656408 512.92170339 -88.53686032 512.93194085 C-94.84044751 512.84695274 -99.9735107 510.78965757 -104.76147461 506.65795898 C-105.20749023 506.09979492 -105.65350586 505.54163086 -106.11303711 504.96655273 C-106.57452148 504.4109668 -107.03600586 503.85538086 -107.51147461 503.28295898 C-111.57466965 497.05876531 -111.42737609 490.61157166 -110.73803711 483.40405273 C-109.03518325 477.10247378 -105.01114641 473.04729189 -99.73803711 469.40405273 C-95.42348998 466.97020563 -91.57877637 467.23995988 -86.73803711 467.40405273 C-87.37032227 466.19168945 -87.37032227 466.19168945 -88.01538086 464.95483398 C-88.56323242 463.88620117 -89.11108398 462.81756836 -89.67553711 461.71655273 C-90.22081055 460.66081055 -90.76608398 459.60506836 -91.32788086 458.51733398 C-95.21874926 449.92724503 -94.81664067 439.59272045 -91.76928711 430.77514648 C-87.26704609 420.42340293 -79.37011778 412.35782348 -68.87475586 408.12670898 C-66.92444183 407.46709638 -64.92481634 406.95817878 -62.92553711 406.46655273 C-59.00760365 405.16057492 -58.28019195 403.59990454 -55.73803711 400.40405273 C-50.34200494 396.45202917 -45.47333366 393.69689171 -38.73803711 393.40405273 C-38.51116211 392.55842773 -38.28428711 391.71280273 -38.05053711 390.84155273 C-34.84308104 382.44107257 -29.38474243 377.85673601 -21.73803711 373.40405273 C-21.07803711 373.40405273 -20.41803711 373.40405273 -19.73803711 373.40405273 C-19.73803711 335.78405273 -19.73803711 298.16405273 -19.73803711 259.40405273 C-29.86529413 266.14885386 -29.86529413 266.14885386 -39.96459961 272.93530273 C-40.70581055 273.43545898 -41.44702148 273.93561523 -42.21069336 274.45092773 C-43.68691745 275.44757993 -45.16075935 276.44776703 -46.63256836 277.45092773 C-53.28493164 281.92508357 -58.58058102 284.50530931 -66.73803711 283.40405273 C-71.99374835 281.69224538 -75.83554771 279.20432366 -78.73803711 274.40405273 C-81.22965106 267.84340017 -81.03498547 261.41882231 -80.98803711 254.46655273 C-80.99577148 253.32508789 -81.00350586 252.18362305 -81.01147461 251.00756836 C-80.98447466 239.32334001 -78.95690291 230.18015393 -70.73803711 221.40405273 C-68.03100586 219.19311523 -68.03100586 219.19311523 -64.92553711 217.02905273 C-64.05058594 216.41610352 -64.05058594 216.41610352 -63.15795898 215.79077148 C-56.04506619 210.848278 -48.79973971 206.09594346 -41.58032227 201.3112793 C-34.89856169 196.87503706 -28.31357052 192.34324313 -21.83569336 187.61499023 C-18.73803711 185.40405273 -18.73803711 185.40405273 -16.50166321 184.56929016 C-13.4452936 183.20359784 -11.83334997 182.04585627 -9.73803711 179.40405273 C-7.96210268 173.10124726 -8.6273688 166.14963333 -8.74584961 159.67358398 C-8.74781481 157.71636409 -8.74538057 155.75913527 -8.73873901 153.80192566 C-8.73111698 148.65840086 -8.77456731 143.51664406 -8.83135986 138.37347412 C-8.91406096 130.13156889 -8.92066562 121.88932118 -8.92440414 113.64706993 C-8.93325558 110.76668321 -8.96470546 107.8872105 -8.99954224 105.0070343 C-9.00937485 103.24720519 -9.01874849 101.48737344 -9.02758789 99.72753906 C-9.04316238 98.92488617 -9.05873688 98.12223328 -9.07478333 97.29525757 C-9.07821432 91.90362232 -9.07821432 91.90362232 -7.39962769 89.43852234 C-4.81879063 87.83175017 -2.76370813 87.52507958 0.26196289 87.40405273 C2.58927845 88.54185145 4.43037003 89.57245988 6.26196289 91.40405273 C6.34865721 92.89277133 6.36899783 94.38549773 6.35961914 95.87670898 C6.35478516 97.22539062 6.35478516 97.22539062 6.34985352 98.60131836 C6.33728516 100.01960938 6.33728516 100.01960938 6.32446289 101.46655273 C6.31995117 102.41594727 6.31543945 103.3653418 6.31079102 104.34350586 C6.29896399 106.69708339 6.28248314 109.05053751 6.26196289 111.40405273 C6.82715134 111.39517029 7.39233978 111.38628784 7.97465515 111.37713623 C13.86320877 111.28856376 19.75157281 111.2282776 25.640625 111.18432617 C27.83764331 111.16422507 30.03460821 111.13693968 32.23144531 111.10229492 C35.39149156 111.0537118 38.55082976 111.03106869 41.71118164 111.01342773 C43.18176277 110.98246002 43.18176277 110.98246002 44.68205261 110.9508667 C49.07741245 110.94942419 51.56023182 110.97686434 55.38208008 113.3034668 C57.40884961 115.56818434 57.92377665 116.41295602 57.82446289 119.40405273 C57.82575195 120.06405273 57.82704102 120.72405273 57.82836914 121.40405273 C56.94669541 124.51727306 55.91728604 125.48751 53.26196289 127.40405273 C49.70517401 127.9747125 46.18405367 127.86832899 42.59008789 127.79467773 C41.55253357 127.78901794 40.51497925 127.78335815 39.44598389 127.77752686 C36.13417297 127.75514765 32.82344645 127.70494693 29.51196289 127.65405273 C27.26588477 127.6339898 25.01978968 127.61573867 22.77368164 127.59936523 C17.26902218 127.55868039 11.76670532 127.48038969 6.26196289 127.40405273 C6.59196289 140.60405273 6.92196289 153.80405273 7.26196289 167.40405273 C19.66474078 159.16860822 31.98925431 150.83164254 44.26196289 142.40405273 C47.57354681 140.13188054 50.886304 137.86142753 54.19946289 135.59155273 C54.93156982 135.08889893 55.66367676 134.58624512 56.41796875 134.06835938 C57.13863525 133.57456787 57.85930176 133.08077637 58.60180664 132.57202148 C59.32770996 132.05559082 60.05361328 131.53916016 60.80151367 131.00708008 C63.26196289 129.40405273 63.26196289 129.40405273 66.45288086 127.83618164 C69.97465547 125.96030081 72.54361871 124.3375118 75.26196289 121.40405273 C76.86682408 115.69567919 76.72326907 110.28686691 76.51196289 104.40405273 C76.49997164 102.85069996 76.49341253 101.29729523 76.49243164 99.74389648 C76.47830968 95.9604471 76.39046338 92.18527511 76.26196289 88.40405273 C75.43003418 88.44332886 75.43003418 88.44332886 74.58129883 88.48339844 C72.0584772 88.58759276 69.536108 88.65244165 67.01196289 88.71655273 C66.13926758 88.75844727 65.26657227 88.8003418 64.36743164 88.84350586 C57.90339664 88.96686531 57.90339664 88.96686531 54.64868164 86.11108398 C52.7626955 82.42942652 53.1689495 80.33890096 54.26196289 76.40405273 C55.86766992 74.28158051 56.69490219 73.49669235 59.34667969 73.06347656 C60.12696533 73.07918701 60.90725098 73.09489746 61.71118164 73.11108398 C62.55874023 73.12075195 63.40629883 73.13041992 64.27954102 73.14038086 C65.16061523 73.16551758 66.04168945 73.1906543 66.94946289 73.21655273 C67.84213867 73.23008789 68.73481445 73.24362305 69.65454102 73.25756836 C71.85727272 73.2929063 74.05969409 73.34671305 76.26196289 73.40405273 C76.26196289 67.46405273 76.26196289 61.52405273 76.26196289 55.40405273 C53.16196289 55.40405273 30.06196289 55.40405273 6.26196289 55.40405273 C6.26196289 59.69405273 6.26196289 63.98405273 6.26196289 68.40405273 C2.93026538 71.73575024 1.84758848 72.22062771 -2.73803711 72.40405273 C-5.06535267 71.26625401 -6.90644425 70.23564559 -8.73803711 68.40405273 C-8.90205478 65.13736737 -8.99292698 61.87322004 -9.06616211 58.60327148 C-9.92099782 54.53286192 -11.42474257 53.75849991 -14.73803711 51.40405273 C-17.44693567 47.64841585 -17.04392731 43.34999035 -17.03881836 38.91186523 C-17.04310349 38.08830536 -17.04738861 37.26474548 -17.05180359 36.41622925 C-17.05753836 34.6763399 -17.05805343 32.93642658 -17.05371094 31.1965332 C-17.05055636 28.54523413 -17.07400117 25.89505726 -17.09936523 23.24389648 C-17.10163898 21.54988747 -17.10234137 19.85587547 -17.10131836 18.16186523 C-17.11052811 17.37417755 -17.11973785 16.58648987 -17.12922668 15.77493286 C-17.0826331 10.1839288 -16.14816915 6.03991696 -12.2387085 1.76429749 C-8.29883478 -0.37880399 -4.41519403 -0.02133636 0 0 Z M-0.73803711 15.40405273 C-0.73803711 23.65405273 -0.73803711 31.90405273 -0.73803711 40.40405273 C26.98196289 40.40405273 54.70196289 40.40405273 83.26196289 40.40405273 C83.26196289 32.15405273 83.26196289 23.90405273 83.26196289 15.40405273 C55.54196289 15.40405273 27.82196289 15.40405273 -0.73803711 15.40405273 Z M143.26196289 146.40405273 C141.63720466 147.52107402 140.01244757 148.63809698 138.38769531 149.75512695 C136.94777283 150.74506333 135.50783083 151.73497132 134.06787109 152.72485352 C130.47978145 155.1914952 126.8919117 157.65845397 123.30493164 160.12670898 C113.77599032 166.68276563 104.23300269 173.21812389 94.68530273 179.74682617 C90.71033957 182.46514674 86.73617733 185.1846377 82.76196289 187.90405273 C77.97721478 191.17808743 73.19228222 194.45185084 68.40649414 197.72436523 C61.01940621 202.77618021 53.63467397 207.83127282 46.26196289 212.90405273 C40.49682998 216.87074153 34.72531627 220.82798982 28.94946289 224.77905273 C28.16498779 225.31578613 27.3805127 225.85251953 26.57226562 226.40551758 C22.37414168 229.27726533 18.17438782 232.14660304 13.97290039 235.01342773 C13.11092041 235.6020459 12.24894043 236.19066406 11.36083984 236.79711914 C9.70885239 237.92515831 8.05637056 239.05247393 6.40332031 240.17895508 C5.65671143 240.68894043 4.91010254 241.19892578 4.14086914 241.72436523 C3.48675049 242.17054199 2.83263184 242.61671875 2.15869141 243.07641602 C1.532771 243.51453613 0.90685059 243.95265625 0.26196289 244.40405273 C-0.77183565 245.0331755 -0.77183565 245.0331755 -1.82651901 245.67500782 C-3.93481623 247.24436761 -3.93481623 247.24436761 -4.23022842 249.67851543 C-4.22654125 250.57542001 -4.22285408 251.47232458 -4.21905518 252.39640808 C-4.22455383 253.42705887 -4.23005249 254.45770966 -4.23571777 255.51959229 C-4.22133667 256.64959656 -4.20695557 257.77960083 -4.19213867 258.94384766 C-4.19272278 260.13422134 -4.19330688 261.32459503 -4.19390869 262.55104065 C-4.19159781 265.81549522 -4.17152492 269.07926577 -4.14361286 272.34358382 C-4.11862387 275.75484866 -4.11625921 279.16612663 -4.11151123 282.57746887 C-4.099074 289.03737127 -4.06624259 295.49700321 -4.02611327 301.95678645 C-3.98141855 309.31097049 -3.95941436 316.66516738 -3.93933153 324.01945341 C-3.89751039 339.14780394 -3.82714412 354.2759013 -3.73803711 369.40405273 C-2.64249512 369.66017334 -1.54695313 369.91629395 -0.41821289 370.18017578 C1.03516845 370.52915153 2.48845108 370.87853854 3.94165039 371.22827148 C4.6618335 371.39548706 5.3820166 371.56270264 6.12402344 371.73498535 C15.10593007 373.91762457 22.13524062 378.62454975 27.26196289 386.40405273 C30.25220562 391.80310211 32.28242804 396.61455465 32.82446289 402.77905273 C33.11675686 405.27841699 33.11675686 405.27841699 34.26196289 407.40405273 C37.08946372 409.05153717 39.92189667 410.02127197 43.01586914 411.07983398 C50.81705079 414.26226549 56.71026951 420.73693379 60.36743164 428.23217773 C64.69055933 438.72850523 64.54925853 449.87893505 60.26196289 460.40405273 C59.30906632 462.09809108 58.32835933 463.77906768 57.26196289 465.40405273 C57.26196289 466.06405273 57.26196289 466.72405273 57.26196289 467.40405273 C115.34196289 467.40405273 173.42196289 467.40405273 233.26196289 467.40405273 C232.1210054 464.551659 230.95181604 461.70932378 229.69946289 458.90405273 C226.03290247 449.97677519 226.09161469 439.87840054 229.22680664 430.77905273 C232.46785611 423.34298452 237.40738102 416.83736439 244.26196289 412.40405273 C246.35538618 411.66457157 248.46043184 410.95737874 250.57446289 410.27905273 C253.70897407 409.2152905 253.70897407 409.2152905 256.26196289 407.40405273 C257.65514913 404.19927929 258.13721994 401.27731812 258.64868164 397.82592773 C260.12037431 389.6144451 264.73332988 382.96110242 271.19946289 377.82983398 C276.04035397 374.48338466 280.88093056 372.44824343 286.51977539 370.79467773 C287.41067871 370.53203125 288.30158203 370.26938477 289.21948242 369.9987793 C290.23051025 369.70438965 290.23051025 369.70438965 291.26196289 369.40405273 C291.51927107 353.63573067 291.71306543 337.86797793 291.83189678 322.09807587 C291.88854732 314.77519939 291.965732 307.45362942 292.09179688 300.1315918 C292.2016635 293.74731256 292.27245435 287.36397955 292.29693633 280.97878122 C292.31124295 277.59926059 292.3446886 274.22244596 292.42499352 270.84379578 C292.50497624 267.06472995 292.5158395 263.29125182 292.51074219 259.51147461 C292.57006424 257.84343277 292.57006424 257.84343277 292.63058472 256.14169312 C292.55942431 251.25913637 292.36539775 248.52051529 288.84435463 244.957901 C286.060664 242.91418045 283.2529976 241.12578728 280.26196289 239.40405273 C279.18043945 238.66155273 278.09891602 237.91905273 276.98461914 237.15405273 C276.10676758 236.57655273 275.22891602 235.99905273 274.32446289 235.40405273 C272.82786133 234.41405273 272.82786133 234.41405273 271.30102539 233.40405273 C270.29813477 232.74405273 269.29524414 232.08405273 268.26196289 231.40405273 C261.39460644 226.88466134 254.65185382 222.26212955 248.02612305 217.39526367 C243.26263886 213.96380483 238.35190082 210.75725589 233.44946289 207.52905273 C225.88507509 202.51989027 218.42854108 197.42776876 211.08618164 192.09936523 C204.86240257 187.65356047 198.43612772 183.49267322 192.04907227 179.28686523 C186.27861635 175.47294857 180.64701089 171.52419397 175.07226562 167.43041992 C170.10278795 163.84718087 164.99327401 160.47552237 159.88696289 157.09155273 C158.83379883 156.3896582 157.78063477 155.68776367 156.69555664 154.96459961 C152.26558769 152.01970897 147.84175767 149.11217264 143.26196289 146.40405273 Z M-20.73803711 393.40405273 C-23.05625743 396.90982763 -25.2245063 400.50023851 -27.30053711 404.15405273 C-30.72234325 407.31264302 -34.4851817 408.10496239 -38.89038086 409.44311523 C-43.38146945 410.95862661 -45.84762682 413.10023766 -48.48803711 416.96655273 C-51.70420835 420.45073824 -55.26168067 421.14830918 -59.73803711 422.40405273 C-66.8836415 424.43435361 -72.098765 427.72449225 -75.83959961 434.35717773 C-78.39001467 440.41143404 -78.61807181 446.20459306 -76.67553711 452.46655273 C-74.25795284 458.23243448 -69.85382891 462.67283011 -64.17553711 465.27905273 C-58.39971612 467.16932142 -52.89795238 467.55316024 -46.85595703 467.54931641 C-46.08925186 467.55267502 -45.32254669 467.55603363 -44.53260803 467.55949402 C-42.01122392 467.56895169 -39.48990659 467.57094456 -36.96850586 467.57202148 C-35.2050219 467.57523784 -33.44153821 467.57860219 -31.67805481 467.58210754 C-27.98539614 467.58808598 -24.29276082 467.58994878 -20.60009766 467.58935547 C-15.88615646 467.58925396 -11.17236627 467.60290027 -6.45846081 467.62012768 C-2.81658755 467.63128843 0.82524968 467.63327342 4.46713829 467.63274574 C6.20413419 467.63391994 7.9411312 467.63831003 9.67811012 467.64607811 C27.15486926 468.15296667 27.15486926 468.15296667 41.89086914 459.79858398 C46.64923196 454.60451566 48.8148042 449.76871073 48.56665039 442.54467773 C47.56732829 435.52379936 44.10810943 430.32759361 38.68383789 425.89233398 C34.99411846 423.62494188 31.04838672 422.58226879 26.91430664 421.37280273 C22.6929171 419.83096974 21.18430341 417.24873377 19.26196289 413.40405273 C18.9961701 411.36438194 18.74899454 409.32226559 18.51196289 407.27905273 C17.37667588 399.71603781 14.98495035 394.66954791 9.32446289 389.52905273 C-0.67025943 382.59393929 -13.01229015 384.007874 -20.73803711 393.40405273 Z M277.82446289 392.65405273 C274.01965021 397.70564019 272.30824123 402.76096821 271.82446289 409.02905273 C271.42208346 413.43245032 270.29241688 416.05460359 267.26196289 419.40405273 C264.31381359 420.93482256 261.45506642 422.0447125 258.27758789 423.00170898 C251.96308666 425.0453557 247.46006453 428.50670941 244.16040039 434.35717773 C241.60998533 440.41143404 241.38192819 446.20459306 243.32446289 452.46655273 C245.74204716 458.23243448 250.14617109 462.67283011 255.82446289 465.27905273 C261.60028388 467.16932142 267.10204762 467.55316024 273.14404297 467.54931641 C273.91074814 467.55267502 274.67745331 467.55603363 275.46739197 467.55949402 C277.98877608 467.56895169 280.51009341 467.57094456 283.03149414 467.57202148 C284.7949781 467.57523784 286.55846179 467.57860219 288.32194519 467.58210754 C292.01460386 467.58808598 295.70723918 467.58994878 299.39990234 467.58935547 C304.11384354 467.58925396 308.82763373 467.60290027 313.54153919 467.62012768 C317.18341245 467.63128843 320.82524968 467.63327342 324.46713829 467.63274574 C326.20413419 467.63391994 327.9411312 467.63831003 329.67811012 467.64607811 C347.15486926 468.15296667 347.15486926 468.15296667 361.89086914 459.79858398 C366.7061026 454.54243759 368.75427918 449.77369461 368.50415039 442.47827148 C367.73710668 435.90891322 365.04134198 431.33451642 360.21118164 426.86889648 C356.49551099 424.07655882 352.413885 422.96033192 347.96508789 421.81030273 C342.55932222 420.28652986 340.00360968 418.48020456 336.57446289 414.04467773 C333.5156872 410.22120813 329.75017741 409.24168823 325.19946289 408.02905273 C319.80034287 406.47161427 317.96599556 404.34959492 315.16821289 399.51342773 C311.56843277 393.46764318 307.75692711 389.00591133 301.26196289 386.02905273 C292.61458527 384.22751573 283.97175383 385.9715499 277.82446289 392.65405273 Z M-94.73803711 486.40405273 C-95.24618567 491.08615267 -95.24618567 491.08615267 -93.48803711 495.27905273 C-89.35492516 497.93605327 -84.73834607 497.54597484 -79.98211765 497.53268719 C-78.79726836 497.53531674 -78.79726836 497.53531674 -77.58848271 497.53799942 C-74.92547202 497.54267393 -72.26251558 497.54019019 -69.59950256 497.5377655 C-67.67745638 497.53963274 -65.75541058 497.54193309 -63.83336538 497.54463083 C-58.53891813 497.55076594 -53.24448664 497.55061323 -47.95003664 497.54943645 C-42.24511572 497.54923288 -36.54019992 497.55474701 -30.83528137 497.55949402 C-19.65399639 497.56781028 -8.47271668 497.57054929 2.70857113 497.5711064 C11.79357966 497.57158105 20.87858645 497.57363327 29.96359444 497.57680702 C51.51172746 497.58418183 73.05985876 497.59033157 94.60799313 497.58980846 C95.64197721 497.5897851 95.64197721 497.5897851 96.69684987 497.58976126 C100.19075871 497.58967815 103.68466756 497.5895791 107.1785764 497.58947655 C107.87250094 497.5894566 108.56642548 497.58943666 109.28137803 497.58941611 C110.6846624 497.58937567 112.08794677 497.58933387 113.49123114 497.58929072 C135.33009825 497.58867779 157.16894983 497.59618722 179.0078125 497.60986328 C203.53349208 497.6252155 228.05915969 497.63381737 252.58484465 497.63290006 C265.57466147 497.63256755 278.56446079 497.63533816 291.55427361 497.64607811 C302.61206735 497.65516186 313.66983565 497.65737589 324.7276315 497.65056869 C330.37271433 497.64729282 336.01774829 497.64728507 341.66282654 497.65592194 C346.82625535 497.66374088 351.98959617 497.66240301 357.15302271 497.6536378 C359.02512009 497.65209261 360.89722388 497.65395697 362.76931369 497.65949788 C365.30638441 497.6665121 367.84314252 497.6613006 370.38020229 497.6529417 C371.48022207 497.66039397 371.48022207 497.66039397 372.60246447 497.66799679 C377.76456872 497.63183524 381.54223079 497.12378483 385.26196289 493.40405273 C385.77011145 488.72195279 385.77011145 488.72195279 384.01196289 484.52905273 C379.87885094 481.87205219 375.26227185 482.26213063 370.50604343 482.27541828 C369.7161439 482.27366524 368.92624437 482.27191221 368.11240849 482.27010605 C365.4493978 482.26543154 362.78644136 482.26791527 360.12342834 482.27033997 C358.20138216 482.26847273 356.27933636 482.26617238 354.35729116 482.26347464 C349.06284392 482.25733953 343.76841242 482.25749224 338.47396243 482.25866902 C332.76904151 482.25887259 327.06412571 482.25335846 321.35920715 482.24861145 C310.17792217 482.24029519 298.99664247 482.23755618 287.81535465 482.23699907 C278.73034612 482.23652442 269.64533933 482.23447219 260.56033134 482.23129845 C239.01219832 482.22392364 217.46406702 482.2177739 195.91593266 482.218297 C194.88194857 482.21832037 194.88194857 482.21832037 193.82707591 482.21834421 C190.33316707 482.21842732 186.83925822 482.21852636 183.34534938 482.21862892 C182.65142484 482.21864887 181.9575003 482.21866881 181.24254775 482.21868936 C179.83926338 482.2187298 178.43597901 482.2187716 177.03269464 482.21881475 C155.19382753 482.21942768 133.35497595 482.21191825 111.51611328 482.19824219 C86.9904337 482.18288997 62.46476609 482.1742881 37.93908113 482.17520541 C24.94926431 482.17553792 11.959465 482.17276731 -1.03034782 482.16202736 C-12.08814157 482.15294361 -23.14590987 482.15072958 -34.20370572 482.15753678 C-39.84878855 482.16081264 -45.49382251 482.1608204 -51.13890076 482.15218353 C-56.30232957 482.14436459 -61.46567039 482.14570245 -66.62909693 482.15446766 C-68.5011943 482.15601286 -70.37329809 482.1541485 -72.2453879 482.14860759 C-74.78245862 482.14159337 -77.31921674 482.14680487 -79.85627651 482.15516376 C-80.58962303 482.15019559 -81.32296955 482.14522741 -82.07853869 482.14010867 C-87.24064294 482.17627023 -91.01830501 482.68432064 -94.73803711 486.40405273 Z " fill="#000000" transform="translate(110.738037109375,-0.404052734375)"/>
<path d="M0 0 C2.0785612 1.60415071 4.0393004 3.25126793 6 5 C9.6928957 3.3359723 12.78697832 1.05558676 16.0625 -1.3125 C32.19727731 -12.67636315 50.91725493 -17.1109721 70.51171875 -14.5390625 C83.27199592 -11.9223591 92.90217667 -6.2087724 102 3 C102.63679687 3.61488281 103.27359375 4.22976563 103.9296875 4.86328125 C115.87276812 17.25754491 120.32675011 35.23071901 120.31030273 51.98876953 C119.76046782 80.49004806 104.11465152 103.22905143 85 123 C84.39800781 123.65355469 83.79601562 124.30710937 83.17578125 124.98046875 C69.78490564 139.18086832 51.84840496 150.36502417 35 160 C34.12118164 160.50950195 33.24236328 161.01900391 32.33691406 161.54394531 C29.44314901 163.21460312 26.53623351 164.85999864 23.625 166.5 C22.25214844 167.29349854 22.25214844 167.29349854 20.8515625 168.10302734 C14.89644507 171.40625654 8.96121016 174.38864023 2.05664062 172.45605469 C0.09724766 171.62755224 -1.71279038 170.67520231 -3.5625 169.625 C-4.57787842 169.08178101 -4.57787842 169.08178101 -5.61376953 168.52758789 C-7.75516914 167.37340561 -9.87704936 166.18770875 -12 165 C-13.41197265 164.23422278 -14.8247275 163.46988596 -16.23828125 162.70703125 C-37.15241783 151.30711254 -37.15241783 151.30711254 -41 145 C-40.93416738 141.24754049 -40.81598805 138.93687517 -38.3125 136.0625 C-35.27925742 134.668848 -33.33067391 134.71211462 -30 135 C-26.9140625 136.43359375 -26.9140625 136.43359375 -23.625 138.4375 C-22.39896711 139.17015782 -21.17238134 139.90189104 -19.9453125 140.6328125 C-19.30625977 141.01856445 -18.66720703 141.40431641 -18.00878906 141.80175781 C-14.54222865 143.86956026 -11.02018611 145.83787129 -7.5 147.8125 C-6.84209473 148.1849585 -6.18418945 148.55741699 -5.50634766 148.94116211 C-4.25739635 149.64535127 -3.00411464 150.34192966 -1.74609375 151.02978516 C-0.10852504 151.93969819 1.49432636 152.91131267 3.09375 153.88671875 C5.94665222 155.27354093 5.94665222 155.27354093 8.875 154.44140625 C12.64265741 152.70357427 16.34147059 150.89469845 20 148.9375 C20.74548096 148.53974365 21.49096191 148.1419873 22.2590332 147.73217773 C29.42620239 143.8542559 36.26786139 139.58596759 43 135 C43.57314941 134.61231445 44.14629883 134.22462891 44.73681641 133.82519531 C70.46910835 116.3068633 96.31378604 92.96534492 102.58203125 61.03515625 C104.63845577 46.10205482 102.19165353 30.56988351 93.02734375 18.375 C85.07542382 8.95050231 75.40520868 3.00636975 63.04296875 1.68359375 C47.5994294 1.0932735 32.68036004 5.82167051 21.16503906 16.20092773 C19.63496828 17.62027584 18.12863716 19.06042413 16.62890625 20.51171875 C11.09287257 25.75161987 11.09287257 25.75161987 7.25 26.625 C1.60485565 25.53939532 -1.81533531 21.16091833 -5.796875 17.22265625 C-17.37800569 6.30966771 -33.03225101 1.21485739 -48.80078125 1.65234375 C-61.7238557 3.05668273 -71.6600108 9.53595498 -79.98828125 19.23046875 C-87.79117911 29.97271066 -90.20882478 43.96638921 -89 57 C-85.06560004 80.93011621 -70.93523179 100.20442684 -53.375 116.375 C-50.6368348 119.40139311 -49.91343276 120.93133991 -50 125 C-52.13043478 129.56521739 -52.13043478 129.56521739 -55 131 C-58.48262287 131.55721966 -60.93326344 131.69838242 -63.95703125 129.71875 C-66.06243102 127.8915786 -68.03280486 125.97481992 -70 124 C-70.60328125 123.45601562 -71.2065625 122.91203125 -71.828125 122.3515625 C-90.6086261 104.91252577 -104.77892893 80.19061849 -106.203125 54.30859375 C-106.42181239 36.24865998 -102.50413142 18.68279954 -90 5 C-89.3090625 4.22914063 -88.618125 3.45828125 -87.90625 2.6640625 C-64.05989424 -22.60971597 -26.53636079 -18.75919869 0 0 Z " fill="#000000" transform="translate(249,263)"/>
</svg>
