<?xml version="1.0" encoding="UTF-8"?>
<svg version="1.1" xmlns="http://www.w3.org/2000/svg" width="512" height="512">
<path d="M0 0 C10.4055457 8.95609285 17.61650206 18.81450006 24.25 30.6875 C26.92074064 27.46299888 29.18772927 24.22787211 31.3125 20.625 C44.42940195 -0.09469226 64.33726173 -12.77403604 87.8828125 -18.62109375 C111.72860599 -23.51750378 135.55700113 -19.20997403 156.25 -6.3125 C159.3898069 -4.12988716 162.33084083 -1.78060853 165.25 0.6875 C166.4875 1.70650391 166.4875 1.70650391 167.75 2.74609375 C186.38088837 18.6789114 196.08251282 41.80867462 198.08148193 65.87036133 C198.725653 76.63905369 198.44605301 87.46804147 198.375 98.25 C198.36379142 100.91861641 198.35582569 103.58723051 198.34765625 106.25585938 C198.32582893 112.73315437 198.2925322 119.21030957 198.25 125.6875 C199.03038635 125.67861755 199.81077271 125.66973511 200.61480713 125.6605835 C207.9715982 125.58041325 215.32817729 125.51952369 222.68529129 125.48025131 C226.46762995 125.45938205 230.24960747 125.43107752 234.03173828 125.38574219 C237.68220312 125.34225926 241.33232076 125.31835791 244.9830246 125.30799103 C246.37531754 125.3006039 247.76759162 125.28617825 249.15973663 125.26457977 C251.11053411 125.23551959 253.06168146 125.23386588 255.01269531 125.23339844 C256.1230011 125.22451599 257.23330688 125.21563354 258.3772583 125.20648193 C261.90955657 125.79793757 263.0678963 126.90728249 265.25 129.6875 C265.81640625 131.6875 265.81640625 131.6875 265.8125 133.6875 C265.83441406 134.3475 265.85632813 135.0075 265.87890625 135.6875 C264.87352322 138.88474291 263.03023329 139.89584188 260.25 141.6875 C257.47026209 142.06446754 255.09468741 142.21239309 252.32170105 142.16851807 C251.13310446 142.17364462 251.13310446 142.17364462 249.92049581 142.17887473 C247.26848651 142.18545712 244.61749203 142.16347223 241.96557617 142.14160156 C240.06338525 142.14047316 238.16119259 142.1411068 236.25900269 142.14337158 C231.09608778 142.14451993 225.93354407 142.12099082 220.77071548 142.09307575 C215.37485746 142.06808242 209.97899108 142.06572173 204.58308411 142.06097412 C194.36566192 142.04853828 184.14841079 142.01570835 173.93106395 141.97557616 C162.29878717 141.93087745 150.66650225 141.90887618 139.03416097 141.88879442 C115.10601246 141.84697634 91.17801581 141.77661236 67.25 141.6875 C67.31049605 156.76032772 67.38796854 171.83299671 67.48571491 186.90562916 C67.5307023 193.90394906 67.57011003 200.90221773 67.59643555 207.90063477 C67.62184159 214.65047209 67.66272614 221.40005131 67.71318626 228.14975548 C67.72991234 230.72900254 67.74139071 233.30828899 67.74761391 235.88758278 C67.75719251 239.49146169 67.78517748 243.09475116 67.81762695 246.69848633 C67.81547432 248.30933609 67.81547432 248.30933609 67.8132782 249.95272827 C67.83208542 251.42297707 67.83208542 251.42297707 67.85127258 252.92292786 C67.85588155 253.77558637 67.86049051 254.62824488 67.86523914 255.50674152 C68.33322452 258.15920228 69.28995453 258.92393391 71.25 260.6875 C71.25 261.3475 71.25 262.0075 71.25 262.6875 C71.8275 262.95949219 72.405 263.23148437 73 263.51171875 C75.24656588 264.68570543 77.19248663 266.02311067 79.25 267.5 C91.51121131 275.78240764 105.13683105 278.77672542 119.69921875 276.0390625 C132.18699221 272.51416625 141.55329457 266.17322104 150.25 256.6875 C153.8773638 252.80642645 153.8773638 252.80642645 157.1875 251.75 C161.07133364 251.67073809 162.21993605 252.24866804 165.25 254.6875 C166.35117346 255.92181282 167.43263473 257.17383767 168.5 258.4375 C176.85569387 268.2518387 188.29485939 275.205172 201.25 276.6875 C218.02119147 278.02672291 231.15998407 273.22361562 244.0625 262.6875 C246.43179781 260.59959148 248.31652877 258.36669127 250.25 255.875 C252.52133614 253.14939663 253.24272656 252.68992448 256.8125 251.5 C260.25 251.6875 260.25 251.6875 263.1875 253.125 C265.45970315 255.94804028 266.10527192 257.84144416 265.85546875 261.48046875 C263.04407003 271.72847052 251.1450282 279.85984789 242.5 284.9375 C236.065592 288.58004708 229.44181275 290.93653596 222.25 292.6875 C221.10337891 292.97367187 221.10337891 292.97367187 219.93359375 293.265625 C201.47857667 296.16685039 183.75136585 291.97605758 168.25 281.6875 C165.05495228 279.19256234 162.08868716 276.5800376 159.25 273.6875 C156.48873659 274.95506273 154.44594428 276.28770921 152.25 278.375 C143.74430697 285.77676266 134.10850132 289.97651846 123.25 292.6875 C122.48300781 292.87957031 121.71601563 293.07164062 120.92578125 293.26953125 C102.6919374 296.11773752 83.70437477 292.29440941 68.57324219 281.49023438 C65.34608757 279.02432776 62.267917 276.4036253 59.25 273.6875 C58.57517578 274.21537109 58.57517578 274.21537109 57.88671875 274.75390625 C40.04071535 288.45133972 22.83873607 295.55753934 0.25 293.6875 C-13.95381492 291.79813367 -25.98734732 285.59267934 -36.7265625 276.19140625 C-38.7311115 274.38923816 -38.7311115 274.38923816 -41.75 274.6875 C-43.56757959 275.97824493 -45.33068949 277.34627267 -47.0625 278.75 C-62.77043564 290.95949284 -80.05213552 295.48804366 -99.75 293.6875 C-114.64054143 291.51817601 -128.29778655 284.46532757 -138.75 273.6875 C-142.06402595 275.16374792 -144.50670349 277.078265 -147.25 279.4375 C-162.3293522 291.58903637 -179.8453783 295.18165047 -198.75 293.6875 C-216.86571812 291.62571109 -232.93492379 281.02114288 -244.5078125 267.31640625 C-246.87404007 264.21352293 -247.15381328 261.57011007 -247.08984375 257.66796875 C-246.75 255.6875 -246.75 255.6875 -244.6875 253.125 C-240.82099355 251.23287982 -238.89227387 251.64968518 -234.75 252.6875 C-232.37109375 254.875 -232.37109375 254.875 -230.1875 257.6875 C-220.41434932 269.05747409 -208.03723979 275.57285574 -192.9921875 277.05859375 C-179.57208312 277.51327901 -167.57895084 273.66219757 -156.75 265.6875 C-156.08701904 265.19930283 -155.42403809 264.71110565 -154.7409668 264.20811462 C-151.34729902 261.33469838 -149.08229772 259.09607911 -148.04194641 254.68612671 C-147.81249839 251.08652809 -147.8249731 247.56253846 -147.92578125 243.95703125 C-147.92728142 241.95775478 -147.92875564 239.95847789 -147.92869091 237.95920086 C-147.93795374 235.17762107 -147.98282474 232.39708977 -148.02856445 229.61590576 C-148.10682719 224.73616751 -148.15646345 219.85660485 -148.16410828 214.97624207 C-148.17175917 212.3828705 -148.20408731 209.78942808 -148.26374817 207.19673157 C-148.31486969 197.47418519 -148.31486969 197.47418519 -145.41088867 194.39331055 C-142.1101487 192.27731181 -140.59532213 191.88639122 -136.75 192.6875 C-134.17109003 194.34075663 -133.16993412 195.06790654 -131.75 197.6875 C-131.06478724 202.13242675 -131.22096946 206.53260189 -131.32421875 211.01953125 C-131.33010521 213.01482487 -131.33594479 215.01011988 -131.33907032 217.00541973 C-131.35487607 221.912026 -131.42542029 226.81796774 -131.50610352 231.72387695 C-131.54953728 234.48011373 -131.57133254 237.23504699 -131.57124329 239.99162292 C-131.57318685 242.58181395 -131.60819562 245.1722489 -131.68058777 247.76142883 C-131.66393103 253.78024373 -131.4670856 257.75834565 -127.19848633 262.2331543 C-124.51571875 264.57484166 -121.60983482 266.42148089 -118.5936079 268.29722309 C-117.87368701 268.74544432 -117.15376612 269.19366555 -116.41202945 269.65546924 C-115.58932487 270.16632447 -115.58932487 270.16632447 -114.75 270.6875 C-114.74641747 269.0961278 -114.74641747 269.0961278 -114.74276257 267.47260666 C-114.68390968 241.63158908 -114.60799103 215.79066431 -114.51428509 189.94974899 C-114.4693623 177.45316157 -114.42993947 164.95660241 -114.40356445 152.45996094 C-114.38055595 141.56505918 -114.34712596 130.67024716 -114.30129844 119.77541661 C-114.27740481 114.00926851 -114.2586507 108.24320908 -114.25238609 102.47701263 C-114.24631784 97.04333561 -114.22625499 91.60988534 -114.19572449 86.17629242 C-114.18697216 84.18822812 -114.18321583 82.20013416 -114.18499184 80.21205139 C-114.19714385 60.32197925 -111.05088607 43.99698147 -96.61328125 29.38671875 C-84.55455378 18.01894156 -70.59035123 13.09744863 -54.10546875 13.4453125 C-38.5436188 14.56851936 -25.36529445 21.3046093 -14.75 32.6875 C-2.99354802 46.67560725 -0.40871375 62.1302576 -0.5546875 79.88671875 C-0.5575174 81.20291702 -0.56034729 82.5191153 -0.56326294 83.87519836 C-0.57081584 87.33572307 -0.59039005 90.79607374 -0.6126709 94.25653076 C-0.63331162 97.80315803 -0.64230319 101.34981406 -0.65234375 104.89648438 C-0.67364595 111.82690062 -0.7087575 118.75717398 -0.75 125.6875 C5.19 125.6875 11.13 125.6875 17.25 125.6875 C17.18646429 118.28822242 17.11054823 110.88930187 17.01428509 103.49037266 C16.97002492 100.05277013 16.93067925 96.61527415 16.90356445 93.17749023 C16.9339974 64.5983836 16.9339974 64.5983836 8.25 37.6875 C7.49396484 36.19476563 7.49396484 36.19476563 6.72265625 34.671875 C-2.53046264 17.68968033 -17.22851553 5.63276547 -35.66796875 -0.2421875 C-55.54192991 -5.87448418 -75.39005061 -4.00428823 -93.75 5.6875 C-97.60652143 8.14254096 -101.19181341 10.82118302 -104.75 13.6875 C-105.39453125 14.16832031 -106.0390625 14.64914063 -106.703125 15.14453125 C-120.19404432 25.68811008 -128.39531065 44.02693305 -130.75 60.6875 C-131.33373587 68.16164961 -131.25191657 75.66167271 -131.20528984 83.15349388 C-131.18316108 86.86554774 -131.187196 90.576798 -131.19776917 94.28889465 C-131.21928839 103.49075378 -131.20245495 112.69245218 -131.17626953 121.89428711 C-131.15456911 129.70952707 -131.15286227 137.5243247 -131.17918587 145.33956337 C-131.18353583 148.99430549 -131.15891683 152.64814078 -131.13365173 156.30278015 C-131.13891998 158.53543505 -131.14564073 160.76808716 -131.15405273 163.00073242 C-131.131688 164.52101295 -131.131688 164.52101295 -131.10887146 166.07200623 C-131.15664897 170.76867691 -131.21011336 172.96860125 -134.0997467 176.81636047 C-136.75 178.6875 -136.75 178.6875 -139.75 179.3125 C-143.82977143 178.46254762 -145.16277811 176.92172956 -147.75 173.6875 C-148.31762695 170.18237305 -148.31762695 170.18237305 -148.23828125 166.19921875 C-148.23120651 165.49602005 -148.22413177 164.79282135 -148.21684265 164.0683136 C-148.18899212 161.83609773 -148.1262832 159.60644923 -148.0625 157.375 C-148.03740451 155.85615619 -148.01459352 154.3372728 -147.99414062 152.81835938 C-147.93920007 149.10724752 -147.85299739 145.39762459 -147.75 141.6875 C-148.90400803 141.69416183 -150.05801605 141.70082367 -151.24699402 141.70768738 C-162.12063769 141.76849357 -172.99424687 141.81347033 -183.86802197 141.84293652 C-189.45839205 141.85859462 -195.04862491 141.87983576 -200.63891602 141.91381836 C-206.03352012 141.94640631 -211.42799221 141.96435193 -216.82268715 141.97213173 C-218.88118887 141.97767622 -220.93968334 141.9885032 -222.99812889 142.00469017 C-225.88066619 142.02645673 -228.76265745 142.02946722 -231.64526367 142.02807617 C-232.49690598 142.038862 -233.34854828 142.04964783 -234.22599792 142.0607605 C-238.88710927 142.03640955 -241.96932071 141.72901906 -245.75 138.6875 C-247.19430855 135.79888291 -247.12688506 133.89102299 -246.75 130.6875 C-244.76525573 127.97442404 -243.1718374 126.01279348 -239.78851891 125.23874474 C-237.36285628 125.07122237 -234.98447902 125.06911677 -232.5534668 125.11987305 C-231.63590103 125.11914291 -230.71833527 125.11841278 -229.77296448 125.11766052 C-226.74777591 125.12113692 -223.72413749 125.16000094 -220.69921875 125.19921875 C-218.59887025 125.20854668 -216.49851086 125.21566289 -214.39814758 125.22065735 C-208.87574109 125.23972858 -203.35399435 125.28883113 -197.83184814 125.34417725 C-192.19463017 125.39536663 -186.55730538 125.41817077 -180.91992188 125.44335938 C-169.86299172 125.49694919 -158.80655077 125.58226406 -147.75 125.6875 C-147.75999275 124.49718422 -147.75999275 124.49718422 -147.77018738 123.28282166 C-147.83075035 115.73813066 -147.87620097 108.19356052 -147.90543652 100.64868832 C-147.92097295 96.77146317 -147.94198577 92.89444187 -147.97631836 89.01733398 C-148.00934803 85.26309318 -148.0269429 81.50904619 -148.03463173 77.7546711 C-148.04009825 76.33521035 -148.05076794 74.91575803 -148.06719017 73.49638176 C-148.35079901 47.92475922 -139.69590187 24.81140363 -122.16015625 6.12890625 C-89.1840341 -27.57798869 -36.28503794 -28.56807917 0 0 Z M51.4375 20.4375 C39.92022704 33.92371852 32.87982366 51.04153654 33.00949097 68.81813049 C33.00778212 69.69153342 33.00607327 70.56493634 33.00431263 71.46480602 C33.0010406 74.36667842 33.01198348 77.26831522 33.02294922 80.17016602 C33.02351383 82.26013687 33.0231958 84.35010811 33.02206421 86.44007874 C33.02149164 92.09642517 33.03323056 97.75268636 33.04721212 103.40901303 C33.05973535 109.3267023 33.06089124 115.24439364 33.06326294 121.16209412 C33.06947302 132.36034205 33.08587748 143.55855081 33.10596192 154.75678152 C33.12833558 167.50885822 33.13931804 180.26093681 33.14935279 193.01302826 C33.17024411 219.23787387 33.20541094 245.46268474 33.25 271.6875 C34.34650879 271.07543701 35.44301758 270.46337402 36.57275391 269.83276367 C37.4979332 269.31633553 37.4979332 269.31633553 38.44180298 268.78947449 C41.12189259 267.1561401 43.33272335 265.13358057 45.625 263 C46.47835938 262.21238281 47.33171875 261.42476563 48.2109375 260.61328125 C51.09484763 258.24414462 51.09484763 258.24414462 51.37749195 254.5425539 C51.38390073 253.10189472 51.38466342 251.66120479 51.38130188 250.22053528 C51.38341759 249.42918251 51.38553331 248.63782975 51.38771313 247.82249659 C51.39374235 245.14963582 51.39271088 242.47682187 51.3918457 239.80395508 C51.39487551 237.89551208 51.39839647 235.9870698 51.40237427 234.07862854 C51.41028137 229.95617911 51.41541516 225.83373841 51.41866493 221.71128273 C51.42456752 215.18377147 51.44110381 208.65631497 51.46000671 202.12882996 C51.46634495 199.89450172 51.47267056 197.66017345 51.47898388 195.42584515 C51.48214969 194.30646757 51.4853155 193.18709 51.48857725 192.0337919 C51.53063862 176.83218961 51.56359109 161.63061161 51.57592773 146.42895508 C51.58432736 136.18407879 51.60689465 125.93933688 51.6452834 115.6945278 C51.66499221 110.27481649 51.67746613 104.85530583 51.67244911 99.43555641 C51.6677776 94.32601827 51.68174408 89.21685894 51.70946121 84.10739708 C51.71633304 82.24111042 51.71654321 80.37478425 51.70926094 78.50849915 C51.64463513 60.07015819 54.81910288 44.33566981 67.9375 30.375 C79.20742071 19.81686375 92.65916523 14.69093417 108 14.25 C122.88207639 14.83576438 137.27103754 20.7058588 148 31.1171875 C157.60416213 42.08860882 162.7095056 55.16465056 163.25 69.6875 C163.28996094 70.56664062 163.32992187 71.44578125 163.37109375 72.3515625 C163.59488195 81.27676261 163.59488195 81.27676261 161.25 84.6875 C157.97371171 86.36204735 156.11884099 86.86521748 152.5 86.125 C149.54591573 84.23766838 149.25423005 83.04233933 148.25 79.6875 C147.97204674 76.81543827 147.93448174 73.94616269 147.875 71.0625 C147.34763139 58.14716489 143.71526523 48.69485863 134.1484375 39.71484375 C125.73797463 32.71603101 116.05869966 29.25117437 105.12890625 29.4140625 C95.30866336 30.34678571 87.33781332 33.90543549 80.25 40.6875 C79.29480469 41.60015625 79.29480469 41.60015625 78.3203125 42.53125 C71.11193956 50.07993239 67.11534772 59.43857735 67.13647461 69.83300781 C67.13665588 71.72043701 67.13665588 71.72043701 67.13684082 73.64599609 C67.14195679 74.96422363 67.14707275 76.28245117 67.15234375 77.640625 C67.15335083 78.85540527 67.15435791 80.07018555 67.15539551 81.32177734 C67.1606282 85.86036116 67.17458946 90.39893153 67.1875 94.9375 C67.208125 105.085 67.22875 115.2325 67.25 125.6875 C93.65 125.6875 120.05 125.6875 147.25 125.6875 C147.58 120.4075 147.91 115.1275 148.25 109.6875 C148.91 107.7075 149.57 105.7275 150.25 103.6875 C153.26868434 102.17815783 155.92297229 102.51239328 159.25 102.6875 C162.25 104.6875 162.25 104.6875 162.91772461 106.55566406 C163.24367001 108.6468876 163.45433714 110.68357176 163.56640625 112.796875 C163.60451416 113.47717773 163.64262207 114.15748047 163.68188477 114.85839844 C163.72498779 115.70950195 163.76809082 116.56060547 163.8125 117.4375 C164.0290625 121.52125 164.0290625 121.52125 164.25 125.6875 C170.19 125.6875 176.13 125.6875 182.25 125.6875 C182.29990747 118.1476332 182.33595715 110.60786525 182.35986328 103.06787109 C182.36984275 100.5095858 182.38343109 97.95131167 182.40087891 95.39306641 C182.59682805 65.89695694 180.96299621 39.7326473 159.73974609 17.18164062 C149.3956098 6.80699066 135.54235262 -0.36440746 121.25 -3.3125 C120.156875 -3.539375 119.06375 -3.76625 117.9375 -4 C91.82008095 -6.2133406 69.57335967 1.58982331 51.4375 20.4375 Z M-87.19140625 42.71484375 C-96.15776195 54.06323881 -98.21557298 64.77090813 -98.04296875 79.0078125 C-98.03994751 80.19689209 -98.03692627 81.38597168 -98.03381348 82.61108398 C-98.01823254 87.01164552 -97.97634946 91.41208237 -97.9375 95.8125 C-97.875625 105.67125 -97.81375 115.53 -97.75 125.6875 C-71.02 125.6875 -44.29 125.6875 -16.75 125.6875 C-16.688125 116.2 -16.62625 106.7125 -16.5625 96.9375 C-16.53518799 93.9665332 -16.50787598 90.99556641 -16.47973633 87.93457031 C-16.47096366 85.54492599 -16.46332157 83.15527714 -16.45703125 80.765625 C-16.44168335 79.55310059 -16.42633545 78.34057617 -16.41052246 77.09130859 C-16.40628218 63.09837146 -19.37850064 51.97866819 -28.78515625 41.3984375 C-36.31451686 34.10138022 -46.44098655 29.59776864 -57 29.5 C-68.5805273 29.71020759 -79.26727707 34.06861168 -87.19140625 42.71484375 Z M-97.75 141.6875 C-97.75 153.5675 -97.75 165.4475 -97.75 177.6875 C-59.8 177.6875 -21.85 177.6875 17.25 177.6875 C17.25 165.8075 17.25 153.9275 17.25 141.6875 C-20.7 141.6875 -58.65 141.6875 -97.75 141.6875 Z M-97.75 193.6875 C-97.75 200.2875 -97.75 206.8875 -97.75 213.6875 C-59.8 213.6875 -21.85 213.6875 17.25 213.6875 C17.25 207.0875 17.25 200.4875 17.25 193.6875 C-20.7 193.6875 -58.65 193.6875 -97.75 193.6875 Z M-97.75 229.6875 C-97.75 245.5275 -97.75 261.3675 -97.75 277.6875 C-86.64919565 277.6875 -79.5531183 277.66411795 -69.75 273.6875 C-68.83863281 273.32140625 -67.92726562 272.9553125 -66.98828125 272.578125 C-59.88713245 269.21933345 -54.90352263 264.20584155 -49.69555664 258.44970703 C-46.96507178 255.50979395 -45.40352476 253.88293205 -41.484375 252.7109375 C-37.82758731 252.67959361 -36.61283 253.38327098 -33.75 255.6875 C-32.69298124 256.90348992 -31.65308952 258.13445493 -30.625 259.375 C-22.25885807 269.18358019 -10.56547564 275.79828855 2.25 277.6875 C4.66530294 277.77874478 7.08297945 277.81755653 9.5 277.8125 C11.36398437 277.81636719 11.36398437 277.81636719 13.265625 277.8203125 C16.13340913 278.02908108 16.13340913 278.02908108 17.25 276.6875 C17.25 261.1775 17.25 245.6675 17.25 229.6875 C-20.7 229.6875 -58.65 229.6875 -97.75 229.6875 Z " fill="#000000" transform="translate(246.75,73.3125)"/>
<path d="M0 0 C3.39648052 2.09014186 5.66905688 4.78213036 8.1875 7.8125 C17.14035408 18.17085591 29.93701121 24.1135972 43.53515625 25.203125 C59.65652366 25.50213027 72.08252583 20.08353049 83.80859375 9.24609375 C86.05118417 6.9475385 88.00785914 4.51571635 90 2 C92.49691479 0.10578878 94.03025318 -0.0023728 97.1875 -0.25 C102.11485602 0.60966637 104.56189345 4.73468665 107.62109375 8.36328125 C116.44181793 18.13994598 129.75923793 24.20127761 142.8046875 25.21875 C158.90709753 25.7206433 172.24559117 19.75026335 184 9 C185.95646386 6.90972992 187.81778511 4.78632647 189.625 2.56640625 C191.65395484 0.25501167 192.78782082 0.01845036 195.875 -0.25 C199.42231438 0.03378515 200.66862746 0.32323893 203 3 C204.30274966 7.2339364 204.2787229 9.33348872 202.5625 13.4375 C192.54800692 28.62840335 174.78783331 37.86791965 157.4140625 41.49609375 C139.73740981 44.10511915 121.62354248 40.41054927 107.0625 29.9375 C103.66303539 27.34816421 100.33156536 24.67598005 97 22 C94.20552073 23.28231516 92.11589384 24.65549621 89.875 26.75 C76.24111916 38.57178275 58.89392967 43.0347879 41.05566406 42.17480469 C26.14028238 40.90646582 12.15478123 34.45831008 1.0859375 24.50390625 C-1.11218142 22.61011679 -1.11218142 22.61011679 -5 23 C-7.4575144 24.64558634 -7.4575144 24.64558634 -9.875 26.8125 C-18.56626773 34 -18.56626773 34 -24.125 34 C-27.86307225 32.69980096 -29.11214179 31.4736591 -31 28 C-31.0625 24.4375 -31.0625 24.4375 -30 21 C-28 19 -28 19 -25 17 C-19.15312751 12.7791149 -14.27045084 8.35265858 -9.62890625 2.8203125 C-6.71209537 -0.43924115 -4.24677305 -0.4163503 0 0 Z " fill="#000000" transform="translate(259,417)"/>
<path d="M0 0 C3.53846315 2.43269341 5.99397166 4.95832352 8.625 8.3125 C16.72867787 17.97782413 28.8055636 22.96124267 41 25 C56.47728279 26.16809681 70.5287448 21.5714044 82.4375 11.5 C84.91757713 9.20670692 86.98848127 6.78539052 89.0625 4.125 C91.346779 1.35523392 91.94352686 1.01655247 95.625 -0.0625 C99.75341669 0.01395216 101.80212107 0.76023719 104.67578125 3.734375 C105.21589844 4.39953125 105.75601563 5.0646875 106.3125 5.75 C116.47141852 17.59495752 128.17364049 23.37679383 143.60253906 24.93823242 C147.29237231 25.349282 149.46507992 25.61104261 152.51953125 27.83203125 C154.53391083 30.78184831 154.6481625 32.6086333 154.43359375 36.09375 C154 38 154 38 152.125 40.5 C143.0140872 44.87323814 131.46071788 40.93821536 122.3046875 38.19140625 C113.01845826 34.83223972 104.79066367 29.11226159 98 22 C94.63953698 23.52465452 91.92171849 25.50653759 89 27.75 C73.71409931 38.96508825 55.97433547 44.38279384 36.97558594 41.71582031 C18.85019368 38.43866505 3.41054761 29.20334565 -8.52734375 15.1328125 C-10.66292997 12.03989453 -11.21558575 9.73681975 -11 6 C-8.46483058 0.44677175 -6.03931526 -0.69684407 0 0 Z " fill="#000000" transform="translate(60,417)"/>
</svg>
